<?xml version="1.0" encoding="utf-8" standalone="no"?>
<!DOCTYPE svg PUBLIC "-//W3C//DTD SVG 1.1//EN"
  "http://www.w3.org/Graphics/SVG/1.1/DTD/svg11.dtd">
<svg xmlns:xlink="http://www.w3.org/1999/xlink" width="349.2pt" height="348.686014pt" viewBox="0 0 349.2 348.686014" xmlns="http://www.w3.org/2000/svg" version="1.1">
 <metadata>
  <rdf:RDF xmlns:dc="http://purl.org/dc/elements/1.1/" xmlns:cc="http://creativecommons.org/ns#" xmlns:rdf="http://www.w3.org/1999/02/22-rdf-syntax-ns#">
   <cc:Work>
    <dc:type rdf:resource="http://purl.org/dc/dcmitype/StillImage"/>
    <dc:date>2025-11-19T13:53:28.063468</dc:date>
    <dc:format>image/svg+xml</dc:format>
    <dc:creator>
     <cc:Agent>
      <dc:title>Matplotlib v3.10.7, https://matplotlib.org/</dc:title>
     </cc:Agent>
    </dc:creator>
   </cc:Work>
  </rdf:RDF>
 </metadata>
 <defs>
  <style type="text/css">*{stroke-linejoin: round; stroke-linecap: butt}</style>
 </defs>
 <g id="figure_1">
  <g id="patch_1">
   <path d="M 0 348.686014 
L 349.2 348.686014 
L 349.2 0 
L 0 0 
L 0 348.686014 
z
" style="fill: none"/>
  </g>
  <g id="axes_1">
   <g id="patch_2">
    <path d="M 287.454369 121.052181 
C 281.255015 108.758342 273.213173 97.483765 263.607706 87.619411 
C 254.002239 77.755058 242.945472 69.416281 230.820813 62.892238 
C 218.696155 56.368196 205.64539 51.73518 192.121071 49.153847 
C 178.596753 46.572514 164.757033 46.07305 151.081824 47.672774 
C 137.406614 49.272497 124.055832 52.952702 111.492433 58.585772 
C 98.929034 64.218842 87.299934 71.738904 77.008388 80.88519 
C 66.716842 90.031476 57.883198 100.69703 50.813775 112.51201 
C 43.744353 124.326989 38.521821 137.15323 35.327278 150.545966 
C 32.132734 163.938701 31.003537 177.741317 31.978841 191.47519 
C 32.954146 205.209062 36.022547 218.713588 41.077644 231.520479 
C 46.132742 244.32737 53.115421 256.286864 61.783548 266.984249 
C 70.451676 277.681634 80.703887 286.991815 92.184672 294.591949 
C 103.665457 302.192083 116.240561 307.993295 129.473925 311.79442 
C 142.707289 315.595545 156.444163 317.352133 170.208202 317.003272 
C 183.972241 316.65441 197.602489 314.204179 210.626299 309.737543 
C 223.650109 305.270907 235.915182 298.840099 246.996209 290.668116 
C 235.15968 289.82824 223.96429 284.943958 215.297469 276.838709 
C 206.630649 268.733461 201.008443 257.889856 199.3787 246.136016 
C 190.735992 240.534028 183.312145 233.244912 177.552823 224.706242 
C 171.793501 216.167572 167.816302 206.553697 165.859981 196.441749 
C 163.903659 186.329801 164.008163 175.926255 166.167217 165.855646 
C 168.326271 155.785037 172.49579 146.252996 178.425474 137.831741 
C 184.355159 129.410486 191.92393 122.271971 200.677427 116.844728 
C 209.430924 111.417484 219.19041 107.812331 229.370013 106.245689 
C 239.549616 104.679046 249.941479 105.182905 259.921769 107.727016 
C 269.902058 110.271128 279.266987 114.803544 287.454369 121.052181 
" clip-path="url(#pc55b80fc65)" style="fill: #6d4bff"/>
   </g>
   <g id="patch_3">
    <path d="M 287.454369 121.052181 
C 294.852393 135.72308 299.513283 151.620903 301.207858 167.963928 
C 302.902433 184.306953 301.602454 200.822846 297.371844 216.699495 
C 298.298789 218.638884 299.104053 220.634121 299.78296 222.673617 
C 300.461867 224.713112 301.0131 226.792911 301.433457 228.900933 
C 307.641683 220.919878 312.207463 211.787253 314.86646 202.031791 
C 317.525458 192.276328 318.225349 182.089997 316.925615 172.062535 
C 315.62588 162.035072 312.352095 152.363799 307.293796 143.608634 
C 302.235497 134.853468 295.492221 127.186695 287.454369 121.052181 
" clip-path="url(#pc55b80fc65)" style="fill: #ac99ff"/>
   </g>
   <g id="patch_4">
    <path d="M 287.454369 121.052181 
C 279.266987 114.803544 269.902058 110.271128 259.921769 107.727016 
C 249.941479 105.182905 239.549616 104.679046 229.370013 106.245689 
C 219.19041 107.812331 209.430924 111.417484 200.677427 116.844728 
C 191.92393 122.271971 184.355159 129.410486 178.425474 137.831741 
C 172.49579 146.252996 168.326271 155.785037 166.167217 165.855646 
C 164.008163 175.926255 163.903659 186.329801 165.859981 196.441749 
C 167.816302 206.553697 171.793501 216.167572 177.552823 224.706242 
C 183.312145 233.244912 190.735992 240.534028 199.3787 246.136016 
C 197.682367 233.901919 200.418734 221.455639 207.090047 211.061206 
C 213.761359 200.666772 223.936992 192.99513 235.765956 189.441784 
C 247.59492 185.888438 260.313672 186.682751 271.608619 191.680234 
C 282.903566 196.677717 292.045634 205.55579 297.371844 216.699495 
C 301.602454 200.822846 302.902433 184.306953 301.207858 167.963928 
C 299.513283 151.620903 294.852393 135.72308 287.454369 121.052181 
" clip-path="url(#pc55b80fc65)" style="fill: #c5a0ff"/>
   </g>
   <g id="patch_5">
    <path d="M 246.996209 290.668116 
C 254.942778 291.231975 262.913301 289.954119 270.28533 286.934339 
C 277.65736 283.914559 284.233867 279.233566 289.501268 273.256913 
C 294.768669 267.28026 298.586184 260.167685 300.655689 252.474633 
C 302.725195 244.781582 302.99138 236.713665 301.433457 228.900933 
C 299.413391 231.497851 297.227998 233.961832 294.890877 236.277542 
C 292.553757 238.593253 290.069768 240.755877 287.454369 242.751958 
C 282.699562 252.18114 276.855904 261.020599 270.043101 269.089265 
C 263.230297 277.157931 255.495184 284.400333 246.996209 290.668116 
" clip-path="url(#pc55b80fc65)" style="fill: #ebe6ff"/>
   </g>
   <g id="patch_6">
    <path d="M 246.996209 290.668116 
C 255.495184 284.400333 263.230297 277.157931 270.043101 269.089265 
C 276.855904 261.020599 282.699562 252.18114 287.454369 242.751958 
C 274.913948 252.322847 259.716271 257.787058 243.952476 258.392737 
C 228.188681 258.998417 212.616534 254.716449 199.3787 246.136016 
C 201.008443 257.889856 206.630649 268.733461 215.297469 276.838709 
C 223.96429 284.943958 235.15968 289.82824 246.996209 290.668116 
" clip-path="url(#pc55b80fc65)" style="fill: #f1d5ff"/>
   </g>
   <g id="patch_7">
    <path d="M 297.371844 216.699495 
C 296.173169 221.197887 294.742858 225.631341 293.086633 229.98212 
C 291.430408 234.332899 289.55048 238.595195 287.454369 242.751958 
C 290.069768 240.755877 292.553757 238.593253 294.890877 236.277542 
C 297.227998 233.961832 299.413391 231.497851 301.433457 228.900933 
C 301.0131 226.792911 300.461867 224.713112 299.78296 222.673617 
C 299.104053 220.634121 298.298789 218.638884 297.371844 216.699495 
" clip-path="url(#pc55b80fc65)" style="fill: #ffffff"/>
   </g>
   <g id="patch_8">
    <path d="M 199.3787 246.136016 
C 212.616534 254.716449 228.188681 258.998417 243.952476 258.392737 
C 259.716271 257.787058 274.913948 252.322847 287.454369 242.751958 
C 289.55048 238.595195 291.430408 234.332899 293.086633 229.98212 
C 294.742858 225.631341 296.173169 221.197887 297.371844 216.699495 
C 292.045634 205.55579 282.903566 196.677717 271.608619 191.680234 
C 260.313672 186.682751 247.59492 185.888438 235.765956 189.441784 
C 223.936992 192.99513 213.761359 200.666772 207.090047 211.061206 
C 200.418734 221.455639 197.682367 233.901919 199.3787 246.136016 
" clip-path="url(#pc55b80fc65)" style="fill: #ceb7ff"/>
   </g>
   <g id="text_1">
    <!-- 196 -->
    <g transform="translate(100.37108 167.163204) scale(0.1 -0.1)">
     <defs>
      <path id="DejaVuSans-31" d="M 794 531 
L 1825 531 
L 1825 4091 
L 703 3866 
L 703 4441 
L 1819 4666 
L 2450 4666 
L 2450 531 
L 3481 531 
L 3481 0 
L 794 0 
L 794 531 
z
" transform="scale(0.015625)"/>
      <path id="DejaVuSans-39" d="M 703 97 
L 703 672 
Q 941 559 1184 500 
Q 1428 441 1663 441 
Q 2288 441 2617 861 
Q 2947 1281 2994 2138 
Q 2813 1869 2534 1725 
Q 2256 1581 1919 1581 
Q 1219 1581 811 2004 
Q 403 2428 403 3163 
Q 403 3881 828 4315 
Q 1253 4750 1959 4750 
Q 2769 4750 3195 4129 
Q 3622 3509 3622 2328 
Q 3622 1225 3098 567 
Q 2575 -91 1691 -91 
Q 1453 -91 1209 -44 
Q 966 3 703 97 
z
M 1959 2075 
Q 2384 2075 2632 2365 
Q 2881 2656 2881 3163 
Q 2881 3666 2632 3958 
Q 2384 4250 1959 4250 
Q 1534 4250 1286 3958 
Q 1038 3666 1038 3163 
Q 1038 2656 1286 2365 
Q 1534 2075 1959 2075 
z
" transform="scale(0.015625)"/>
      <path id="DejaVuSans-36" d="M 2113 2584 
Q 1688 2584 1439 2293 
Q 1191 2003 1191 1497 
Q 1191 994 1439 701 
Q 1688 409 2113 409 
Q 2538 409 2786 701 
Q 3034 994 3034 1497 
Q 3034 2003 2786 2293 
Q 2538 2584 2113 2584 
z
M 3366 4563 
L 3366 3988 
Q 3128 4100 2886 4159 
Q 2644 4219 2406 4219 
Q 1781 4219 1451 3797 
Q 1122 3375 1075 2522 
Q 1259 2794 1537 2939 
Q 1816 3084 2150 3084 
Q 2853 3084 3261 2657 
Q 3669 2231 3669 1497 
Q 3669 778 3244 343 
Q 2819 -91 2113 -91 
Q 1303 -91 875 529 
Q 447 1150 447 2328 
Q 447 3434 972 4092 
Q 1497 4750 2381 4750 
Q 2619 4750 2861 4703 
Q 3103 4656 3366 4563 
z
" transform="scale(0.015625)"/>
     </defs>
     <use xlink:href="#DejaVuSans-31"/>
     <use xlink:href="#DejaVuSans-39" transform="translate(63.623047 0)"/>
     <use xlink:href="#DejaVuSans-36" transform="translate(127.246094 0)"/>
    </g>
   </g>
   <g id="text_2">
    <!-- 6 -->
    <g transform="translate(307.601883 178.585704) scale(0.1 -0.1)">
     <use xlink:href="#DejaVuSans-36"/>
    </g>
   </g>
   <g id="text_3">
    <!-- 60 -->
    <g transform="translate(209.20434 165.395437) scale(0.1 -0.1)">
     <defs>
      <path id="DejaVuSans-30" d="M 2034 4250 
Q 1547 4250 1301 3770 
Q 1056 3291 1056 2328 
Q 1056 1369 1301 889 
Q 1547 409 2034 409 
Q 2525 409 2770 889 
Q 3016 1369 3016 2328 
Q 3016 3291 2770 3770 
Q 2525 4250 2034 4250 
z
M 2034 4750 
Q 2819 4750 3233 4129 
Q 3647 3509 3647 2328 
Q 3647 1150 3233 529 
Q 2819 -91 2034 -91 
Q 1250 -91 836 529 
Q 422 1150 422 2328 
Q 422 3509 836 4129 
Q 1250 4750 2034 4750 
z
" transform="scale(0.015625)"/>
     </defs>
     <use xlink:href="#DejaVuSans-36"/>
     <use xlink:href="#DejaVuSans-30" transform="translate(63.623047 0)"/>
    </g>
   </g>
   <g id="text_4">
    <!-- 5 -->
    <g transform="translate(283.308614 271.53797) scale(0.1 -0.1)">
     <defs>
      <path id="DejaVuSans-35" d="M 691 4666 
L 3169 4666 
L 3169 4134 
L 1269 4134 
L 1269 2991 
Q 1406 3038 1543 3061 
Q 1681 3084 1819 3084 
Q 2600 3084 3056 2656 
Q 3513 2228 3513 1497 
Q 3513 744 3044 326 
Q 2575 -91 1722 -91 
Q 1428 -91 1123 -41 
Q 819 9 494 109 
L 494 744 
Q 775 591 1075 516 
Q 1375 441 1709 441 
Q 2250 441 2565 725 
Q 2881 1009 2881 1497 
Q 2881 1984 2565 2268 
Q 2250 2553 1709 2553 
Q 1456 2553 1204 2497 
Q 953 2441 691 2322 
L 691 4666 
z
" transform="scale(0.015625)"/>
     </defs>
     <use xlink:href="#DejaVuSans-35"/>
    </g>
   </g>
   <g id="text_5">
    <!-- 10 -->
    <g transform="translate(228.819693 271.008609) scale(0.1 -0.1)">
     <use xlink:href="#DejaVuSans-31"/>
     <use xlink:href="#DejaVuSans-30" transform="translate(63.623047 0)"/>
    </g>
   </g>
   <g id="text_6">
    <!-- 1 -->
    <g transform="translate(292.894628 232.465234) scale(0.1 -0.1)">
     <use xlink:href="#DejaVuSans-31"/>
    </g>
   </g>
   <g id="text_7">
    <!-- 27 -->
    <g transform="translate(234.53321 213.990751) scale(0.1 -0.1)">
     <defs>
      <path id="DejaVuSans-32" d="M 1228 531 
L 3431 531 
L 3431 0 
L 469 0 
L 469 531 
Q 828 903 1448 1529 
Q 2069 2156 2228 2338 
Q 2531 2678 2651 2914 
Q 2772 3150 2772 3378 
Q 2772 3750 2511 3984 
Q 2250 4219 1831 4219 
Q 1534 4219 1204 4116 
Q 875 4013 500 3803 
L 500 4441 
Q 881 4594 1212 4672 
Q 1544 4750 1819 4750 
Q 2544 4750 2975 4387 
Q 3406 4025 3406 3419 
Q 3406 3131 3298 2873 
Q 3191 2616 2906 2266 
Q 2828 2175 2409 1742 
Q 1991 1309 1228 531 
z
" transform="scale(0.015625)"/>
      <path id="DejaVuSans-37" d="M 525 4666 
L 3525 4666 
L 3525 4397 
L 1831 0 
L 1172 0 
L 2766 4134 
L 525 4134 
L 525 4666 
z
" transform="scale(0.015625)"/>
     </defs>
     <use xlink:href="#DejaVuSans-32"/>
     <use xlink:href="#DejaVuSans-37" transform="translate(63.623047 0)"/>
    </g>
   </g>
   <g id="text_8">
    <!-- pLink -->
    <g transform="translate(67.019774 46.757479) scale(0.12 -0.12)">
     <defs>
      <path id="DejaVuSans-70" d="M 1159 525 
L 1159 -1331 
L 581 -1331 
L 581 3500 
L 1159 3500 
L 1159 2969 
Q 1341 3281 1617 3432 
Q 1894 3584 2278 3584 
Q 2916 3584 3314 3078 
Q 3713 2572 3713 1747 
Q 3713 922 3314 415 
Q 2916 -91 2278 -91 
Q 1894 -91 1617 61 
Q 1341 213 1159 525 
z
M 3116 1747 
Q 3116 2381 2855 2742 
Q 2594 3103 2138 3103 
Q 1681 3103 1420 2742 
Q 1159 2381 1159 1747 
Q 1159 1113 1420 752 
Q 1681 391 2138 391 
Q 2594 391 2855 752 
Q 3116 1113 3116 1747 
z
" transform="scale(0.015625)"/>
      <path id="DejaVuSans-4c" d="M 628 4666 
L 1259 4666 
L 1259 531 
L 3531 531 
L 3531 0 
L 628 0 
L 628 4666 
z
" transform="scale(0.015625)"/>
      <path id="DejaVuSans-69" d="M 603 3500 
L 1178 3500 
L 1178 0 
L 603 0 
L 603 3500 
z
M 603 4863 
L 1178 4863 
L 1178 4134 
L 603 4134 
L 603 4863 
z
" transform="scale(0.015625)"/>
      <path id="DejaVuSans-6e" d="M 3513 2113 
L 3513 0 
L 2938 0 
L 2938 2094 
Q 2938 2591 2744 2837 
Q 2550 3084 2163 3084 
Q 1697 3084 1428 2787 
Q 1159 2491 1159 1978 
L 1159 0 
L 581 0 
L 581 3500 
L 1159 3500 
L 1159 2956 
Q 1366 3272 1645 3428 
Q 1925 3584 2291 3584 
Q 2894 3584 3203 3211 
Q 3513 2838 3513 2113 
z
" transform="scale(0.015625)"/>
      <path id="DejaVuSans-6b" d="M 581 4863 
L 1159 4863 
L 1159 1991 
L 2875 3500 
L 3609 3500 
L 1753 1863 
L 3688 0 
L 2938 0 
L 1159 1709 
L 1159 0 
L 581 0 
L 581 4863 
z
" transform="scale(0.015625)"/>
     </defs>
     <use xlink:href="#DejaVuSans-70"/>
     <use xlink:href="#DejaVuSans-4c" transform="translate(63.476562 0)"/>
     <use xlink:href="#DejaVuSans-69" transform="translate(119.189453 0)"/>
     <use xlink:href="#DejaVuSans-6e" transform="translate(146.972656 0)"/>
     <use xlink:href="#DejaVuSans-6b" transform="translate(210.351562 0)"/>
    </g>
   </g>
   <g id="text_9">
    <!-- Scout -->
    <g transform="translate(279.287093 105.354962) scale(0.12 -0.12)">
     <defs>
      <path id="DejaVuSans-53" d="M 3425 4513 
L 3425 3897 
Q 3066 4069 2747 4153 
Q 2428 4238 2131 4238 
Q 1616 4238 1336 4038 
Q 1056 3838 1056 3469 
Q 1056 3159 1242 3001 
Q 1428 2844 1947 2747 
L 2328 2669 
Q 3034 2534 3370 2195 
Q 3706 1856 3706 1288 
Q 3706 609 3251 259 
Q 2797 -91 1919 -91 
Q 1588 -91 1214 -16 
Q 841 59 441 206 
L 441 856 
Q 825 641 1194 531 
Q 1563 422 1919 422 
Q 2459 422 2753 634 
Q 3047 847 3047 1241 
Q 3047 1584 2836 1778 
Q 2625 1972 2144 2069 
L 1759 2144 
Q 1053 2284 737 2584 
Q 422 2884 422 3419 
Q 422 4038 858 4394 
Q 1294 4750 2059 4750 
Q 2388 4750 2728 4690 
Q 3069 4631 3425 4513 
z
" transform="scale(0.015625)"/>
      <path id="DejaVuSans-63" d="M 3122 3366 
L 3122 2828 
Q 2878 2963 2633 3030 
Q 2388 3097 2138 3097 
Q 1578 3097 1268 2742 
Q 959 2388 959 1747 
Q 959 1106 1268 751 
Q 1578 397 2138 397 
Q 2388 397 2633 464 
Q 2878 531 3122 666 
L 3122 134 
Q 2881 22 2623 -34 
Q 2366 -91 2075 -91 
Q 1284 -91 818 406 
Q 353 903 353 1747 
Q 353 2603 823 3093 
Q 1294 3584 2113 3584 
Q 2378 3584 2631 3529 
Q 2884 3475 3122 3366 
z
" transform="scale(0.015625)"/>
      <path id="DejaVuSans-6f" d="M 1959 3097 
Q 1497 3097 1228 2736 
Q 959 2375 959 1747 
Q 959 1119 1226 758 
Q 1494 397 1959 397 
Q 2419 397 2687 759 
Q 2956 1122 2956 1747 
Q 2956 2369 2687 2733 
Q 2419 3097 1959 3097 
z
M 1959 3584 
Q 2709 3584 3137 3096 
Q 3566 2609 3566 1747 
Q 3566 888 3137 398 
Q 2709 -91 1959 -91 
Q 1206 -91 779 398 
Q 353 888 353 1747 
Q 353 2609 779 3096 
Q 1206 3584 1959 3584 
z
" transform="scale(0.015625)"/>
      <path id="DejaVuSans-75" d="M 544 1381 
L 544 3500 
L 1119 3500 
L 1119 1403 
Q 1119 906 1312 657 
Q 1506 409 1894 409 
Q 2359 409 2629 706 
Q 2900 1003 2900 1516 
L 2900 3500 
L 3475 3500 
L 3475 0 
L 2900 0 
L 2900 538 
Q 2691 219 2414 64 
Q 2138 -91 1772 -91 
Q 1169 -91 856 284 
Q 544 659 544 1381 
z
M 1991 3584 
L 1991 3584 
z
" transform="scale(0.015625)"/>
      <path id="DejaVuSans-74" d="M 1172 4494 
L 1172 3500 
L 2356 3500 
L 2356 3053 
L 1172 3053 
L 1172 1153 
Q 1172 725 1289 603 
Q 1406 481 1766 481 
L 2356 481 
L 2356 0 
L 1766 0 
Q 1100 0 847 248 
Q 594 497 594 1153 
L 594 3053 
L 172 3053 
L 172 3500 
L 594 3500 
L 594 4494 
L 1172 4494 
z
" transform="scale(0.015625)"/>
     </defs>
     <use xlink:href="#DejaVuSans-53"/>
     <use xlink:href="#DejaVuSans-63" transform="translate(63.476562 0)"/>
     <use xlink:href="#DejaVuSans-6f" transform="translate(118.457031 0)"/>
     <use xlink:href="#DejaVuSans-75" transform="translate(179.638672 0)"/>
     <use xlink:href="#DejaVuSans-74" transform="translate(243.017578 0)"/>
    </g>
   </g>
   <g id="text_10">
    <!-- XlinkX -->
    <g transform="translate(231.829955 305.093332) scale(0.12 -0.12)">
     <defs>
      <path id="DejaVuSans-58" d="M 403 4666 
L 1081 4666 
L 2241 2931 
L 3406 4666 
L 4084 4666 
L 2584 2425 
L 4184 0 
L 3506 0 
L 2194 1984 
L 872 0 
L 191 0 
L 1856 2491 
L 403 4666 
z
" transform="scale(0.015625)"/>
      <path id="DejaVuSans-6c" d="M 603 4863 
L 1178 4863 
L 1178 0 
L 603 0 
L 603 4863 
z
" transform="scale(0.015625)"/>
     </defs>
     <use xlink:href="#DejaVuSans-58"/>
     <use xlink:href="#DejaVuSans-6c" transform="translate(68.505859 0)"/>
     <use xlink:href="#DejaVuSans-69" transform="translate(96.289062 0)"/>
     <use xlink:href="#DejaVuSans-6e" transform="translate(124.072266 0)"/>
     <use xlink:href="#DejaVuSans-6b" transform="translate(187.451172 0)"/>
     <use xlink:href="#DejaVuSans-58" transform="translate(245.361328 0)"/>
    </g>
   </g>
   <g id="text_11">
    <!-- Overlap of Intersections for XLs of all Search Engines -->
    <g transform="translate(15.234375 16.318125) scale(0.12 -0.12)">
     <defs>
      <path id="DejaVuSans-4f" d="M 2522 4238 
Q 1834 4238 1429 3725 
Q 1025 3213 1025 2328 
Q 1025 1447 1429 934 
Q 1834 422 2522 422 
Q 3209 422 3611 934 
Q 4013 1447 4013 2328 
Q 4013 3213 3611 3725 
Q 3209 4238 2522 4238 
z
M 2522 4750 
Q 3503 4750 4090 4092 
Q 4678 3434 4678 2328 
Q 4678 1225 4090 567 
Q 3503 -91 2522 -91 
Q 1538 -91 948 565 
Q 359 1222 359 2328 
Q 359 3434 948 4092 
Q 1538 4750 2522 4750 
z
" transform="scale(0.015625)"/>
      <path id="DejaVuSans-76" d="M 191 3500 
L 800 3500 
L 1894 563 
L 2988 3500 
L 3597 3500 
L 2284 0 
L 1503 0 
L 191 3500 
z
" transform="scale(0.015625)"/>
      <path id="DejaVuSans-65" d="M 3597 1894 
L 3597 1613 
L 953 1613 
Q 991 1019 1311 708 
Q 1631 397 2203 397 
Q 2534 397 2845 478 
Q 3156 559 3463 722 
L 3463 178 
Q 3153 47 2828 -22 
Q 2503 -91 2169 -91 
Q 1331 -91 842 396 
Q 353 884 353 1716 
Q 353 2575 817 3079 
Q 1281 3584 2069 3584 
Q 2775 3584 3186 3129 
Q 3597 2675 3597 1894 
z
M 3022 2063 
Q 3016 2534 2758 2815 
Q 2500 3097 2075 3097 
Q 1594 3097 1305 2825 
Q 1016 2553 972 2059 
L 3022 2063 
z
" transform="scale(0.015625)"/>
      <path id="DejaVuSans-72" d="M 2631 2963 
Q 2534 3019 2420 3045 
Q 2306 3072 2169 3072 
Q 1681 3072 1420 2755 
Q 1159 2438 1159 1844 
L 1159 0 
L 581 0 
L 581 3500 
L 1159 3500 
L 1159 2956 
Q 1341 3275 1631 3429 
Q 1922 3584 2338 3584 
Q 2397 3584 2469 3576 
Q 2541 3569 2628 3553 
L 2631 2963 
z
" transform="scale(0.015625)"/>
      <path id="DejaVuSans-61" d="M 2194 1759 
Q 1497 1759 1228 1600 
Q 959 1441 959 1056 
Q 959 750 1161 570 
Q 1363 391 1709 391 
Q 2188 391 2477 730 
Q 2766 1069 2766 1631 
L 2766 1759 
L 2194 1759 
z
M 3341 1997 
L 3341 0 
L 2766 0 
L 2766 531 
Q 2569 213 2275 61 
Q 1981 -91 1556 -91 
Q 1019 -91 701 211 
Q 384 513 384 1019 
Q 384 1609 779 1909 
Q 1175 2209 1959 2209 
L 2766 2209 
L 2766 2266 
Q 2766 2663 2505 2880 
Q 2244 3097 1772 3097 
Q 1472 3097 1187 3025 
Q 903 2953 641 2809 
L 641 3341 
Q 956 3463 1253 3523 
Q 1550 3584 1831 3584 
Q 2591 3584 2966 3190 
Q 3341 2797 3341 1997 
z
" transform="scale(0.015625)"/>
      <path id="DejaVuSans-20" transform="scale(0.015625)"/>
      <path id="DejaVuSans-66" d="M 2375 4863 
L 2375 4384 
L 1825 4384 
Q 1516 4384 1395 4259 
Q 1275 4134 1275 3809 
L 1275 3500 
L 2222 3500 
L 2222 3053 
L 1275 3053 
L 1275 0 
L 697 0 
L 697 3053 
L 147 3053 
L 147 3500 
L 697 3500 
L 697 3744 
Q 697 4328 969 4595 
Q 1241 4863 1831 4863 
L 2375 4863 
z
" transform="scale(0.015625)"/>
      <path id="DejaVuSans-49" d="M 628 4666 
L 1259 4666 
L 1259 0 
L 628 0 
L 628 4666 
z
" transform="scale(0.015625)"/>
      <path id="DejaVuSans-73" d="M 2834 3397 
L 2834 2853 
Q 2591 2978 2328 3040 
Q 2066 3103 1784 3103 
Q 1356 3103 1142 2972 
Q 928 2841 928 2578 
Q 928 2378 1081 2264 
Q 1234 2150 1697 2047 
L 1894 2003 
Q 2506 1872 2764 1633 
Q 3022 1394 3022 966 
Q 3022 478 2636 193 
Q 2250 -91 1575 -91 
Q 1294 -91 989 -36 
Q 684 19 347 128 
L 347 722 
Q 666 556 975 473 
Q 1284 391 1588 391 
Q 1994 391 2212 530 
Q 2431 669 2431 922 
Q 2431 1156 2273 1281 
Q 2116 1406 1581 1522 
L 1381 1569 
Q 847 1681 609 1914 
Q 372 2147 372 2553 
Q 372 3047 722 3315 
Q 1072 3584 1716 3584 
Q 2034 3584 2315 3537 
Q 2597 3491 2834 3397 
z
" transform="scale(0.015625)"/>
      <path id="DejaVuSans-68" d="M 3513 2113 
L 3513 0 
L 2938 0 
L 2938 2094 
Q 2938 2591 2744 2837 
Q 2550 3084 2163 3084 
Q 1697 3084 1428 2787 
Q 1159 2491 1159 1978 
L 1159 0 
L 581 0 
L 581 4863 
L 1159 4863 
L 1159 2956 
Q 1366 3272 1645 3428 
Q 1925 3584 2291 3584 
Q 2894 3584 3203 3211 
Q 3513 2838 3513 2113 
z
" transform="scale(0.015625)"/>
      <path id="DejaVuSans-45" d="M 628 4666 
L 3578 4666 
L 3578 4134 
L 1259 4134 
L 1259 2753 
L 3481 2753 
L 3481 2222 
L 1259 2222 
L 1259 531 
L 3634 531 
L 3634 0 
L 628 0 
L 628 4666 
z
" transform="scale(0.015625)"/>
      <path id="DejaVuSans-67" d="M 2906 1791 
Q 2906 2416 2648 2759 
Q 2391 3103 1925 3103 
Q 1463 3103 1205 2759 
Q 947 2416 947 1791 
Q 947 1169 1205 825 
Q 1463 481 1925 481 
Q 2391 481 2648 825 
Q 2906 1169 2906 1791 
z
M 3481 434 
Q 3481 -459 3084 -895 
Q 2688 -1331 1869 -1331 
Q 1566 -1331 1297 -1286 
Q 1028 -1241 775 -1147 
L 775 -588 
Q 1028 -725 1275 -790 
Q 1522 -856 1778 -856 
Q 2344 -856 2625 -561 
Q 2906 -266 2906 331 
L 2906 616 
Q 2728 306 2450 153 
Q 2172 0 1784 0 
Q 1141 0 747 490 
Q 353 981 353 1791 
Q 353 2603 747 3093 
Q 1141 3584 1784 3584 
Q 2172 3584 2450 3431 
Q 2728 3278 2906 2969 
L 2906 3500 
L 3481 3500 
L 3481 434 
z
" transform="scale(0.015625)"/>
     </defs>
     <use xlink:href="#DejaVuSans-4f"/>
     <use xlink:href="#DejaVuSans-76" transform="translate(78.710938 0)"/>
     <use xlink:href="#DejaVuSans-65" transform="translate(137.890625 0)"/>
     <use xlink:href="#DejaVuSans-72" transform="translate(199.414062 0)"/>
     <use xlink:href="#DejaVuSans-6c" transform="translate(240.527344 0)"/>
     <use xlink:href="#DejaVuSans-61" transform="translate(268.310547 0)"/>
     <use xlink:href="#DejaVuSans-70" transform="translate(329.589844 0)"/>
     <use xlink:href="#DejaVuSans-20" transform="translate(393.066406 0)"/>
     <use xlink:href="#DejaVuSans-6f" transform="translate(424.853516 0)"/>
     <use xlink:href="#DejaVuSans-66" transform="translate(486.035156 0)"/>
     <use xlink:href="#DejaVuSans-20" transform="translate(521.240234 0)"/>
     <use xlink:href="#DejaVuSans-49" transform="translate(553.027344 0)"/>
     <use xlink:href="#DejaVuSans-6e" transform="translate(582.519531 0)"/>
     <use xlink:href="#DejaVuSans-74" transform="translate(645.898438 0)"/>
     <use xlink:href="#DejaVuSans-65" transform="translate(685.107422 0)"/>
     <use xlink:href="#DejaVuSans-72" transform="translate(746.630859 0)"/>
     <use xlink:href="#DejaVuSans-73" transform="translate(787.744141 0)"/>
     <use xlink:href="#DejaVuSans-65" transform="translate(839.84375 0)"/>
     <use xlink:href="#DejaVuSans-63" transform="translate(901.367188 0)"/>
     <use xlink:href="#DejaVuSans-74" transform="translate(956.347656 0)"/>
     <use xlink:href="#DejaVuSans-69" transform="translate(995.556641 0)"/>
     <use xlink:href="#DejaVuSans-6f" transform="translate(1023.339844 0)"/>
     <use xlink:href="#DejaVuSans-6e" transform="translate(1084.521484 0)"/>
     <use xlink:href="#DejaVuSans-73" transform="translate(1147.900391 0)"/>
     <use xlink:href="#DejaVuSans-20" transform="translate(1200 0)"/>
     <use xlink:href="#DejaVuSans-66" transform="translate(1231.787109 0)"/>
     <use xlink:href="#DejaVuSans-6f" transform="translate(1266.992188 0)"/>
     <use xlink:href="#DejaVuSans-72" transform="translate(1328.173828 0)"/>
     <use xlink:href="#DejaVuSans-20" transform="translate(1369.287109 0)"/>
     <use xlink:href="#DejaVuSans-58" transform="translate(1401.074219 0)"/>
     <use xlink:href="#DejaVuSans-4c" transform="translate(1469.580078 0)"/>
     <use xlink:href="#DejaVuSans-73" transform="translate(1525.292969 0)"/>
     <use xlink:href="#DejaVuSans-20" transform="translate(1577.392578 0)"/>
     <use xlink:href="#DejaVuSans-6f" transform="translate(1609.179688 0)"/>
     <use xlink:href="#DejaVuSans-66" transform="translate(1670.361328 0)"/>
     <use xlink:href="#DejaVuSans-20" transform="translate(1705.566406 0)"/>
     <use xlink:href="#DejaVuSans-61" transform="translate(1737.353516 0)"/>
     <use xlink:href="#DejaVuSans-6c" transform="translate(1798.632812 0)"/>
     <use xlink:href="#DejaVuSans-6c" transform="translate(1826.416016 0)"/>
     <use xlink:href="#DejaVuSans-20" transform="translate(1854.199219 0)"/>
     <use xlink:href="#DejaVuSans-53" transform="translate(1885.986328 0)"/>
     <use xlink:href="#DejaVuSans-65" transform="translate(1949.462891 0)"/>
     <use xlink:href="#DejaVuSans-61" transform="translate(2010.986328 0)"/>
     <use xlink:href="#DejaVuSans-72" transform="translate(2072.265625 0)"/>
     <use xlink:href="#DejaVuSans-63" transform="translate(2111.128906 0)"/>
     <use xlink:href="#DejaVuSans-68" transform="translate(2166.109375 0)"/>
     <use xlink:href="#DejaVuSans-20" transform="translate(2229.488281 0)"/>
     <use xlink:href="#DejaVuSans-45" transform="translate(2261.275391 0)"/>
     <use xlink:href="#DejaVuSans-6e" transform="translate(2324.458984 0)"/>
     <use xlink:href="#DejaVuSans-67" transform="translate(2387.837891 0)"/>
     <use xlink:href="#DejaVuSans-69" transform="translate(2451.314453 0)"/>
     <use xlink:href="#DejaVuSans-6e" transform="translate(2479.097656 0)"/>
     <use xlink:href="#DejaVuSans-65" transform="translate(2542.476562 0)"/>
     <use xlink:href="#DejaVuSans-73" transform="translate(2604 0)"/>
    </g>
   </g>
  </g>
 </g>
 <defs>
  <clipPath id="pc55b80fc65">
   <rect x="7.2" y="22.318125" width="334.8" height="319.167889"/>
  </clipPath>
 </defs>
</svg>
