<?xml version="1.0" encoding="utf-8" standalone="no"?>
<!DOCTYPE svg PUBLIC "-//W3C//DTD SVG 1.1//EN"
  "http://www.w3.org/Graphics/SVG/1.1/DTD/svg11.dtd">
<svg xmlns:xlink="http://www.w3.org/1999/xlink" width="349.2pt" height="333.567889pt" viewBox="0 0 349.2 333.567889" xmlns="http://www.w3.org/2000/svg" version="1.1">
 <metadata>
  <rdf:RDF xmlns:dc="http://purl.org/dc/elements/1.1/" xmlns:cc="http://creativecommons.org/ns#" xmlns:rdf="http://www.w3.org/1999/02/22-rdf-syntax-ns#">
   <cc:Work>
    <dc:type rdf:resource="http://purl.org/dc/dcmitype/StillImage"/>
    <dc:date>2025-11-19T13:53:28.015960</dc:date>
    <dc:format>image/svg+xml</dc:format>
    <dc:creator>
     <cc:Agent>
      <dc:title>Matplotlib v3.10.7, https://matplotlib.org/</dc:title>
     </cc:Agent>
    </dc:creator>
   </cc:Work>
  </rdf:RDF>
 </metadata>
 <defs>
  <style type="text/css">*{stroke-linejoin: round; stroke-linecap: butt}</style>
 </defs>
 <g id="figure_1">
  <g id="patch_1">
   <path d="M 0 333.567889 
L 349.2 333.567889 
L 349.2 0 
L 0 0 
L 0 333.567889 
z
" style="fill: none"/>
  </g>
  <g id="axes_1">
   <g id="patch_2">
    <path d="M 287.454369 105.934056 
C 281.255015 93.640217 273.213173 82.36564 263.607706 72.501286 
C 254.002239 62.636933 242.945472 54.298156 230.820813 47.774113 
C 218.696155 41.250071 205.64539 36.617055 192.121071 34.035722 
C 178.596753 31.454389 164.757033 30.954925 151.081824 32.554649 
C 137.406614 34.154372 124.055832 37.834577 111.492433 43.467647 
C 98.929034 49.100717 87.299934 56.620779 77.008388 65.767065 
C 66.716842 74.913351 57.883198 85.578905 50.813775 97.393885 
C 43.744353 109.208864 38.521821 122.035105 35.327278 135.427841 
C 32.132734 148.820576 31.003537 162.623192 31.978841 176.357065 
C 32.954146 190.090937 36.022547 203.595463 41.077644 216.402354 
C 46.132742 229.209245 53.115421 241.168739 61.783548 251.866124 
C 70.451676 262.563509 80.703887 271.87369 92.184672 279.473824 
C 103.665457 287.073958 116.240561 292.87517 129.473925 296.676295 
C 142.707289 300.47742 156.444163 302.234008 170.208202 301.885147 
C 183.972241 301.536285 197.602489 299.086054 210.626299 294.619418 
C 223.650109 290.152782 235.915182 283.721974 246.996209 275.549991 
C 235.15968 274.710115 223.96429 269.825833 215.297469 261.720584 
C 206.630649 253.615336 201.008443 242.771731 199.3787 231.017891 
C 190.735992 225.415903 183.312145 218.126787 177.552823 209.588117 
C 171.793501 201.049447 167.816302 191.435572 165.859981 181.323624 
C 163.903659 171.211676 164.008163 160.80813 166.167217 150.737521 
C 168.326271 140.666912 172.49579 131.134871 178.425474 122.713616 
C 184.355159 114.292361 191.92393 107.153846 200.677427 101.726603 
C 209.430924 96.299359 219.19041 92.694206 229.370013 91.127564 
C 239.549616 89.560921 249.941479 90.06478 259.921769 92.608891 
C 269.902058 95.153003 279.266987 99.685419 287.454369 105.934056 
" clip-path="url(#p947267d362)" style="fill: #6d4bff"/>
   </g>
   <g id="patch_3">
    <path d="M 287.454369 105.934056 
C 294.852393 120.604955 299.513283 136.502778 301.207858 152.845803 
C 302.902433 169.188828 301.602454 185.704721 297.371844 201.58137 
C 298.298789 203.520759 299.104053 205.515996 299.78296 207.555492 
C 300.461867 209.594987 301.0131 211.674786 301.433457 213.782808 
C 307.641683 205.801753 312.207463 196.669128 314.86646 186.913666 
C 317.525458 177.158203 318.225349 166.971872 316.925615 156.94441 
C 315.62588 146.916947 312.352095 137.245674 307.293796 128.490509 
C 302.235497 119.735343 295.492221 112.06857 287.454369 105.934056 
" clip-path="url(#p947267d362)" style="fill: #ac99ff"/>
   </g>
   <g id="patch_4">
    <path d="M 287.454369 105.934056 
C 279.266987 99.685419 269.902058 95.153003 259.921769 92.608891 
C 249.941479 90.06478 239.549616 89.560921 229.370013 91.127564 
C 219.19041 92.694206 209.430924 96.299359 200.677427 101.726603 
C 191.92393 107.153846 184.355159 114.292361 178.425474 122.713616 
C 172.49579 131.134871 168.326271 140.666912 166.167217 150.737521 
C 164.008163 160.80813 163.903659 171.211676 165.859981 181.323624 
C 167.816302 191.435572 171.793501 201.049447 177.552823 209.588117 
C 183.312145 218.126787 190.735992 225.415903 199.3787 231.017891 
C 197.682367 218.783794 200.418734 206.337514 207.090047 195.943081 
C 213.761359 185.548647 223.936992 177.877005 235.765956 174.323659 
C 247.59492 170.770313 260.313672 171.564626 271.608619 176.562109 
C 282.903566 181.559592 292.045634 190.437665 297.371844 201.58137 
C 301.602454 185.704721 302.902433 169.188828 301.207858 152.845803 
C 299.513283 136.502778 294.852393 120.604955 287.454369 105.934056 
" clip-path="url(#p947267d362)" style="fill: #c5a0ff"/>
   </g>
   <g id="patch_5">
    <path d="M 246.996209 275.549991 
C 254.942778 276.11385 262.913301 274.835994 270.28533 271.816214 
C 277.65736 268.796434 284.233867 264.115441 289.501268 258.138788 
C 294.768669 252.162135 298.586184 245.04956 300.655689 237.356508 
C 302.725195 229.663457 302.99138 221.59554 301.433457 213.782808 
C 299.413391 216.379726 297.227998 218.843707 294.890877 221.159417 
C 292.553757 223.475128 290.069768 225.637752 287.454369 227.633833 
C 282.699562 237.063015 276.855904 245.902474 270.043101 253.97114 
C 263.230297 262.039806 255.495184 269.282208 246.996209 275.549991 
" clip-path="url(#p947267d362)" style="fill: #ebe6ff"/>
   </g>
   <g id="patch_6">
    <path d="M 246.996209 275.549991 
C 255.495184 269.282208 263.230297 262.039806 270.043101 253.97114 
C 276.855904 245.902474 282.699562 237.063015 287.454369 227.633833 
C 274.913948 237.204722 259.716271 242.668933 243.952476 243.274612 
C 228.188681 243.880292 212.616534 239.598324 199.3787 231.017891 
C 201.008443 242.771731 206.630649 253.615336 215.297469 261.720584 
C 223.96429 269.825833 235.15968 274.710115 246.996209 275.549991 
" clip-path="url(#p947267d362)" style="fill: #f1d5ff"/>
   </g>
   <g id="patch_7">
    <path d="M 297.371844 201.58137 
C 296.173169 206.079762 294.742858 210.513216 293.086633 214.863995 
C 291.430408 219.214774 289.55048 223.47707 287.454369 227.633833 
C 290.069768 225.637752 292.553757 223.475128 294.890877 221.159417 
C 297.227998 218.843707 299.413391 216.379726 301.433457 213.782808 
C 301.0131 211.674786 300.461867 209.594987 299.78296 207.555492 
C 299.104053 205.515996 298.298789 203.520759 297.371844 201.58137 
" clip-path="url(#p947267d362)" style="fill: #ffffff"/>
   </g>
   <g id="patch_8">
    <path d="M 199.3787 231.017891 
C 212.616534 239.598324 228.188681 243.880292 243.952476 243.274612 
C 259.716271 242.668933 274.913948 237.204722 287.454369 227.633833 
C 289.55048 223.47707 291.430408 219.214774 293.086633 214.863995 
C 294.742858 210.513216 296.173169 206.079762 297.371844 201.58137 
C 292.045634 190.437665 282.903566 181.559592 271.608619 176.562109 
C 260.313672 171.564626 247.59492 170.770313 235.765956 174.323659 
C 223.936992 177.877005 213.761359 185.548647 207.090047 195.943081 
C 200.418734 206.337514 197.682367 218.783794 199.3787 231.017891 
" clip-path="url(#p947267d362)" style="fill: #ceb7ff"/>
   </g>
   <g id="text_1">
    <!-- 196 -->
    <g transform="translate(100.37108 152.045079) scale(0.1 -0.1)">
     <defs>
      <path id="DejaVuSans-31" d="M 794 531 
L 1825 531 
L 1825 4091 
L 703 3866 
L 703 4441 
L 1819 4666 
L 2450 4666 
L 2450 531 
L 3481 531 
L 3481 0 
L 794 0 
L 794 531 
z
" transform="scale(0.015625)"/>
      <path id="DejaVuSans-39" d="M 703 97 
L 703 672 
Q 941 559 1184 500 
Q 1428 441 1663 441 
Q 2288 441 2617 861 
Q 2947 1281 2994 2138 
Q 2813 1869 2534 1725 
Q 2256 1581 1919 1581 
Q 1219 1581 811 2004 
Q 403 2428 403 3163 
Q 403 3881 828 4315 
Q 1253 4750 1959 4750 
Q 2769 4750 3195 4129 
Q 3622 3509 3622 2328 
Q 3622 1225 3098 567 
Q 2575 -91 1691 -91 
Q 1453 -91 1209 -44 
Q 966 3 703 97 
z
M 1959 2075 
Q 2384 2075 2632 2365 
Q 2881 2656 2881 3163 
Q 2881 3666 2632 3958 
Q 2384 4250 1959 4250 
Q 1534 4250 1286 3958 
Q 1038 3666 1038 3163 
Q 1038 2656 1286 2365 
Q 1534 2075 1959 2075 
z
" transform="scale(0.015625)"/>
      <path id="DejaVuSans-36" d="M 2113 2584 
Q 1688 2584 1439 2293 
Q 1191 2003 1191 1497 
Q 1191 994 1439 701 
Q 1688 409 2113 409 
Q 2538 409 2786 701 
Q 3034 994 3034 1497 
Q 3034 2003 2786 2293 
Q 2538 2584 2113 2584 
z
M 3366 4563 
L 3366 3988 
Q 3128 4100 2886 4159 
Q 2644 4219 2406 4219 
Q 1781 4219 1451 3797 
Q 1122 3375 1075 2522 
Q 1259 2794 1537 2939 
Q 1816 3084 2150 3084 
Q 2853 3084 3261 2657 
Q 3669 2231 3669 1497 
Q 3669 778 3244 343 
Q 2819 -91 2113 -91 
Q 1303 -91 875 529 
Q 447 1150 447 2328 
Q 447 3434 972 4092 
Q 1497 4750 2381 4750 
Q 2619 4750 2861 4703 
Q 3103 4656 3366 4563 
z
" transform="scale(0.015625)"/>
     </defs>
     <use xlink:href="#DejaVuSans-31"/>
     <use xlink:href="#DejaVuSans-39" transform="translate(63.623047 0)"/>
     <use xlink:href="#DejaVuSans-36" transform="translate(127.246094 0)"/>
    </g>
   </g>
   <g id="text_2">
    <!-- 6 -->
    <g transform="translate(307.601883 163.467579) scale(0.1 -0.1)">
     <use xlink:href="#DejaVuSans-36"/>
    </g>
   </g>
   <g id="text_3">
    <!-- 60 -->
    <g transform="translate(209.20434 150.277312) scale(0.1 -0.1)">
     <defs>
      <path id="DejaVuSans-30" d="M 2034 4250 
Q 1547 4250 1301 3770 
Q 1056 3291 1056 2328 
Q 1056 1369 1301 889 
Q 1547 409 2034 409 
Q 2525 409 2770 889 
Q 3016 1369 3016 2328 
Q 3016 3291 2770 3770 
Q 2525 4250 2034 4250 
z
M 2034 4750 
Q 2819 4750 3233 4129 
Q 3647 3509 3647 2328 
Q 3647 1150 3233 529 
Q 2819 -91 2034 -91 
Q 1250 -91 836 529 
Q 422 1150 422 2328 
Q 422 3509 836 4129 
Q 1250 4750 2034 4750 
z
" transform="scale(0.015625)"/>
     </defs>
     <use xlink:href="#DejaVuSans-36"/>
     <use xlink:href="#DejaVuSans-30" transform="translate(63.623047 0)"/>
    </g>
   </g>
   <g id="text_4">
    <!-- 5 -->
    <g transform="translate(283.308614 256.419845) scale(0.1 -0.1)">
     <defs>
      <path id="DejaVuSans-35" d="M 691 4666 
L 3169 4666 
L 3169 4134 
L 1269 4134 
L 1269 2991 
Q 1406 3038 1543 3061 
Q 1681 3084 1819 3084 
Q 2600 3084 3056 2656 
Q 3513 2228 3513 1497 
Q 3513 744 3044 326 
Q 2575 -91 1722 -91 
Q 1428 -91 1123 -41 
Q 819 9 494 109 
L 494 744 
Q 775 591 1075 516 
Q 1375 441 1709 441 
Q 2250 441 2565 725 
Q 2881 1009 2881 1497 
Q 2881 1984 2565 2268 
Q 2250 2553 1709 2553 
Q 1456 2553 1204 2497 
Q 953 2441 691 2322 
L 691 4666 
z
" transform="scale(0.015625)"/>
     </defs>
     <use xlink:href="#DejaVuSans-35"/>
    </g>
   </g>
   <g id="text_5">
    <!-- 10 -->
    <g transform="translate(228.819693 255.890484) scale(0.1 -0.1)">
     <use xlink:href="#DejaVuSans-31"/>
     <use xlink:href="#DejaVuSans-30" transform="translate(63.623047 0)"/>
    </g>
   </g>
   <g id="text_6">
    <!-- 1 -->
    <g transform="translate(292.894628 217.347109) scale(0.1 -0.1)">
     <use xlink:href="#DejaVuSans-31"/>
    </g>
   </g>
   <g id="text_7">
    <!-- 27 -->
    <g transform="translate(234.53321 198.872626) scale(0.1 -0.1)">
     <defs>
      <path id="DejaVuSans-32" d="M 1228 531 
L 3431 531 
L 3431 0 
L 469 0 
L 469 531 
Q 828 903 1448 1529 
Q 2069 2156 2228 2338 
Q 2531 2678 2651 2914 
Q 2772 3150 2772 3378 
Q 2772 3750 2511 3984 
Q 2250 4219 1831 4219 
Q 1534 4219 1204 4116 
Q 875 4013 500 3803 
L 500 4441 
Q 881 4594 1212 4672 
Q 1544 4750 1819 4750 
Q 2544 4750 2975 4387 
Q 3406 4025 3406 3419 
Q 3406 3131 3298 2873 
Q 3191 2616 2906 2266 
Q 2828 2175 2409 1742 
Q 1991 1309 1228 531 
z
" transform="scale(0.015625)"/>
      <path id="DejaVuSans-37" d="M 525 4666 
L 3525 4666 
L 3525 4397 
L 1831 0 
L 1172 0 
L 2766 4134 
L 525 4134 
L 525 4666 
z
" transform="scale(0.015625)"/>
     </defs>
     <use xlink:href="#DejaVuSans-32"/>
     <use xlink:href="#DejaVuSans-37" transform="translate(63.623047 0)"/>
    </g>
   </g>
   <g id="text_8">
    <!-- pLink -->
    <g transform="translate(67.019774 31.639354) scale(0.12 -0.12)">
     <defs>
      <path id="DejaVuSans-70" d="M 1159 525 
L 1159 -1331 
L 581 -1331 
L 581 3500 
L 1159 3500 
L 1159 2969 
Q 1341 3281 1617 3432 
Q 1894 3584 2278 3584 
Q 2916 3584 3314 3078 
Q 3713 2572 3713 1747 
Q 3713 922 3314 415 
Q 2916 -91 2278 -91 
Q 1894 -91 1617 61 
Q 1341 213 1159 525 
z
M 3116 1747 
Q 3116 2381 2855 2742 
Q 2594 3103 2138 3103 
Q 1681 3103 1420 2742 
Q 1159 2381 1159 1747 
Q 1159 1113 1420 752 
Q 1681 391 2138 391 
Q 2594 391 2855 752 
Q 3116 1113 3116 1747 
z
" transform="scale(0.015625)"/>
      <path id="DejaVuSans-4c" d="M 628 4666 
L 1259 4666 
L 1259 531 
L 3531 531 
L 3531 0 
L 628 0 
L 628 4666 
z
" transform="scale(0.015625)"/>
      <path id="DejaVuSans-69" d="M 603 3500 
L 1178 3500 
L 1178 0 
L 603 0 
L 603 3500 
z
M 603 4863 
L 1178 4863 
L 1178 4134 
L 603 4134 
L 603 4863 
z
" transform="scale(0.015625)"/>
      <path id="DejaVuSans-6e" d="M 3513 2113 
L 3513 0 
L 2938 0 
L 2938 2094 
Q 2938 2591 2744 2837 
Q 2550 3084 2163 3084 
Q 1697 3084 1428 2787 
Q 1159 2491 1159 1978 
L 1159 0 
L 581 0 
L 581 3500 
L 1159 3500 
L 1159 2956 
Q 1366 3272 1645 3428 
Q 1925 3584 2291 3584 
Q 2894 3584 3203 3211 
Q 3513 2838 3513 2113 
z
" transform="scale(0.015625)"/>
      <path id="DejaVuSans-6b" d="M 581 4863 
L 1159 4863 
L 1159 1991 
L 2875 3500 
L 3609 3500 
L 1753 1863 
L 3688 0 
L 2938 0 
L 1159 1709 
L 1159 0 
L 581 0 
L 581 4863 
z
" transform="scale(0.015625)"/>
     </defs>
     <use xlink:href="#DejaVuSans-70"/>
     <use xlink:href="#DejaVuSans-4c" transform="translate(63.476562 0)"/>
     <use xlink:href="#DejaVuSans-69" transform="translate(119.189453 0)"/>
     <use xlink:href="#DejaVuSans-6e" transform="translate(146.972656 0)"/>
     <use xlink:href="#DejaVuSans-6b" transform="translate(210.351562 0)"/>
    </g>
   </g>
   <g id="text_9">
    <!-- Scout -->
    <g transform="translate(279.287093 90.236837) scale(0.12 -0.12)">
     <defs>
      <path id="DejaVuSans-53" d="M 3425 4513 
L 3425 3897 
Q 3066 4069 2747 4153 
Q 2428 4238 2131 4238 
Q 1616 4238 1336 4038 
Q 1056 3838 1056 3469 
Q 1056 3159 1242 3001 
Q 1428 2844 1947 2747 
L 2328 2669 
Q 3034 2534 3370 2195 
Q 3706 1856 3706 1288 
Q 3706 609 3251 259 
Q 2797 -91 1919 -91 
Q 1588 -91 1214 -16 
Q 841 59 441 206 
L 441 856 
Q 825 641 1194 531 
Q 1563 422 1919 422 
Q 2459 422 2753 634 
Q 3047 847 3047 1241 
Q 3047 1584 2836 1778 
Q 2625 1972 2144 2069 
L 1759 2144 
Q 1053 2284 737 2584 
Q 422 2884 422 3419 
Q 422 4038 858 4394 
Q 1294 4750 2059 4750 
Q 2388 4750 2728 4690 
Q 3069 4631 3425 4513 
z
" transform="scale(0.015625)"/>
      <path id="DejaVuSans-63" d="M 3122 3366 
L 3122 2828 
Q 2878 2963 2633 3030 
Q 2388 3097 2138 3097 
Q 1578 3097 1268 2742 
Q 959 2388 959 1747 
Q 959 1106 1268 751 
Q 1578 397 2138 397 
Q 2388 397 2633 464 
Q 2878 531 3122 666 
L 3122 134 
Q 2881 22 2623 -34 
Q 2366 -91 2075 -91 
Q 1284 -91 818 406 
Q 353 903 353 1747 
Q 353 2603 823 3093 
Q 1294 3584 2113 3584 
Q 2378 3584 2631 3529 
Q 2884 3475 3122 3366 
z
" transform="scale(0.015625)"/>
      <path id="DejaVuSans-6f" d="M 1959 3097 
Q 1497 3097 1228 2736 
Q 959 2375 959 1747 
Q 959 1119 1226 758 
Q 1494 397 1959 397 
Q 2419 397 2687 759 
Q 2956 1122 2956 1747 
Q 2956 2369 2687 2733 
Q 2419 3097 1959 3097 
z
M 1959 3584 
Q 2709 3584 3137 3096 
Q 3566 2609 3566 1747 
Q 3566 888 3137 398 
Q 2709 -91 1959 -91 
Q 1206 -91 779 398 
Q 353 888 353 1747 
Q 353 2609 779 3096 
Q 1206 3584 1959 3584 
z
" transform="scale(0.015625)"/>
      <path id="DejaVuSans-75" d="M 544 1381 
L 544 3500 
L 1119 3500 
L 1119 1403 
Q 1119 906 1312 657 
Q 1506 409 1894 409 
Q 2359 409 2629 706 
Q 2900 1003 2900 1516 
L 2900 3500 
L 3475 3500 
L 3475 0 
L 2900 0 
L 2900 538 
Q 2691 219 2414 64 
Q 2138 -91 1772 -91 
Q 1169 -91 856 284 
Q 544 659 544 1381 
z
M 1991 3584 
L 1991 3584 
z
" transform="scale(0.015625)"/>
      <path id="DejaVuSans-74" d="M 1172 4494 
L 1172 3500 
L 2356 3500 
L 2356 3053 
L 1172 3053 
L 1172 1153 
Q 1172 725 1289 603 
Q 1406 481 1766 481 
L 2356 481 
L 2356 0 
L 1766 0 
Q 1100 0 847 248 
Q 594 497 594 1153 
L 594 3053 
L 172 3053 
L 172 3500 
L 594 3500 
L 594 4494 
L 1172 4494 
z
" transform="scale(0.015625)"/>
     </defs>
     <use xlink:href="#DejaVuSans-53"/>
     <use xlink:href="#DejaVuSans-63" transform="translate(63.476562 0)"/>
     <use xlink:href="#DejaVuSans-6f" transform="translate(118.457031 0)"/>
     <use xlink:href="#DejaVuSans-75" transform="translate(179.638672 0)"/>
     <use xlink:href="#DejaVuSans-74" transform="translate(243.017578 0)"/>
    </g>
   </g>
   <g id="text_10">
    <!-- XlinkX -->
    <g transform="translate(231.829955 289.975207) scale(0.12 -0.12)">
     <defs>
      <path id="DejaVuSans-58" d="M 403 4666 
L 1081 4666 
L 2241 2931 
L 3406 4666 
L 4084 4666 
L 2584 2425 
L 4184 0 
L 3506 0 
L 2194 1984 
L 872 0 
L 191 0 
L 1856 2491 
L 403 4666 
z
" transform="scale(0.015625)"/>
      <path id="DejaVuSans-6c" d="M 603 4863 
L 1178 4863 
L 1178 0 
L 603 0 
L 603 4863 
z
" transform="scale(0.015625)"/>
     </defs>
     <use xlink:href="#DejaVuSans-58"/>
     <use xlink:href="#DejaVuSans-6c" transform="translate(68.505859 0)"/>
     <use xlink:href="#DejaVuSans-69" transform="translate(96.289062 0)"/>
     <use xlink:href="#DejaVuSans-6e" transform="translate(124.072266 0)"/>
     <use xlink:href="#DejaVuSans-6b" transform="translate(187.451172 0)"/>
     <use xlink:href="#DejaVuSans-58" transform="translate(245.361328 0)"/>
    </g>
   </g>
  </g>
 </g>
 <defs>
  <clipPath id="p947267d362">
   <rect x="7.2" y="7.2" width="334.8" height="319.167889"/>
  </clipPath>
 </defs>
</svg>
