<?xml version="1.0" encoding="utf-8" standalone="no"?>
<!DOCTYPE svg PUBLIC "-//W3C//DTD SVG 1.1//EN"
  "http://www.w3.org/Graphics/SVG/1.1/DTD/svg11.dtd">
<svg xmlns:xlink="http://www.w3.org/1999/xlink" width="349.2pt" height="342.542248pt" viewBox="0 0 349.2 342.542248" xmlns="http://www.w3.org/2000/svg" version="1.1">
 <metadata>
  <rdf:RDF xmlns:dc="http://purl.org/dc/elements/1.1/" xmlns:cc="http://creativecommons.org/ns#" xmlns:rdf="http://www.w3.org/1999/02/22-rdf-syntax-ns#">
   <cc:Work>
    <dc:type rdf:resource="http://purl.org/dc/dcmitype/StillImage"/>
    <dc:date>2025-11-19T13:53:21.650339</dc:date>
    <dc:format>image/svg+xml</dc:format>
    <dc:creator>
     <cc:Agent>
      <dc:title>Matplotlib v3.10.7, https://matplotlib.org/</dc:title>
     </cc:Agent>
    </dc:creator>
   </cc:Work>
  </rdf:RDF>
 </metadata>
 <defs>
  <style type="text/css">*{stroke-linejoin: round; stroke-linecap: butt}</style>
 </defs>
 <g id="figure_1">
  <g id="patch_1">
   <path d="M 0 342.542248 
L 349.2 342.542248 
L 349.2 0 
L 0 0 
L 0 342.542248 
z
" style="fill: none"/>
  </g>
  <g id="axes_1">
   <g id="patch_2">
    <path d="M 179.568136 34.443637 
C 153.729975 29.237172 126.890604 32.456437 103.016635 43.625655 
C 79.142665 54.794872 59.471157 73.335295 46.909378 96.50682 
C 34.347599 119.678344 29.546454 146.280309 33.215507 172.381188 
C 36.88456 198.482067 48.833694 222.729411 67.296939 241.539686 
C 58.742176 222.909538 55.171265 202.372945 56.935213 181.948576 
C 58.699161 161.524206 65.738215 141.903942 77.360461 125.016379 
C 83.396949 101.438562 96.363297 80.202287 114.578593 64.060551 
C 132.793889 47.918815 155.435461 37.600639 179.568136 34.443637 
" clip-path="url(#p75435bf05b)" style="fill: #6d4bff"/>
   </g>
   <g id="patch_3">
    <path d="M 179.568136 34.443637 
C 203.271762 39.219986 225.05308 50.869881 242.184316 67.93435 
C 259.315553 84.99882 271.050414 106.734479 275.919289 130.419273 
C 285.829666 146.643016 291.687963 165.017692 292.996963 183.983765 
C 294.305963 202.949838 291.027553 221.955111 283.439986 239.386526 
C 300.852457 221.164286 312.187683 197.97944 315.874098 173.046439 
C 319.560512 148.113437 315.419494 122.640385 304.025172 100.158979 
C 292.63085 77.677572 274.535326 59.277126 252.247441 47.508761 
C 229.959557 35.740395 204.559252 31.174334 179.568136 34.443637 
" clip-path="url(#p75435bf05b)" style="fill: #ac99ff"/>
   </g>
   <g id="patch_4">
    <path d="M 179.568136 34.443637 
C 155.435461 37.600639 132.793889 47.918815 114.578593 64.060551 
C 96.363297 80.202287 83.396949 101.438562 77.360461 125.016379 
C 88.550713 108.756521 103.631633 95.550392 121.2261 86.603915 
C 138.820568 77.657439 158.37622 73.251482 178.107325 73.788376 
C 197.838429 74.32527 217.125545 79.78816 234.20746 89.6782 
C 251.289376 99.568239 265.62982 113.57494 275.919289 130.419273 
C 271.050414 106.734479 259.315553 84.99882 242.184316 67.93435 
C 225.05308 50.869881 203.271762 39.219986 179.568136 34.443637 
" clip-path="url(#p75435bf05b)" style="fill: #c5a0ff"/>
   </g>
   <g id="patch_5">
    <path d="M 67.296939 241.539686 
C 76.833235 262.307367 92.181661 279.876362 111.4804 292.115488 
C 130.779139 304.354615 153.214972 310.748137 176.066356 310.520497 
C 198.917739 310.292858 221.221752 303.45365 240.272839 290.832492 
C 259.323926 278.211335 274.319306 260.340064 283.439986 239.386526 
C 270.220617 253.220664 253.925769 263.747383 235.880233 270.110849 
C 217.834696 276.474315 198.541134 278.497272 179.568136 276.015251 
C 159.464783 280.066136 138.664582 279.034706 119.060612 273.014837 
C 99.456642 266.994967 81.662247 256.174999 67.296939 241.539686 
" clip-path="url(#p75435bf05b)" style="fill: #ebe6ff"/>
   </g>
   <g id="patch_6">
    <path d="M 67.296939 241.539686 
C 81.662247 256.174999 99.456642 266.994967 119.060612 273.014837 
C 138.664582 279.034706 159.464783 280.066136 179.568136 276.015251 
C 162.480653 273.779891 146.060432 267.943735 131.395168 258.893379 
C 116.729905 249.843023 104.150726 237.782813 94.490892 223.511635 
C 84.831059 209.240457 78.30868 193.080539 75.355807 176.102334 
C 72.402935 159.124128 73.08624 141.710987 77.360461 125.016379 
C 65.738215 141.903942 58.699161 161.524206 56.935213 181.948576 
C 55.171265 202.372945 58.742176 222.909538 67.296939 241.539686 
" clip-path="url(#p75435bf05b)" style="fill: #f1d5ff"/>
   </g>
   <g id="patch_7">
    <path d="M 275.919289 130.419273 
C 279.185482 146.30777 279.282238 162.685973 276.203993 178.611951 
C 273.125749 194.537928 266.932667 209.700403 257.980923 223.227362 
C 249.029178 236.75432 237.493732 248.381376 224.038006 257.43984 
C 210.58228 266.498304 195.469266 272.811127 179.568136 276.015251 
C 198.541134 278.497272 217.834696 276.474315 235.880233 270.110849 
C 253.925769 263.747383 270.220617 253.220664 283.439986 239.386526 
C 291.027553 221.955111 294.305963 202.949838 292.996963 183.983765 
C 291.687963 165.017692 285.829666 146.643016 275.919289 130.419273 
" clip-path="url(#p75435bf05b)" style="fill: #ffffff"/>
   </g>
   <g id="patch_8">
    <path d="M 77.360461 125.016379 
C 73.08624 141.710987 72.402935 159.124128 75.355807 176.102334 
C 78.30868 193.080539 84.831059 209.240457 94.490892 223.511635 
C 104.150726 237.782813 116.729905 249.843023 131.395168 258.893379 
C 146.060432 267.943735 162.480653 273.779891 179.568136 276.015251 
C 195.469266 272.811127 210.58228 266.498304 224.038006 257.43984 
C 237.493732 248.381376 249.029178 236.75432 257.980923 223.227362 
C 266.932667 209.700403 273.125749 194.537928 276.203993 178.611951 
C 279.282238 162.685973 279.185482 146.30777 275.919289 130.419273 
C 265.62982 113.57494 251.289376 99.568239 234.20746 89.6782 
C 217.125545 79.78816 197.838429 74.32527 178.107325 73.788376 
C 158.37622 73.251482 138.820568 77.657439 121.2261 86.603915 
C 103.631633 95.550392 88.550713 108.756521 77.360461 125.016379 
" clip-path="url(#p75435bf05b)" style="fill: #ceb7ff"/>
   </g>
   <g id="text_1">
    <!-- 57 -->
    <g transform="translate(59.605345 109.680948) scale(0.1 -0.1)">
     <defs>
      <path id="DejaVuSans-35" d="M 691 4666 
L 3169 4666 
L 3169 4134 
L 1269 4134 
L 1269 2991 
Q 1406 3038 1543 3061 
Q 1681 3084 1819 3084 
Q 2600 3084 3056 2656 
Q 3513 2228 3513 1497 
Q 3513 744 3044 326 
Q 2575 -91 1722 -91 
Q 1428 -91 1123 -41 
Q 819 9 494 109 
L 494 744 
Q 775 591 1075 516 
Q 1375 441 1709 441 
Q 2250 441 2565 725 
Q 2881 1009 2881 1497 
Q 2881 1984 2565 2268 
Q 2250 2553 1709 2553 
Q 1456 2553 1204 2497 
Q 953 2441 691 2322 
L 691 4666 
z
" transform="scale(0.015625)"/>
      <path id="DejaVuSans-37" d="M 525 4666 
L 3525 4666 
L 3525 4397 
L 1831 0 
L 1172 0 
L 2766 4134 
L 525 4134 
L 525 4666 
z
" transform="scale(0.015625)"/>
     </defs>
     <use xlink:href="#DejaVuSans-35"/>
     <use xlink:href="#DejaVuSans-37" transform="translate(63.623047 0)"/>
    </g>
   </g>
   <g id="text_2">
    <!-- 52 -->
    <g transform="translate(279.612602 112.218463) scale(0.1 -0.1)">
     <defs>
      <path id="DejaVuSans-32" d="M 1228 531 
L 3431 531 
L 3431 0 
L 469 0 
L 469 531 
Q 828 903 1448 1529 
Q 2069 2156 2228 2338 
Q 2531 2678 2651 2914 
Q 2772 3150 2772 3378 
Q 2772 3750 2511 3984 
Q 2250 4219 1831 4219 
Q 1534 4219 1204 4116 
Q 875 4013 500 3803 
L 500 4441 
Q 881 4594 1212 4672 
Q 1544 4750 1819 4750 
Q 2544 4750 2975 4387 
Q 3406 4025 3406 3419 
Q 3406 3131 3298 2873 
Q 3191 2616 2906 2266 
Q 2828 2175 2409 1742 
Q 1991 1309 1228 531 
z
" transform="scale(0.015625)"/>
     </defs>
     <use xlink:href="#DejaVuSans-35"/>
     <use xlink:href="#DejaVuSans-32" transform="translate(63.623047 0)"/>
    </g>
   </g>
   <g id="text_3">
    <!-- 54 -->
    <g transform="translate(171.587456 72.312687) scale(0.1 -0.1)">
     <defs>
      <path id="DejaVuSans-34" d="M 2419 4116 
L 825 1625 
L 2419 1625 
L 2419 4116 
z
M 2253 4666 
L 3047 4666 
L 3047 1625 
L 3713 1625 
L 3713 1100 
L 3047 1100 
L 3047 0 
L 2419 0 
L 2419 1100 
L 313 1100 
L 313 1709 
L 2253 4666 
z
" transform="scale(0.015625)"/>
     </defs>
     <use xlink:href="#DejaVuSans-35"/>
     <use xlink:href="#DejaVuSans-34" transform="translate(63.623047 0)"/>
    </g>
   </g>
   <g id="text_4">
    <!-- 43 -->
    <g transform="translate(169.580828 295.517535) scale(0.1 -0.1)">
     <defs>
      <path id="DejaVuSans-33" d="M 2597 2516 
Q 3050 2419 3304 2112 
Q 3559 1806 3559 1356 
Q 3559 666 3084 287 
Q 2609 -91 1734 -91 
Q 1441 -91 1130 -33 
Q 819 25 488 141 
L 488 750 
Q 750 597 1062 519 
Q 1375 441 1716 441 
Q 2309 441 2620 675 
Q 2931 909 2931 1356 
Q 2931 1769 2642 2001 
Q 2353 2234 1838 2234 
L 1294 2234 
L 1294 2753 
L 1863 2753 
Q 2328 2753 2575 2939 
Q 2822 3125 2822 3475 
Q 2822 3834 2567 4026 
Q 2313 4219 1838 4219 
Q 1578 4219 1281 4162 
Q 984 4106 628 3988 
L 628 4550 
Q 988 4650 1302 4700 
Q 1616 4750 1894 4750 
Q 2613 4750 3031 4423 
Q 3450 4097 3450 3541 
Q 3450 3153 3228 2886 
Q 3006 2619 2597 2516 
z
" transform="scale(0.015625)"/>
     </defs>
     <use xlink:href="#DejaVuSans-34"/>
     <use xlink:href="#DejaVuSans-33" transform="translate(63.623047 0)"/>
    </g>
   </g>
   <g id="text_5">
    <!-- 39 -->
    <g transform="translate(84.257415 227.949045) scale(0.1 -0.1)">
     <defs>
      <path id="DejaVuSans-39" d="M 703 97 
L 703 672 
Q 941 559 1184 500 
Q 1428 441 1663 441 
Q 2288 441 2617 861 
Q 2947 1281 2994 2138 
Q 2813 1869 2534 1725 
Q 2256 1581 1919 1581 
Q 1219 1581 811 2004 
Q 403 2428 403 3163 
Q 403 3881 828 4315 
Q 1253 4750 1959 4750 
Q 2769 4750 3195 4129 
Q 3622 3509 3622 2328 
Q 3622 1225 3098 567 
Q 2575 -91 1691 -91 
Q 1453 -91 1209 -44 
Q 966 3 703 97 
z
M 1959 2075 
Q 2384 2075 2632 2365 
Q 2881 2656 2881 3163 
Q 2881 3666 2632 3958 
Q 2384 4250 1959 4250 
Q 1534 4250 1286 3958 
Q 1038 3666 1038 3163 
Q 1038 2656 1286 2365 
Q 1534 2075 1959 2075 
z
" transform="scale(0.015625)"/>
     </defs>
     <use xlink:href="#DejaVuSans-33"/>
     <use xlink:href="#DejaVuSans-39" transform="translate(63.623047 0)"/>
    </g>
   </g>
   <g id="text_6">
    <!-- 34 -->
    <g transform="translate(255.317478 227.817169) scale(0.1 -0.1)">
     <use xlink:href="#DejaVuSans-33"/>
     <use xlink:href="#DejaVuSans-34" transform="translate(63.623047 0)"/>
    </g>
   </g>
   <g id="text_7">
    <!-- 293 -->
    <g transform="translate(165.586668 169.490925) scale(0.1 -0.1)">
     <use xlink:href="#DejaVuSans-32"/>
     <use xlink:href="#DejaVuSans-39" transform="translate(63.623047 0)"/>
     <use xlink:href="#DejaVuSans-33" transform="translate(127.246094 0)"/>
    </g>
   </g>
   <g id="text_8">
    <!-- Replicate 1 -->
    <g transform="translate(26.66641 32.015877) scale(0.12 -0.12)">
     <defs>
      <path id="DejaVuSans-52" d="M 2841 2188 
Q 3044 2119 3236 1894 
Q 3428 1669 3622 1275 
L 4263 0 
L 3584 0 
L 2988 1197 
Q 2756 1666 2539 1819 
Q 2322 1972 1947 1972 
L 1259 1972 
L 1259 0 
L 628 0 
L 628 4666 
L 2053 4666 
Q 2853 4666 3247 4331 
Q 3641 3997 3641 3322 
Q 3641 2881 3436 2590 
Q 3231 2300 2841 2188 
z
M 1259 4147 
L 1259 2491 
L 2053 2491 
Q 2509 2491 2742 2702 
Q 2975 2913 2975 3322 
Q 2975 3731 2742 3939 
Q 2509 4147 2053 4147 
L 1259 4147 
z
" transform="scale(0.015625)"/>
      <path id="DejaVuSans-65" d="M 3597 1894 
L 3597 1613 
L 953 1613 
Q 991 1019 1311 708 
Q 1631 397 2203 397 
Q 2534 397 2845 478 
Q 3156 559 3463 722 
L 3463 178 
Q 3153 47 2828 -22 
Q 2503 -91 2169 -91 
Q 1331 -91 842 396 
Q 353 884 353 1716 
Q 353 2575 817 3079 
Q 1281 3584 2069 3584 
Q 2775 3584 3186 3129 
Q 3597 2675 3597 1894 
z
M 3022 2063 
Q 3016 2534 2758 2815 
Q 2500 3097 2075 3097 
Q 1594 3097 1305 2825 
Q 1016 2553 972 2059 
L 3022 2063 
z
" transform="scale(0.015625)"/>
      <path id="DejaVuSans-70" d="M 1159 525 
L 1159 -1331 
L 581 -1331 
L 581 3500 
L 1159 3500 
L 1159 2969 
Q 1341 3281 1617 3432 
Q 1894 3584 2278 3584 
Q 2916 3584 3314 3078 
Q 3713 2572 3713 1747 
Q 3713 922 3314 415 
Q 2916 -91 2278 -91 
Q 1894 -91 1617 61 
Q 1341 213 1159 525 
z
M 3116 1747 
Q 3116 2381 2855 2742 
Q 2594 3103 2138 3103 
Q 1681 3103 1420 2742 
Q 1159 2381 1159 1747 
Q 1159 1113 1420 752 
Q 1681 391 2138 391 
Q 2594 391 2855 752 
Q 3116 1113 3116 1747 
z
" transform="scale(0.015625)"/>
      <path id="DejaVuSans-6c" d="M 603 4863 
L 1178 4863 
L 1178 0 
L 603 0 
L 603 4863 
z
" transform="scale(0.015625)"/>
      <path id="DejaVuSans-69" d="M 603 3500 
L 1178 3500 
L 1178 0 
L 603 0 
L 603 3500 
z
M 603 4863 
L 1178 4863 
L 1178 4134 
L 603 4134 
L 603 4863 
z
" transform="scale(0.015625)"/>
      <path id="DejaVuSans-63" d="M 3122 3366 
L 3122 2828 
Q 2878 2963 2633 3030 
Q 2388 3097 2138 3097 
Q 1578 3097 1268 2742 
Q 959 2388 959 1747 
Q 959 1106 1268 751 
Q 1578 397 2138 397 
Q 2388 397 2633 464 
Q 2878 531 3122 666 
L 3122 134 
Q 2881 22 2623 -34 
Q 2366 -91 2075 -91 
Q 1284 -91 818 406 
Q 353 903 353 1747 
Q 353 2603 823 3093 
Q 1294 3584 2113 3584 
Q 2378 3584 2631 3529 
Q 2884 3475 3122 3366 
z
" transform="scale(0.015625)"/>
      <path id="DejaVuSans-61" d="M 2194 1759 
Q 1497 1759 1228 1600 
Q 959 1441 959 1056 
Q 959 750 1161 570 
Q 1363 391 1709 391 
Q 2188 391 2477 730 
Q 2766 1069 2766 1631 
L 2766 1759 
L 2194 1759 
z
M 3341 1997 
L 3341 0 
L 2766 0 
L 2766 531 
Q 2569 213 2275 61 
Q 1981 -91 1556 -91 
Q 1019 -91 701 211 
Q 384 513 384 1019 
Q 384 1609 779 1909 
Q 1175 2209 1959 2209 
L 2766 2209 
L 2766 2266 
Q 2766 2663 2505 2880 
Q 2244 3097 1772 3097 
Q 1472 3097 1187 3025 
Q 903 2953 641 2809 
L 641 3341 
Q 956 3463 1253 3523 
Q 1550 3584 1831 3584 
Q 2591 3584 2966 3190 
Q 3341 2797 3341 1997 
z
" transform="scale(0.015625)"/>
      <path id="DejaVuSans-74" d="M 1172 4494 
L 1172 3500 
L 2356 3500 
L 2356 3053 
L 1172 3053 
L 1172 1153 
Q 1172 725 1289 603 
Q 1406 481 1766 481 
L 2356 481 
L 2356 0 
L 1766 0 
Q 1100 0 847 248 
Q 594 497 594 1153 
L 594 3053 
L 172 3053 
L 172 3500 
L 594 3500 
L 594 4494 
L 1172 4494 
z
" transform="scale(0.015625)"/>
      <path id="DejaVuSans-20" transform="scale(0.015625)"/>
      <path id="DejaVuSans-31" d="M 794 531 
L 1825 531 
L 1825 4091 
L 703 3866 
L 703 4441 
L 1819 4666 
L 2450 4666 
L 2450 531 
L 3481 531 
L 3481 0 
L 794 0 
L 794 531 
z
" transform="scale(0.015625)"/>
     </defs>
     <use xlink:href="#DejaVuSans-52"/>
     <use xlink:href="#DejaVuSans-65" transform="translate(64.982422 0)"/>
     <use xlink:href="#DejaVuSans-70" transform="translate(126.505859 0)"/>
     <use xlink:href="#DejaVuSans-6c" transform="translate(189.982422 0)"/>
     <use xlink:href="#DejaVuSans-69" transform="translate(217.765625 0)"/>
     <use xlink:href="#DejaVuSans-63" transform="translate(245.548828 0)"/>
     <use xlink:href="#DejaVuSans-61" transform="translate(300.529297 0)"/>
     <use xlink:href="#DejaVuSans-74" transform="translate(361.808594 0)"/>
     <use xlink:href="#DejaVuSans-65" transform="translate(401.017578 0)"/>
     <use xlink:href="#DejaVuSans-20" transform="translate(462.541016 0)"/>
     <use xlink:href="#DejaVuSans-31" transform="translate(494.328125 0)"/>
    </g>
   </g>
   <g id="text_9">
    <!-- Replicate 2 -->
    <g transform="translate(256.276645 33.414487) scale(0.12 -0.12)">
     <use xlink:href="#DejaVuSans-52"/>
     <use xlink:href="#DejaVuSans-65" transform="translate(64.982422 0)"/>
     <use xlink:href="#DejaVuSans-70" transform="translate(126.505859 0)"/>
     <use xlink:href="#DejaVuSans-6c" transform="translate(189.982422 0)"/>
     <use xlink:href="#DejaVuSans-69" transform="translate(217.765625 0)"/>
     <use xlink:href="#DejaVuSans-63" transform="translate(245.548828 0)"/>
     <use xlink:href="#DejaVuSans-61" transform="translate(300.529297 0)"/>
     <use xlink:href="#DejaVuSans-74" transform="translate(361.808594 0)"/>
     <use xlink:href="#DejaVuSans-65" transform="translate(401.017578 0)"/>
     <use xlink:href="#DejaVuSans-20" transform="translate(462.541016 0)"/>
     <use xlink:href="#DejaVuSans-32" transform="translate(494.328125 0)"/>
    </g>
   </g>
   <g id="text_10">
    <!-- Replicate 3 -->
    <g transform="translate(141.408911 331.483586) scale(0.12 -0.12)">
     <use xlink:href="#DejaVuSans-52"/>
     <use xlink:href="#DejaVuSans-65" transform="translate(64.982422 0)"/>
     <use xlink:href="#DejaVuSans-70" transform="translate(126.505859 0)"/>
     <use xlink:href="#DejaVuSans-6c" transform="translate(189.982422 0)"/>
     <use xlink:href="#DejaVuSans-69" transform="translate(217.765625 0)"/>
     <use xlink:href="#DejaVuSans-63" transform="translate(245.548828 0)"/>
     <use xlink:href="#DejaVuSans-61" transform="translate(300.529297 0)"/>
     <use xlink:href="#DejaVuSans-74" transform="translate(361.808594 0)"/>
     <use xlink:href="#DejaVuSans-65" transform="translate(401.017578 0)"/>
     <use xlink:href="#DejaVuSans-20" transform="translate(462.541016 0)"/>
     <use xlink:href="#DejaVuSans-33" transform="translate(494.328125 0)"/>
    </g>
   </g>
  </g>
 </g>
 <defs>
  <clipPath id="p75435bf05b">
   <rect x="7.2" y="7.2" width="334.8" height="328.142248"/>
  </clipPath>
 </defs>
</svg>
