<?xml version="1.0" encoding="utf-8" standalone="no"?>
<!DOCTYPE svg PUBLIC "-//W3C//DTD SVG 1.1//EN"
  "http://www.w3.org/Graphics/SVG/1.1/DTD/svg11.dtd">
<svg xmlns:xlink="http://www.w3.org/1999/xlink" width="349.2pt" height="326.383381pt" viewBox="0 0 349.2 326.383381" xmlns="http://www.w3.org/2000/svg" version="1.1">
 <metadata>
  <rdf:RDF xmlns:dc="http://purl.org/dc/elements/1.1/" xmlns:cc="http://creativecommons.org/ns#" xmlns:rdf="http://www.w3.org/1999/02/22-rdf-syntax-ns#">
   <cc:Work>
    <dc:type rdf:resource="http://purl.org/dc/dcmitype/StillImage"/>
    <dc:date>2025-11-19T13:53:23.585363</dc:date>
    <dc:format>image/svg+xml</dc:format>
    <dc:creator>
     <cc:Agent>
      <dc:title>Matplotlib v3.10.7, https://matplotlib.org/</dc:title>
     </cc:Agent>
    </dc:creator>
   </cc:Work>
  </rdf:RDF>
 </metadata>
 <defs>
  <style type="text/css">*{stroke-linejoin: round; stroke-linecap: butt}</style>
 </defs>
 <g id="figure_1">
  <g id="patch_1">
   <path d="M 0 326.383381 
L 349.2 326.383381 
L 349.2 0 
L 0 0 
L 0 326.383381 
z
" style="fill: none"/>
  </g>
  <g id="axes_1">
   <g id="patch_2">
    <path d="M 166.898608 40.639503 
C 153.86276 36.178589 140.06156 34.386089 126.31867 35.36898 
C 112.575781 36.351871 99.170145 40.090203 86.90182 46.360871 
C 74.633494 52.631538 63.751492 61.307264 54.905257 71.870276 
C 46.059022 82.433287 39.428109 94.669184 35.408254 107.847722 
C 31.388399 121.02626 30.061195 134.87995 31.50585 148.581995 
C 32.950504 162.284041 37.137695 175.556329 43.817528 187.606761 
C 50.497361 199.657194 59.534254 210.241179 70.38888 218.727061 
C 81.243506 227.212942 93.695546 233.428478 107.001855 237.002723 
C 103.43842 226.571756 101.904831 215.554346 102.484084 204.546731 
C 103.063336 193.539115 105.744789 182.743513 110.383327 172.744158 
C 101.703523 147.646422 102.682404 120.192876 113.127658 95.777061 
C 123.572912 71.361246 142.752578 51.694122 166.898608 40.639503 
" clip-path="url(#pe57f3d7670)" style="fill: #6d4bff"/>
   </g>
   <g id="patch_3">
    <path d="M 166.898608 40.639503 
C 187.03459 47.530109 204.539481 60.512035 216.979292 77.780194 
C 229.419103 95.048353 236.189243 115.763488 236.348348 137.045238 
C 250.47183 146.382154 261.542514 159.669494 268.176604 175.246387 
C 274.810694 190.823279 276.71976 208.012488 273.665176 224.665423 
C 295.246642 209.190247 310.30392 186.213303 315.878827 160.248689 
C 321.453733 134.284074 317.155598 107.151297 303.828841 84.180917 
C 290.502085 61.210537 269.080599 44.012237 243.772892 35.96483 
C 218.465185 27.917423 191.044731 29.584842 166.898608 40.639503 
" clip-path="url(#pe57f3d7670)" style="fill: #ac99ff"/>
   </g>
   <g id="patch_4">
    <path d="M 166.898608 40.639503 
C 142.752578 51.694122 123.572912 71.361246 113.127658 95.777061 
C 102.682404 120.192876 101.703523 147.646422 110.383327 172.744158 
C 115.613955 161.468425 123.217875 151.453765 132.674051 143.386401 
C 142.130227 135.319037 153.217625 129.387541 165.176513 125.998351 
C 177.135402 122.609161 189.686247 121.841497 201.969041 123.747963 
C 214.251834 125.654428 225.97947 130.190459 236.348348 137.045238 
C 236.189243 115.763488 229.419103 95.048353 216.979292 77.780194 
C 204.539481 60.512035 187.03459 47.530109 166.898608 40.639503 
" clip-path="url(#pe57f3d7670)" style="fill: #c5a0ff"/>
   </g>
   <g id="patch_5">
    <path d="M 107.001855 237.002723 
C 113.177438 255.080027 125.180063 270.607184 141.118552 281.137678 
C 157.057042 291.668173 176.047885 296.618272 195.098815 295.208022 
C 214.149746 293.797771 232.204722 286.105344 246.418936 273.342787 
C 260.633151 260.580231 270.218674 243.455005 273.665176 224.665423 
C 258.358315 235.641339 240.418475 242.378122 221.670515 244.1905 
C 202.922556 246.002877 184.024475 242.827239 166.898608 234.986615 
C 157.291219 238.274298 147.249157 240.11908 137.100556 240.460679 
C 126.951956 240.802278 116.808573 239.636933 107.001855 237.002723 
" clip-path="url(#pe57f3d7670)" style="fill: #ebe6ff"/>
   </g>
   <g id="patch_6">
    <path d="M 107.001855 237.002723 
C 116.808573 239.636933 126.951956 240.802278 137.100556 240.460679 
C 147.249157 240.11908 157.291219 238.274298 166.898608 234.986615 
C 153.760195 228.971542 141.977139 220.353899 132.263572 209.655973 
C 122.550005 198.958047 115.106208 186.400416 110.383327 172.744158 
C 105.744789 182.743513 103.063336 193.539115 102.484084 204.546731 
C 101.904831 215.554346 103.43842 226.571756 107.001855 237.002723 
" clip-path="url(#pe57f3d7670)" style="fill: #f1d5ff"/>
   </g>
   <g id="patch_7">
    <path d="M 236.348348 137.045238 
C 236.509412 158.588991 229.887688 179.646844 217.425765 197.221249 
C 204.963842 214.795654 187.282487 228.011178 166.898608 234.986615 
C 184.024475 242.827239 202.922556 246.002877 221.670515 244.1905 
C 240.418475 242.378122 258.358315 235.641339 273.665176 224.665423 
C 276.71976 208.012488 274.810694 190.823279 268.176604 175.246387 
C 261.542514 159.669494 250.47183 146.382154 236.348348 137.045238 
" clip-path="url(#pe57f3d7670)" style="fill: #ffffff"/>
   </g>
   <g id="patch_8">
    <path d="M 110.383327 172.744158 
C 115.106208 186.400416 122.550005 198.958047 132.263572 209.655973 
C 141.977139 220.353899 153.760195 228.971542 166.898608 234.986615 
C 187.282487 228.011178 204.963842 214.795654 217.425765 197.221249 
C 229.887688 179.646844 236.509412 158.588991 236.348348 137.045238 
C 225.97947 130.190459 214.251834 125.654428 201.969041 123.747963 
C 189.686247 121.841497 177.135402 122.609161 165.176513 125.998351 
C 153.217625 129.387541 142.130227 135.319037 132.674051 143.386401 
C 123.217875 151.453765 115.613955 161.468425 110.383327 172.744158 
" clip-path="url(#pe57f3d7670)" style="fill: #ceb7ff"/>
   </g>
   <g id="text_1">
    <!-- 57 -->
    <g transform="translate(59.486438 120.894791) scale(0.1 -0.1)">
     <defs>
      <path id="DejaVuSans-35" d="M 691 4666 
L 3169 4666 
L 3169 4134 
L 1269 4134 
L 1269 2991 
Q 1406 3038 1543 3061 
Q 1681 3084 1819 3084 
Q 2600 3084 3056 2656 
Q 3513 2228 3513 1497 
Q 3513 744 3044 326 
Q 2575 -91 1722 -91 
Q 1428 -91 1123 -41 
Q 819 9 494 109 
L 494 744 
Q 775 591 1075 516 
Q 1375 441 1709 441 
Q 2250 441 2565 725 
Q 2881 1009 2881 1497 
Q 2881 1984 2565 2268 
Q 2250 2553 1709 2553 
Q 1456 2553 1204 2497 
Q 953 2441 691 2322 
L 691 4666 
z
" transform="scale(0.015625)"/>
      <path id="DejaVuSans-37" d="M 525 4666 
L 3525 4666 
L 3525 4397 
L 1831 0 
L 1172 0 
L 2766 4134 
L 525 4134 
L 525 4666 
z
" transform="scale(0.015625)"/>
     </defs>
     <use xlink:href="#DejaVuSans-35"/>
     <use xlink:href="#DejaVuSans-37" transform="translate(63.623047 0)"/>
    </g>
   </g>
   <g id="text_2">
    <!-- 54 -->
    <g transform="translate(269.659251 105.34503) scale(0.1 -0.1)">
     <defs>
      <path id="DejaVuSans-34" d="M 2419 4116 
L 825 1625 
L 2419 1625 
L 2419 4116 
z
M 2253 4666 
L 3047 4666 
L 3047 1625 
L 3713 1625 
L 3713 1100 
L 3047 1100 
L 3047 0 
L 2419 0 
L 2419 1100 
L 313 1100 
L 313 1709 
L 2253 4666 
z
" transform="scale(0.015625)"/>
     </defs>
     <use xlink:href="#DejaVuSans-35"/>
     <use xlink:href="#DejaVuSans-34" transform="translate(63.623047 0)"/>
    </g>
   </g>
   <g id="text_3">
    <!-- 45 -->
    <g transform="translate(155.915245 105.264805) scale(0.1 -0.1)">
     <use xlink:href="#DejaVuSans-34"/>
     <use xlink:href="#DejaVuSans-35" transform="translate(63.623047 0)"/>
    </g>
   </g>
   <g id="text_4">
    <!-- 28 -->
    <g transform="translate(187.238043 277.834589) scale(0.1 -0.1)">
     <defs>
      <path id="DejaVuSans-32" d="M 1228 531 
L 3431 531 
L 3431 0 
L 469 0 
L 469 531 
Q 828 903 1448 1529 
Q 2069 2156 2228 2338 
Q 2531 2678 2651 2914 
Q 2772 3150 2772 3378 
Q 2772 3750 2511 3984 
Q 2250 4219 1831 4219 
Q 1534 4219 1204 4116 
Q 875 4013 500 3803 
L 500 4441 
Q 881 4594 1212 4672 
Q 1544 4750 1819 4750 
Q 2544 4750 2975 4387 
Q 3406 4025 3406 3419 
Q 3406 3131 3298 2873 
Q 3191 2616 2906 2266 
Q 2828 2175 2409 1742 
Q 1991 1309 1228 531 
z
" transform="scale(0.015625)"/>
      <path id="DejaVuSans-38" d="M 2034 2216 
Q 1584 2216 1326 1975 
Q 1069 1734 1069 1313 
Q 1069 891 1326 650 
Q 1584 409 2034 409 
Q 2484 409 2743 651 
Q 3003 894 3003 1313 
Q 3003 1734 2745 1975 
Q 2488 2216 2034 2216 
z
M 1403 2484 
Q 997 2584 770 2862 
Q 544 3141 544 3541 
Q 544 4100 942 4425 
Q 1341 4750 2034 4750 
Q 2731 4750 3128 4425 
Q 3525 4100 3525 3541 
Q 3525 3141 3298 2862 
Q 3072 2584 2669 2484 
Q 3125 2378 3379 2068 
Q 3634 1759 3634 1313 
Q 3634 634 3220 271 
Q 2806 -91 2034 -91 
Q 1263 -91 848 271 
Q 434 634 434 1313 
Q 434 1759 690 2068 
Q 947 2378 1403 2484 
z
M 1172 3481 
Q 1172 3119 1398 2916 
Q 1625 2713 2034 2713 
Q 2441 2713 2670 2916 
Q 2900 3119 2900 3481 
Q 2900 3844 2670 4047 
Q 2441 4250 2034 4250 
Q 1625 4250 1398 4047 
Q 1172 3844 1172 3481 
z
" transform="scale(0.015625)"/>
     </defs>
     <use xlink:href="#DejaVuSans-32"/>
     <use xlink:href="#DejaVuSans-38" transform="translate(63.623047 0)"/>
    </g>
   </g>
   <g id="text_5">
    <!-- 12 -->
    <g transform="translate(116.718074 219.041202) scale(0.1 -0.1)">
     <defs>
      <path id="DejaVuSans-31" d="M 794 531 
L 1825 531 
L 1825 4091 
L 703 3866 
L 703 4441 
L 1819 4666 
L 2450 4666 
L 2450 531 
L 3481 531 
L 3481 0 
L 794 0 
L 794 531 
z
" transform="scale(0.015625)"/>
     </defs>
     <use xlink:href="#DejaVuSans-31"/>
     <use xlink:href="#DejaVuSans-32" transform="translate(63.623047 0)"/>
    </g>
   </g>
   <g id="text_6">
    <!-- 28 -->
    <g transform="translate(229.443504 206.819139) scale(0.1 -0.1)">
     <use xlink:href="#DejaVuSans-32"/>
     <use xlink:href="#DejaVuSans-38" transform="translate(63.623047 0)"/>
    </g>
   </g>
   <g id="text_7">
    <!-- 43 -->
    <g transform="translate(169.039042 170.202244) scale(0.1 -0.1)">
     <defs>
      <path id="DejaVuSans-33" d="M 2597 2516 
Q 3050 2419 3304 2112 
Q 3559 1806 3559 1356 
Q 3559 666 3084 287 
Q 2609 -91 1734 -91 
Q 1441 -91 1130 -33 
Q 819 25 488 141 
L 488 750 
Q 750 597 1062 519 
Q 1375 441 1716 441 
Q 2309 441 2620 675 
Q 2931 909 2931 1356 
Q 2931 1769 2642 2001 
Q 2353 2234 1838 2234 
L 1294 2234 
L 1294 2753 
L 1863 2753 
Q 2328 2753 2575 2939 
Q 2822 3125 2822 3475 
Q 2822 3834 2567 4026 
Q 2313 4219 1838 4219 
Q 1578 4219 1281 4162 
Q 984 4106 628 3988 
L 628 4550 
Q 988 4650 1302 4700 
Q 1616 4750 1894 4750 
Q 2613 4750 3031 4423 
Q 3450 4097 3450 3541 
Q 3450 3153 3228 2886 
Q 3006 2619 2597 2516 
z
" transform="scale(0.015625)"/>
     </defs>
     <use xlink:href="#DejaVuSans-34"/>
     <use xlink:href="#DejaVuSans-33" transform="translate(63.623047 0)"/>
    </g>
   </g>
   <g id="text_8">
    <!-- Replicate 1 -->
    <g transform="translate(15.336341 35.107308) scale(0.12 -0.12)">
     <defs>
      <path id="DejaVuSans-52" d="M 2841 2188 
Q 3044 2119 3236 1894 
Q 3428 1669 3622 1275 
L 4263 0 
L 3584 0 
L 2988 1197 
Q 2756 1666 2539 1819 
Q 2322 1972 1947 1972 
L 1259 1972 
L 1259 0 
L 628 0 
L 628 4666 
L 2053 4666 
Q 2853 4666 3247 4331 
Q 3641 3997 3641 3322 
Q 3641 2881 3436 2590 
Q 3231 2300 2841 2188 
z
M 1259 4147 
L 1259 2491 
L 2053 2491 
Q 2509 2491 2742 2702 
Q 2975 2913 2975 3322 
Q 2975 3731 2742 3939 
Q 2509 4147 2053 4147 
L 1259 4147 
z
" transform="scale(0.015625)"/>
      <path id="DejaVuSans-65" d="M 3597 1894 
L 3597 1613 
L 953 1613 
Q 991 1019 1311 708 
Q 1631 397 2203 397 
Q 2534 397 2845 478 
Q 3156 559 3463 722 
L 3463 178 
Q 3153 47 2828 -22 
Q 2503 -91 2169 -91 
Q 1331 -91 842 396 
Q 353 884 353 1716 
Q 353 2575 817 3079 
Q 1281 3584 2069 3584 
Q 2775 3584 3186 3129 
Q 3597 2675 3597 1894 
z
M 3022 2063 
Q 3016 2534 2758 2815 
Q 2500 3097 2075 3097 
Q 1594 3097 1305 2825 
Q 1016 2553 972 2059 
L 3022 2063 
z
" transform="scale(0.015625)"/>
      <path id="DejaVuSans-70" d="M 1159 525 
L 1159 -1331 
L 581 -1331 
L 581 3500 
L 1159 3500 
L 1159 2969 
Q 1341 3281 1617 3432 
Q 1894 3584 2278 3584 
Q 2916 3584 3314 3078 
Q 3713 2572 3713 1747 
Q 3713 922 3314 415 
Q 2916 -91 2278 -91 
Q 1894 -91 1617 61 
Q 1341 213 1159 525 
z
M 3116 1747 
Q 3116 2381 2855 2742 
Q 2594 3103 2138 3103 
Q 1681 3103 1420 2742 
Q 1159 2381 1159 1747 
Q 1159 1113 1420 752 
Q 1681 391 2138 391 
Q 2594 391 2855 752 
Q 3116 1113 3116 1747 
z
" transform="scale(0.015625)"/>
      <path id="DejaVuSans-6c" d="M 603 4863 
L 1178 4863 
L 1178 0 
L 603 0 
L 603 4863 
z
" transform="scale(0.015625)"/>
      <path id="DejaVuSans-69" d="M 603 3500 
L 1178 3500 
L 1178 0 
L 603 0 
L 603 3500 
z
M 603 4863 
L 1178 4863 
L 1178 4134 
L 603 4134 
L 603 4863 
z
" transform="scale(0.015625)"/>
      <path id="DejaVuSans-63" d="M 3122 3366 
L 3122 2828 
Q 2878 2963 2633 3030 
Q 2388 3097 2138 3097 
Q 1578 3097 1268 2742 
Q 959 2388 959 1747 
Q 959 1106 1268 751 
Q 1578 397 2138 397 
Q 2388 397 2633 464 
Q 2878 531 3122 666 
L 3122 134 
Q 2881 22 2623 -34 
Q 2366 -91 2075 -91 
Q 1284 -91 818 406 
Q 353 903 353 1747 
Q 353 2603 823 3093 
Q 1294 3584 2113 3584 
Q 2378 3584 2631 3529 
Q 2884 3475 3122 3366 
z
" transform="scale(0.015625)"/>
      <path id="DejaVuSans-61" d="M 2194 1759 
Q 1497 1759 1228 1600 
Q 959 1441 959 1056 
Q 959 750 1161 570 
Q 1363 391 1709 391 
Q 2188 391 2477 730 
Q 2766 1069 2766 1631 
L 2766 1759 
L 2194 1759 
z
M 3341 1997 
L 3341 0 
L 2766 0 
L 2766 531 
Q 2569 213 2275 61 
Q 1981 -91 1556 -91 
Q 1019 -91 701 211 
Q 384 513 384 1019 
Q 384 1609 779 1909 
Q 1175 2209 1959 2209 
L 2766 2209 
L 2766 2266 
Q 2766 2663 2505 2880 
Q 2244 3097 1772 3097 
Q 1472 3097 1187 3025 
Q 903 2953 641 2809 
L 641 3341 
Q 956 3463 1253 3523 
Q 1550 3584 1831 3584 
Q 2591 3584 2966 3190 
Q 3341 2797 3341 1997 
z
" transform="scale(0.015625)"/>
      <path id="DejaVuSans-74" d="M 1172 4494 
L 1172 3500 
L 2356 3500 
L 2356 3053 
L 1172 3053 
L 1172 1153 
Q 1172 725 1289 603 
Q 1406 481 1766 481 
L 2356 481 
L 2356 0 
L 1766 0 
Q 1100 0 847 248 
Q 594 497 594 1153 
L 594 3053 
L 172 3053 
L 172 3500 
L 594 3500 
L 594 4494 
L 1172 4494 
z
" transform="scale(0.015625)"/>
      <path id="DejaVuSans-20" transform="scale(0.015625)"/>
     </defs>
     <use xlink:href="#DejaVuSans-52"/>
     <use xlink:href="#DejaVuSans-65" transform="translate(64.982422 0)"/>
     <use xlink:href="#DejaVuSans-70" transform="translate(126.505859 0)"/>
     <use xlink:href="#DejaVuSans-6c" transform="translate(189.982422 0)"/>
     <use xlink:href="#DejaVuSans-69" transform="translate(217.765625 0)"/>
     <use xlink:href="#DejaVuSans-63" transform="translate(245.548828 0)"/>
     <use xlink:href="#DejaVuSans-61" transform="translate(300.529297 0)"/>
     <use xlink:href="#DejaVuSans-74" transform="translate(361.808594 0)"/>
     <use xlink:href="#DejaVuSans-65" transform="translate(401.017578 0)"/>
     <use xlink:href="#DejaVuSans-20" transform="translate(462.541016 0)"/>
     <use xlink:href="#DejaVuSans-31" transform="translate(494.328125 0)"/>
    </g>
   </g>
   <g id="text_9">
    <!-- Replicate 2 -->
    <g transform="translate(264.823613 30.939715) scale(0.12 -0.12)">
     <use xlink:href="#DejaVuSans-52"/>
     <use xlink:href="#DejaVuSans-65" transform="translate(64.982422 0)"/>
     <use xlink:href="#DejaVuSans-70" transform="translate(126.505859 0)"/>
     <use xlink:href="#DejaVuSans-6c" transform="translate(189.982422 0)"/>
     <use xlink:href="#DejaVuSans-69" transform="translate(217.765625 0)"/>
     <use xlink:href="#DejaVuSans-63" transform="translate(245.548828 0)"/>
     <use xlink:href="#DejaVuSans-61" transform="translate(300.529297 0)"/>
     <use xlink:href="#DejaVuSans-74" transform="translate(361.808594 0)"/>
     <use xlink:href="#DejaVuSans-65" transform="translate(401.017578 0)"/>
     <use xlink:href="#DejaVuSans-20" transform="translate(462.541016 0)"/>
     <use xlink:href="#DejaVuSans-32" transform="translate(494.328125 0)"/>
    </g>
   </g>
   <g id="text_10">
    <!-- Replicate 3 -->
    <g transform="translate(155.245402 313.197667) scale(0.12 -0.12)">
     <use xlink:href="#DejaVuSans-52"/>
     <use xlink:href="#DejaVuSans-65" transform="translate(64.982422 0)"/>
     <use xlink:href="#DejaVuSans-70" transform="translate(126.505859 0)"/>
     <use xlink:href="#DejaVuSans-6c" transform="translate(189.982422 0)"/>
     <use xlink:href="#DejaVuSans-69" transform="translate(217.765625 0)"/>
     <use xlink:href="#DejaVuSans-63" transform="translate(245.548828 0)"/>
     <use xlink:href="#DejaVuSans-61" transform="translate(300.529297 0)"/>
     <use xlink:href="#DejaVuSans-74" transform="translate(361.808594 0)"/>
     <use xlink:href="#DejaVuSans-65" transform="translate(401.017578 0)"/>
     <use xlink:href="#DejaVuSans-20" transform="translate(462.541016 0)"/>
     <use xlink:href="#DejaVuSans-33" transform="translate(494.328125 0)"/>
    </g>
   </g>
  </g>
 </g>
 <defs>
  <clipPath id="pe57f3d7670">
   <rect x="7.2" y="7.2" width="334.8" height="311.983381"/>
  </clipPath>
 </defs>
</svg>
