<?xml version="1.0" encoding="utf-8" standalone="no"?>
<!DOCTYPE svg PUBLIC "-//W3C//DTD SVG 1.1//EN"
  "http://www.w3.org/Graphics/SVG/1.1/DTD/svg11.dtd">
<svg xmlns:xlink="http://www.w3.org/1999/xlink" width="501.583762pt" height="392.514375pt" viewBox="0 0 501.583762 392.514375" xmlns="http://www.w3.org/2000/svg" version="1.1">
 <metadata>
  <rdf:RDF xmlns:dc="http://purl.org/dc/elements/1.1/" xmlns:cc="http://creativecommons.org/ns#" xmlns:rdf="http://www.w3.org/1999/02/22-rdf-syntax-ns#">
   <cc:Work>
    <dc:type rdf:resource="http://purl.org/dc/dcmitype/StillImage"/>
    <dc:date>2025-11-19T15:44:50.166040</dc:date>
    <dc:format>image/svg+xml</dc:format>
    <dc:creator>
     <cc:Agent>
      <dc:title>Matplotlib v3.10.0, https://matplotlib.org/</dc:title>
     </cc:Agent>
    </dc:creator>
   </cc:Work>
  </rdf:RDF>
 </metadata>
 <defs>
  <style type="text/css">*{stroke-linejoin: round; stroke-linecap: butt}</style>
 </defs>
 <g id="figure_1">
  <g id="patch_1">
   <path d="M 0 392.514375 
L 501.583762 392.514375 
L 501.583762 0 
L 0 0 
z
" style="fill: #ffffff"/>
  </g>
  <g id="axes_1">
   <g id="patch_2">
    <path d="M 46.965625 354.958125 
L 493.365625 354.958125 
L 493.365625 22.318125 
L 46.965625 22.318125 
z
" style="fill: #ffffff"/>
   </g>
   <g id="matplotlib.axis_1">
    <g id="xtick_1">
     <g id="line2d_1">
      <path d="M 67.256534 354.958125 
L 67.256534 22.318125 
" clip-path="url(#pa761cae8b0)" style="fill: none; stroke: #b0b0b0; stroke-width: 0.8; stroke-linecap: square"/>
     </g>
     <g id="line2d_2">
      <defs>
       <path id="m8a06107f51" d="M 0 0 
L 0 3.5 
" style="stroke: #000000; stroke-width: 0.8"/>
      </defs>
      <g>
       <use xlink:href="#m8a06107f51" x="67.256534" y="354.958125" style="stroke: #000000; stroke-width: 0.8"/>
      </g>
     </g>
     <g id="text_1">
      <!-- 0 -->
      <g transform="translate(64.075284 369.556562) scale(0.1 -0.1)">
       <defs>
        <path id="DejaVuSans-30" d="M 2034 4250 
Q 1547 4250 1301 3770 
Q 1056 3291 1056 2328 
Q 1056 1369 1301 889 
Q 1547 409 2034 409 
Q 2525 409 2770 889 
Q 3016 1369 3016 2328 
Q 3016 3291 2770 3770 
Q 2525 4250 2034 4250 
z
M 2034 4750 
Q 2819 4750 3233 4129 
Q 3647 3509 3647 2328 
Q 3647 1150 3233 529 
Q 2819 -91 2034 -91 
Q 1250 -91 836 529 
Q 422 1150 422 2328 
Q 422 3509 836 4129 
Q 1250 4750 2034 4750 
z
" transform="scale(0.015625)"/>
       </defs>
       <use xlink:href="#DejaVuSans-30"/>
      </g>
     </g>
    </g>
    <g id="xtick_2">
     <g id="line2d_3">
      <path d="M 126.456852 354.958125 
L 126.456852 22.318125 
" clip-path="url(#pa761cae8b0)" style="fill: none; stroke: #b0b0b0; stroke-width: 0.8; stroke-linecap: square"/>
     </g>
     <g id="line2d_4">
      <g>
       <use xlink:href="#m8a06107f51" x="126.456852" y="354.958125" style="stroke: #000000; stroke-width: 0.8"/>
      </g>
     </g>
     <g id="text_2">
      <!-- 200 -->
      <g transform="translate(116.913102 369.556562) scale(0.1 -0.1)">
       <defs>
        <path id="DejaVuSans-32" d="M 1228 531 
L 3431 531 
L 3431 0 
L 469 0 
L 469 531 
Q 828 903 1448 1529 
Q 2069 2156 2228 2338 
Q 2531 2678 2651 2914 
Q 2772 3150 2772 3378 
Q 2772 3750 2511 3984 
Q 2250 4219 1831 4219 
Q 1534 4219 1204 4116 
Q 875 4013 500 3803 
L 500 4441 
Q 881 4594 1212 4672 
Q 1544 4750 1819 4750 
Q 2544 4750 2975 4387 
Q 3406 4025 3406 3419 
Q 3406 3131 3298 2873 
Q 3191 2616 2906 2266 
Q 2828 2175 2409 1742 
Q 1991 1309 1228 531 
z
" transform="scale(0.015625)"/>
       </defs>
       <use xlink:href="#DejaVuSans-32"/>
       <use xlink:href="#DejaVuSans-30" transform="translate(63.623047 0)"/>
       <use xlink:href="#DejaVuSans-30" transform="translate(127.246094 0)"/>
      </g>
     </g>
    </g>
    <g id="xtick_3">
     <g id="line2d_5">
      <path d="M 185.657171 354.958125 
L 185.657171 22.318125 
" clip-path="url(#pa761cae8b0)" style="fill: none; stroke: #b0b0b0; stroke-width: 0.8; stroke-linecap: square"/>
     </g>
     <g id="line2d_6">
      <g>
       <use xlink:href="#m8a06107f51" x="185.657171" y="354.958125" style="stroke: #000000; stroke-width: 0.8"/>
      </g>
     </g>
     <g id="text_3">
      <!-- 400 -->
      <g transform="translate(176.113421 369.556562) scale(0.1 -0.1)">
       <defs>
        <path id="DejaVuSans-34" d="M 2419 4116 
L 825 1625 
L 2419 1625 
L 2419 4116 
z
M 2253 4666 
L 3047 4666 
L 3047 1625 
L 3713 1625 
L 3713 1100 
L 3047 1100 
L 3047 0 
L 2419 0 
L 2419 1100 
L 313 1100 
L 313 1709 
L 2253 4666 
z
" transform="scale(0.015625)"/>
       </defs>
       <use xlink:href="#DejaVuSans-34"/>
       <use xlink:href="#DejaVuSans-30" transform="translate(63.623047 0)"/>
       <use xlink:href="#DejaVuSans-30" transform="translate(127.246094 0)"/>
      </g>
     </g>
    </g>
    <g id="xtick_4">
     <g id="line2d_7">
      <path d="M 244.857489 354.958125 
L 244.857489 22.318125 
" clip-path="url(#pa761cae8b0)" style="fill: none; stroke: #b0b0b0; stroke-width: 0.8; stroke-linecap: square"/>
     </g>
     <g id="line2d_8">
      <g>
       <use xlink:href="#m8a06107f51" x="244.857489" y="354.958125" style="stroke: #000000; stroke-width: 0.8"/>
      </g>
     </g>
     <g id="text_4">
      <!-- 600 -->
      <g transform="translate(235.313739 369.556562) scale(0.1 -0.1)">
       <defs>
        <path id="DejaVuSans-36" d="M 2113 2584 
Q 1688 2584 1439 2293 
Q 1191 2003 1191 1497 
Q 1191 994 1439 701 
Q 1688 409 2113 409 
Q 2538 409 2786 701 
Q 3034 994 3034 1497 
Q 3034 2003 2786 2293 
Q 2538 2584 2113 2584 
z
M 3366 4563 
L 3366 3988 
Q 3128 4100 2886 4159 
Q 2644 4219 2406 4219 
Q 1781 4219 1451 3797 
Q 1122 3375 1075 2522 
Q 1259 2794 1537 2939 
Q 1816 3084 2150 3084 
Q 2853 3084 3261 2657 
Q 3669 2231 3669 1497 
Q 3669 778 3244 343 
Q 2819 -91 2113 -91 
Q 1303 -91 875 529 
Q 447 1150 447 2328 
Q 447 3434 972 4092 
Q 1497 4750 2381 4750 
Q 2619 4750 2861 4703 
Q 3103 4656 3366 4563 
z
" transform="scale(0.015625)"/>
       </defs>
       <use xlink:href="#DejaVuSans-36"/>
       <use xlink:href="#DejaVuSans-30" transform="translate(63.623047 0)"/>
       <use xlink:href="#DejaVuSans-30" transform="translate(127.246094 0)"/>
      </g>
     </g>
    </g>
    <g id="xtick_5">
     <g id="line2d_9">
      <path d="M 304.057807 354.958125 
L 304.057807 22.318125 
" clip-path="url(#pa761cae8b0)" style="fill: none; stroke: #b0b0b0; stroke-width: 0.8; stroke-linecap: square"/>
     </g>
     <g id="line2d_10">
      <g>
       <use xlink:href="#m8a06107f51" x="304.057807" y="354.958125" style="stroke: #000000; stroke-width: 0.8"/>
      </g>
     </g>
     <g id="text_5">
      <!-- 800 -->
      <g transform="translate(294.514057 369.556562) scale(0.1 -0.1)">
       <defs>
        <path id="DejaVuSans-38" d="M 2034 2216 
Q 1584 2216 1326 1975 
Q 1069 1734 1069 1313 
Q 1069 891 1326 650 
Q 1584 409 2034 409 
Q 2484 409 2743 651 
Q 3003 894 3003 1313 
Q 3003 1734 2745 1975 
Q 2488 2216 2034 2216 
z
M 1403 2484 
Q 997 2584 770 2862 
Q 544 3141 544 3541 
Q 544 4100 942 4425 
Q 1341 4750 2034 4750 
Q 2731 4750 3128 4425 
Q 3525 4100 3525 3541 
Q 3525 3141 3298 2862 
Q 3072 2584 2669 2484 
Q 3125 2378 3379 2068 
Q 3634 1759 3634 1313 
Q 3634 634 3220 271 
Q 2806 -91 2034 -91 
Q 1263 -91 848 271 
Q 434 634 434 1313 
Q 434 1759 690 2068 
Q 947 2378 1403 2484 
z
M 1172 3481 
Q 1172 3119 1398 2916 
Q 1625 2713 2034 2713 
Q 2441 2713 2670 2916 
Q 2900 3119 2900 3481 
Q 2900 3844 2670 4047 
Q 2441 4250 2034 4250 
Q 1625 4250 1398 4047 
Q 1172 3844 1172 3481 
z
" transform="scale(0.015625)"/>
       </defs>
       <use xlink:href="#DejaVuSans-38"/>
       <use xlink:href="#DejaVuSans-30" transform="translate(63.623047 0)"/>
       <use xlink:href="#DejaVuSans-30" transform="translate(127.246094 0)"/>
      </g>
     </g>
    </g>
    <g id="xtick_6">
     <g id="line2d_11">
      <path d="M 363.258125 354.958125 
L 363.258125 22.318125 
" clip-path="url(#pa761cae8b0)" style="fill: none; stroke: #b0b0b0; stroke-width: 0.8; stroke-linecap: square"/>
     </g>
     <g id="line2d_12">
      <g>
       <use xlink:href="#m8a06107f51" x="363.258125" y="354.958125" style="stroke: #000000; stroke-width: 0.8"/>
      </g>
     </g>
     <g id="text_6">
      <!-- 1000 -->
      <g transform="translate(350.533125 369.556562) scale(0.1 -0.1)">
       <defs>
        <path id="DejaVuSans-31" d="M 794 531 
L 1825 531 
L 1825 4091 
L 703 3866 
L 703 4441 
L 1819 4666 
L 2450 4666 
L 2450 531 
L 3481 531 
L 3481 0 
L 794 0 
L 794 531 
z
" transform="scale(0.015625)"/>
       </defs>
       <use xlink:href="#DejaVuSans-31"/>
       <use xlink:href="#DejaVuSans-30" transform="translate(63.623047 0)"/>
       <use xlink:href="#DejaVuSans-30" transform="translate(127.246094 0)"/>
       <use xlink:href="#DejaVuSans-30" transform="translate(190.869141 0)"/>
      </g>
     </g>
    </g>
    <g id="xtick_7">
     <g id="line2d_13">
      <path d="M 422.458444 354.958125 
L 422.458444 22.318125 
" clip-path="url(#pa761cae8b0)" style="fill: none; stroke: #b0b0b0; stroke-width: 0.8; stroke-linecap: square"/>
     </g>
     <g id="line2d_14">
      <g>
       <use xlink:href="#m8a06107f51" x="422.458444" y="354.958125" style="stroke: #000000; stroke-width: 0.8"/>
      </g>
     </g>
     <g id="text_7">
      <!-- 1200 -->
      <g transform="translate(409.733444 369.556562) scale(0.1 -0.1)">
       <use xlink:href="#DejaVuSans-31"/>
       <use xlink:href="#DejaVuSans-32" transform="translate(63.623047 0)"/>
       <use xlink:href="#DejaVuSans-30" transform="translate(127.246094 0)"/>
       <use xlink:href="#DejaVuSans-30" transform="translate(190.869141 0)"/>
      </g>
     </g>
    </g>
    <g id="xtick_8">
     <g id="line2d_15">
      <path d="M 481.658762 354.958125 
L 481.658762 22.318125 
" clip-path="url(#pa761cae8b0)" style="fill: none; stroke: #b0b0b0; stroke-width: 0.8; stroke-linecap: square"/>
     </g>
     <g id="line2d_16">
      <g>
       <use xlink:href="#m8a06107f51" x="481.658762" y="354.958125" style="stroke: #000000; stroke-width: 0.8"/>
      </g>
     </g>
     <g id="text_8">
      <!-- 1400 -->
      <g transform="translate(468.933762 369.556562) scale(0.1 -0.1)">
       <use xlink:href="#DejaVuSans-31"/>
       <use xlink:href="#DejaVuSans-34" transform="translate(63.623047 0)"/>
       <use xlink:href="#DejaVuSans-30" transform="translate(127.246094 0)"/>
       <use xlink:href="#DejaVuSans-30" transform="translate(190.869141 0)"/>
      </g>
     </g>
    </g>
    <g id="text_9">
     <!-- Residue -->
     <g transform="translate(250.426562 383.234687) scale(0.1 -0.1)">
      <defs>
       <path id="DejaVuSans-52" d="M 2841 2188 
Q 3044 2119 3236 1894 
Q 3428 1669 3622 1275 
L 4263 0 
L 3584 0 
L 2988 1197 
Q 2756 1666 2539 1819 
Q 2322 1972 1947 1972 
L 1259 1972 
L 1259 0 
L 628 0 
L 628 4666 
L 2053 4666 
Q 2853 4666 3247 4331 
Q 3641 3997 3641 3322 
Q 3641 2881 3436 2590 
Q 3231 2300 2841 2188 
z
M 1259 4147 
L 1259 2491 
L 2053 2491 
Q 2509 2491 2742 2702 
Q 2975 2913 2975 3322 
Q 2975 3731 2742 3939 
Q 2509 4147 2053 4147 
L 1259 4147 
z
" transform="scale(0.015625)"/>
       <path id="DejaVuSans-65" d="M 3597 1894 
L 3597 1613 
L 953 1613 
Q 991 1019 1311 708 
Q 1631 397 2203 397 
Q 2534 397 2845 478 
Q 3156 559 3463 722 
L 3463 178 
Q 3153 47 2828 -22 
Q 2503 -91 2169 -91 
Q 1331 -91 842 396 
Q 353 884 353 1716 
Q 353 2575 817 3079 
Q 1281 3584 2069 3584 
Q 2775 3584 3186 3129 
Q 3597 2675 3597 1894 
z
M 3022 2063 
Q 3016 2534 2758 2815 
Q 2500 3097 2075 3097 
Q 1594 3097 1305 2825 
Q 1016 2553 972 2059 
L 3022 2063 
z
" transform="scale(0.015625)"/>
       <path id="DejaVuSans-73" d="M 2834 3397 
L 2834 2853 
Q 2591 2978 2328 3040 
Q 2066 3103 1784 3103 
Q 1356 3103 1142 2972 
Q 928 2841 928 2578 
Q 928 2378 1081 2264 
Q 1234 2150 1697 2047 
L 1894 2003 
Q 2506 1872 2764 1633 
Q 3022 1394 3022 966 
Q 3022 478 2636 193 
Q 2250 -91 1575 -91 
Q 1294 -91 989 -36 
Q 684 19 347 128 
L 347 722 
Q 666 556 975 473 
Q 1284 391 1588 391 
Q 1994 391 2212 530 
Q 2431 669 2431 922 
Q 2431 1156 2273 1281 
Q 2116 1406 1581 1522 
L 1381 1569 
Q 847 1681 609 1914 
Q 372 2147 372 2553 
Q 372 3047 722 3315 
Q 1072 3584 1716 3584 
Q 2034 3584 2315 3537 
Q 2597 3491 2834 3397 
z
" transform="scale(0.015625)"/>
       <path id="DejaVuSans-69" d="M 603 3500 
L 1178 3500 
L 1178 0 
L 603 0 
L 603 3500 
z
M 603 4863 
L 1178 4863 
L 1178 4134 
L 603 4134 
L 603 4863 
z
" transform="scale(0.015625)"/>
       <path id="DejaVuSans-64" d="M 2906 2969 
L 2906 4863 
L 3481 4863 
L 3481 0 
L 2906 0 
L 2906 525 
Q 2725 213 2448 61 
Q 2172 -91 1784 -91 
Q 1150 -91 751 415 
Q 353 922 353 1747 
Q 353 2572 751 3078 
Q 1150 3584 1784 3584 
Q 2172 3584 2448 3432 
Q 2725 3281 2906 2969 
z
M 947 1747 
Q 947 1113 1208 752 
Q 1469 391 1925 391 
Q 2381 391 2643 752 
Q 2906 1113 2906 1747 
Q 2906 2381 2643 2742 
Q 2381 3103 1925 3103 
Q 1469 3103 1208 2742 
Q 947 2381 947 1747 
z
" transform="scale(0.015625)"/>
       <path id="DejaVuSans-75" d="M 544 1381 
L 544 3500 
L 1119 3500 
L 1119 1403 
Q 1119 906 1312 657 
Q 1506 409 1894 409 
Q 2359 409 2629 706 
Q 2900 1003 2900 1516 
L 2900 3500 
L 3475 3500 
L 3475 0 
L 2900 0 
L 2900 538 
Q 2691 219 2414 64 
Q 2138 -91 1772 -91 
Q 1169 -91 856 284 
Q 544 659 544 1381 
z
M 1991 3584 
L 1991 3584 
z
" transform="scale(0.015625)"/>
      </defs>
      <use xlink:href="#DejaVuSans-52"/>
      <use xlink:href="#DejaVuSans-65" transform="translate(64.982422 0)"/>
      <use xlink:href="#DejaVuSans-73" transform="translate(126.505859 0)"/>
      <use xlink:href="#DejaVuSans-69" transform="translate(178.605469 0)"/>
      <use xlink:href="#DejaVuSans-64" transform="translate(206.388672 0)"/>
      <use xlink:href="#DejaVuSans-75" transform="translate(269.865234 0)"/>
      <use xlink:href="#DejaVuSans-65" transform="translate(333.244141 0)"/>
     </g>
    </g>
   </g>
   <g id="matplotlib.axis_2">
    <g id="ytick_1">
     <g id="line2d_17">
      <path d="M 46.965625 310.305201 
L 493.365625 310.305201 
" clip-path="url(#pa761cae8b0)" style="fill: none; stroke: #b0b0b0; stroke-width: 0.8; stroke-linecap: square"/>
     </g>
     <g id="line2d_18">
      <defs>
       <path id="m197f624269" d="M 0 0 
L -3.5 0 
" style="stroke: #000000; stroke-width: 0.8"/>
      </defs>
      <g>
       <use xlink:href="#m197f624269" x="46.965625" y="310.305201" style="stroke: #000000; stroke-width: 0.8"/>
      </g>
     </g>
     <g id="text_10">
      <!-- 40 -->
      <g transform="translate(27.240625 314.10442) scale(0.1 -0.1)">
       <use xlink:href="#DejaVuSans-34"/>
       <use xlink:href="#DejaVuSans-30" transform="translate(63.623047 0)"/>
      </g>
     </g>
    </g>
    <g id="ytick_2">
     <g id="line2d_19">
      <path d="M 46.965625 263.452304 
L 493.365625 263.452304 
" clip-path="url(#pa761cae8b0)" style="fill: none; stroke: #b0b0b0; stroke-width: 0.8; stroke-linecap: square"/>
     </g>
     <g id="line2d_20">
      <g>
       <use xlink:href="#m197f624269" x="46.965625" y="263.452304" style="stroke: #000000; stroke-width: 0.8"/>
      </g>
     </g>
     <g id="text_11">
      <!-- 50 -->
      <g transform="translate(27.240625 267.251523) scale(0.1 -0.1)">
       <defs>
        <path id="DejaVuSans-35" d="M 691 4666 
L 3169 4666 
L 3169 4134 
L 1269 4134 
L 1269 2991 
Q 1406 3038 1543 3061 
Q 1681 3084 1819 3084 
Q 2600 3084 3056 2656 
Q 3513 2228 3513 1497 
Q 3513 744 3044 326 
Q 2575 -91 1722 -91 
Q 1428 -91 1123 -41 
Q 819 9 494 109 
L 494 744 
Q 775 591 1075 516 
Q 1375 441 1709 441 
Q 2250 441 2565 725 
Q 2881 1009 2881 1497 
Q 2881 1984 2565 2268 
Q 2250 2553 1709 2553 
Q 1456 2553 1204 2497 
Q 953 2441 691 2322 
L 691 4666 
z
" transform="scale(0.015625)"/>
       </defs>
       <use xlink:href="#DejaVuSans-35"/>
       <use xlink:href="#DejaVuSans-30" transform="translate(63.623047 0)"/>
      </g>
     </g>
    </g>
    <g id="ytick_3">
     <g id="line2d_21">
      <path d="M 46.965625 216.599408 
L 493.365625 216.599408 
" clip-path="url(#pa761cae8b0)" style="fill: none; stroke: #b0b0b0; stroke-width: 0.8; stroke-linecap: square"/>
     </g>
     <g id="line2d_22">
      <g>
       <use xlink:href="#m197f624269" x="46.965625" y="216.599408" style="stroke: #000000; stroke-width: 0.8"/>
      </g>
     </g>
     <g id="text_12">
      <!-- 60 -->
      <g transform="translate(27.240625 220.398627) scale(0.1 -0.1)">
       <use xlink:href="#DejaVuSans-36"/>
       <use xlink:href="#DejaVuSans-30" transform="translate(63.623047 0)"/>
      </g>
     </g>
    </g>
    <g id="ytick_4">
     <g id="line2d_23">
      <path d="M 46.965625 169.746512 
L 493.365625 169.746512 
" clip-path="url(#pa761cae8b0)" style="fill: none; stroke: #b0b0b0; stroke-width: 0.8; stroke-linecap: square"/>
     </g>
     <g id="line2d_24">
      <g>
       <use xlink:href="#m197f624269" x="46.965625" y="169.746512" style="stroke: #000000; stroke-width: 0.8"/>
      </g>
     </g>
     <g id="text_13">
      <!-- 70 -->
      <g transform="translate(27.240625 173.545731) scale(0.1 -0.1)">
       <defs>
        <path id="DejaVuSans-37" d="M 525 4666 
L 3525 4666 
L 3525 4397 
L 1831 0 
L 1172 0 
L 2766 4134 
L 525 4134 
L 525 4666 
z
" transform="scale(0.015625)"/>
       </defs>
       <use xlink:href="#DejaVuSans-37"/>
       <use xlink:href="#DejaVuSans-30" transform="translate(63.623047 0)"/>
      </g>
     </g>
    </g>
    <g id="ytick_5">
     <g id="line2d_25">
      <path d="M 46.965625 122.893616 
L 493.365625 122.893616 
" clip-path="url(#pa761cae8b0)" style="fill: none; stroke: #b0b0b0; stroke-width: 0.8; stroke-linecap: square"/>
     </g>
     <g id="line2d_26">
      <g>
       <use xlink:href="#m197f624269" x="46.965625" y="122.893616" style="stroke: #000000; stroke-width: 0.8"/>
      </g>
     </g>
     <g id="text_14">
      <!-- 80 -->
      <g transform="translate(27.240625 126.692834) scale(0.1 -0.1)">
       <use xlink:href="#DejaVuSans-38"/>
       <use xlink:href="#DejaVuSans-30" transform="translate(63.623047 0)"/>
      </g>
     </g>
    </g>
    <g id="ytick_6">
     <g id="line2d_27">
      <path d="M 46.965625 76.040719 
L 493.365625 76.040719 
" clip-path="url(#pa761cae8b0)" style="fill: none; stroke: #b0b0b0; stroke-width: 0.8; stroke-linecap: square"/>
     </g>
     <g id="line2d_28">
      <g>
       <use xlink:href="#m197f624269" x="46.965625" y="76.040719" style="stroke: #000000; stroke-width: 0.8"/>
      </g>
     </g>
     <g id="text_15">
      <!-- 90 -->
      <g transform="translate(27.240625 79.839938) scale(0.1 -0.1)">
       <defs>
        <path id="DejaVuSans-39" d="M 703 97 
L 703 672 
Q 941 559 1184 500 
Q 1428 441 1663 441 
Q 2288 441 2617 861 
Q 2947 1281 2994 2138 
Q 2813 1869 2534 1725 
Q 2256 1581 1919 1581 
Q 1219 1581 811 2004 
Q 403 2428 403 3163 
Q 403 3881 828 4315 
Q 1253 4750 1959 4750 
Q 2769 4750 3195 4129 
Q 3622 3509 3622 2328 
Q 3622 1225 3098 567 
Q 2575 -91 1691 -91 
Q 1453 -91 1209 -44 
Q 966 3 703 97 
z
M 1959 2075 
Q 2384 2075 2632 2365 
Q 2881 2656 2881 3163 
Q 2881 3666 2632 3958 
Q 2384 4250 1959 4250 
Q 1534 4250 1286 3958 
Q 1038 3666 1038 3163 
Q 1038 2656 1286 2365 
Q 1534 2075 1959 2075 
z
" transform="scale(0.015625)"/>
       </defs>
       <use xlink:href="#DejaVuSans-39"/>
       <use xlink:href="#DejaVuSans-30" transform="translate(63.623047 0)"/>
      </g>
     </g>
    </g>
    <g id="ytick_7">
     <g id="line2d_29">
      <path d="M 46.965625 29.187823 
L 493.365625 29.187823 
" clip-path="url(#pa761cae8b0)" style="fill: none; stroke: #b0b0b0; stroke-width: 0.8; stroke-linecap: square"/>
     </g>
     <g id="line2d_30">
      <g>
       <use xlink:href="#m197f624269" x="46.965625" y="29.187823" style="stroke: #000000; stroke-width: 0.8"/>
      </g>
     </g>
     <g id="text_16">
      <!-- 100 -->
      <g transform="translate(20.878125 32.987042) scale(0.1 -0.1)">
       <use xlink:href="#DejaVuSans-31"/>
       <use xlink:href="#DejaVuSans-30" transform="translate(63.623047 0)"/>
       <use xlink:href="#DejaVuSans-30" transform="translate(127.246094 0)"/>
      </g>
     </g>
    </g>
    <g id="text_17">
     <!-- pLDDT -->
     <g transform="translate(14.798437 205.352187) rotate(-90) scale(0.1 -0.1)">
      <defs>
       <path id="DejaVuSans-70" d="M 1159 525 
L 1159 -1331 
L 581 -1331 
L 581 3500 
L 1159 3500 
L 1159 2969 
Q 1341 3281 1617 3432 
Q 1894 3584 2278 3584 
Q 2916 3584 3314 3078 
Q 3713 2572 3713 1747 
Q 3713 922 3314 415 
Q 2916 -91 2278 -91 
Q 1894 -91 1617 61 
Q 1341 213 1159 525 
z
M 3116 1747 
Q 3116 2381 2855 2742 
Q 2594 3103 2138 3103 
Q 1681 3103 1420 2742 
Q 1159 2381 1159 1747 
Q 1159 1113 1420 752 
Q 1681 391 2138 391 
Q 2594 391 2855 752 
Q 3116 1113 3116 1747 
z
" transform="scale(0.015625)"/>
       <path id="DejaVuSans-4c" d="M 628 4666 
L 1259 4666 
L 1259 531 
L 3531 531 
L 3531 0 
L 628 0 
L 628 4666 
z
" transform="scale(0.015625)"/>
       <path id="DejaVuSans-44" d="M 1259 4147 
L 1259 519 
L 2022 519 
Q 2988 519 3436 956 
Q 3884 1394 3884 2338 
Q 3884 3275 3436 3711 
Q 2988 4147 2022 4147 
L 1259 4147 
z
M 628 4666 
L 1925 4666 
Q 3281 4666 3915 4102 
Q 4550 3538 4550 2338 
Q 4550 1131 3912 565 
Q 3275 0 1925 0 
L 628 0 
L 628 4666 
z
" transform="scale(0.015625)"/>
       <path id="DejaVuSans-54" d="M -19 4666 
L 3928 4666 
L 3928 4134 
L 2272 4134 
L 2272 0 
L 1638 0 
L 1638 4134 
L -19 4134 
L -19 4666 
z
" transform="scale(0.015625)"/>
      </defs>
      <use xlink:href="#DejaVuSans-70"/>
      <use xlink:href="#DejaVuSans-4c" transform="translate(63.476562 0)"/>
      <use xlink:href="#DejaVuSans-44" transform="translate(119.189453 0)"/>
      <use xlink:href="#DejaVuSans-44" transform="translate(196.191406 0)"/>
      <use xlink:href="#DejaVuSans-54" transform="translate(273.193359 0)"/>
     </g>
    </g>
   </g>
   <g id="line2d_31">
    <path d="M 67.256534 339.838125 
L 67.552536 294.914079 
L 68.144539 253.852147 
L 68.44054 239.813222 
L 68.736542 208.461313 
L 69.328545 57.658343 
L 69.624547 43.915036 
L 69.920548 39.316109 
L 70.21655 37.662359 
L 70.512552 38.985709 
L 70.808553 39.636178 
L 71.400556 45.138976 
L 71.696558 56.050205 
L 71.99256 56.800726 
L 72.288561 47.212026 
L 72.880564 39.999642 
L 73.176566 39.02771 
L 73.472568 38.649447 
L 73.768569 38.089523 
L 74.064571 38.467608 
L 74.360572 38.398189 
L 74.952575 50.873409 
L 75.544579 42.458854 
L 76.136582 39.400326 
L 76.432583 42.740532 
L 76.728585 43.219063 
L 77.024587 45.195812 
L 77.320588 44.307205 
L 77.61659 44.669704 
L 78.208593 43.546317 
L 78.504595 42.267864 
L 78.800596 45.454327 
L 79.096598 45.135974 
L 79.392599 44.325614 
L 79.984603 50.441527 
L 80.280604 45.043392 
L 80.576606 45.45926 
L 80.872607 48.691978 
L 81.46461 39.828705 
L 81.760612 39.862807 
L 82.056614 37.752367 
L 82.352615 38.853449 
L 82.648617 39.140668 
L 82.944618 37.681483 
L 83.536622 40.847428 
L 83.832623 43.505316 
L 84.128625 50.918127 
L 84.720628 56.518441 
L 85.01663 59.546692 
L 85.608633 51.310474 
L 85.904634 63.643533 
L 86.496638 55.708474 
L 86.792639 61.476686 
L 87.088641 64.363134 
L 87.384642 52.48269 
L 87.680644 54.772538 
L 87.976645 56.042126 
L 88.272647 54.935611 
L 88.568649 50.035131 
L 89.160652 57.554143 
L 89.752655 45.526462 
L 90.048657 46.903502 
L 90.64066 43.555611 
L 90.936661 43.159546 
L 91.232663 42.106721 
L 91.528665 39.932726 
L 91.824666 41.328425 
L 92.120668 41.082744 
L 92.416669 38.649054 
L 92.712671 39.070355 
L 93.008673 41.100331 
L 93.304674 39.292016 
L 93.600676 39.802146 
L 93.896677 42.135461 
L 94.192679 43.313647 
L 94.488681 40.236816 
L 95.080684 43.734555 
L 95.376685 43.642581 
L 95.672687 45.143087 
L 95.968688 42.613563 
L 96.26469 47.361622 
L 96.560692 42.33764 
L 96.856693 41.754159 
L 97.152695 42.264003 
L 97.448696 43.458132 
L 97.744698 44.108564 
L 98.0407 43.266033 
L 98.336701 46.902537 
L 98.632703 45.195312 
L 98.928704 44.967539 
L 99.224706 51.219429 
L 99.520708 46.869723 
L 99.816709 47.087022 
L 100.112711 45.723815 
L 100.704714 50.488926 
L 101.296717 44.057627 
L 101.592719 43.385853 
L 102.184722 49.141841 
L 102.480723 42.17521 
L 102.776725 44.385095 
L 103.072727 44.434174 
L 103.368728 45.820723 
L 103.66473 48.524258 
L 103.960731 47.61692 
L 104.256733 48.976337 
L 104.552735 44.146634 
L 104.848736 46.93739 
L 105.144738 45.219798 
L 105.440739 44.162255 
L 105.736741 42.367631 
L 106.032743 43.856985 
L 106.328744 46.548939 
L 106.624746 44.706236 
L 106.920747 46.520235 
L 107.216749 40.517994 
L 107.512751 46.568027 
L 107.808752 42.586575 
L 108.104754 41.463044 
L 108.400755 43.015347 
L 108.696757 41.251679 
L 108.992758 41.095076 
L 109.28876 39.560539 
L 109.584762 41.920521 
L 109.880763 42.735099 
L 110.176765 42.245129 
L 110.472766 44.930399 
L 110.768768 46.035377 
L 111.06477 45.023446 
L 111.360771 51.764376 
L 111.656773 45.660974 
L 112.248776 39.621093 
L 112.544778 42.61846 
L 112.840779 39.742343 
L 113.136781 41.33536 
L 113.432782 39.204546 
L 113.728784 38.710108 
L 114.024786 39.910242 
L 114.320787 38.87554 
L 114.616789 39.001687 
L 114.91279 38.579099 
L 115.208792 38.482406 
L 115.504793 42.055426 
L 115.800795 41.440453 
L 116.096797 42.873507 
L 116.392798 46.490816 
L 116.6888 48.207978 
L 116.984801 51.770703 
L 117.576805 66.823633 
L 117.872806 65.028902 
L 118.168808 94.955674 
L 118.464809 85.343846 
L 118.760811 92.981999 
L 119.056813 81.321143 
L 119.352814 82.544797 
L 119.648816 84.851374 
L 119.944817 106.29446 
L 120.240819 139.555863 
L 120.536821 156.398948 
L 120.832822 114.955483 
L 121.128824 98.46142 
L 121.720827 57.551427 
L 122.31283 65.514296 
L 122.608832 61.20323 
L 122.904833 52.966333 
L 123.200835 56.415457 
L 123.496836 57.337559 
L 123.792838 52.485157 
L 124.08884 53.080398 
L 124.384841 60.544218 
L 124.680843 59.628586 
L 124.976844 55.454499 
L 125.272846 64.90254 
L 125.568848 81.329972 
L 125.864849 83.081629 
L 126.160851 71.433463 
L 126.456852 91.056223 
L 126.752854 93.977452 
L 127.048856 74.924875 
L 127.640859 59.472555 
L 127.93686 61.717507 
L 128.232862 67.578837 
L 128.528864 69.213498 
L 128.824865 74.992828 
L 129.120867 60.089602 
L 129.71287 55.245135 
L 130.008871 58.257694 
L 130.600875 52.528374 
L 130.896876 54.905406 
L 131.488879 61.624138 
L 131.784881 62.90159 
L 132.376884 58.714134 
L 132.672886 53.554103 
L 132.968887 53.586417 
L 133.264889 57.417165 
L 133.560891 50.530713 
L 133.856892 47.956363 
L 134.152894 48.201151 
L 134.448895 49.55131 
L 134.744897 49.409864 
L 135.040899 49.860262 
L 135.3369 52.200834 
L 135.632902 50.931996 
L 135.928903 54.82437 
L 136.224905 66.575807 
L 136.520906 69.444095 
L 136.816908 60.186759 
L 137.11291 56.489737 
L 137.408911 59.152701 
L 137.704913 57.904989 
L 138.000914 52.650696 
L 138.296916 49.932683 
L 138.592918 49.494796 
L 139.480922 47.070436 
L 139.776924 51.163666 
L 140.072926 46.301112 
L 140.368927 50.612535 
L 140.664929 50.487889 
L 140.96093 54.292757 
L 141.552934 56.506859 
L 141.848935 54.512094 
L 142.144937 48.993924 
L 142.440938 53.209083 
L 142.73694 50.232913 
L 143.032941 62.93394 
L 143.328943 61.466534 
L 143.624945 56.908536 
L 144.216948 73.01522 
L 144.512949 75.923258 
L 144.808951 88.454957 
L 145.400954 76.588311 
L 145.696956 60.553584 
L 145.992957 52.713716 
L 146.288959 59.792267 
L 146.584961 59.491215 
L 146.880962 71.260274 
L 147.176964 77.358886 
L 147.768967 96.434662 
L 148.36097 75.299849 
L 148.656972 91.021299 
L 148.952973 88.862389 
L 149.248975 82.865974 
L 149.544977 67.432064 
L 149.840978 80.043512 
L 150.13698 83.054069 
L 150.432981 69.021364 
L 150.728983 72.425913 
L 151.024984 82.773464 
L 151.616988 71.619949 
L 151.912989 82.110055 
L 152.208991 82.860255 
L 152.504992 90.287757 
L 152.800994 67.144059 
L 153.096996 70.867248 
L 153.392997 71.505348 
L 153.688999 65.589255 
L 153.985 62.802109 
L 154.281002 68.644995 
L 154.577004 57.189821 
L 154.873005 52.073721 
L 155.169007 59.114095 
L 155.465008 61.033473 
L 155.76101 57.836 
L 156.057012 57.151144 
L 156.353013 64.349729 
L 156.649015 60.364202 
L 156.945016 62.877283 
L 157.241018 70.052169 
L 157.833021 71.311498 
L 158.129023 79.319014 
L 158.425024 78.870224 
L 158.721026 76.231567 
L 159.313029 150.801816 
L 159.609031 159.199105 
L 159.905032 157.996577 
L 160.201034 169.965634 
L 160.497035 136.956598 
L 160.793037 79.255493 
L 161.089039 68.691858 
L 161.38504 52.659418 
L 161.681042 60.527096 
L 162.273045 44.949201 
L 162.865048 51.507005 
L 163.16105 46.596266 
L 163.457051 46.699393 
L 163.753053 50.637772 
L 164.049054 50.425191 
L 164.345056 43.73098 
L 164.641058 45.650536 
L 164.937059 45.997522 
L 165.233061 42.289311 
L 165.529062 44.499089 
L 165.825064 42.184719 
L 166.121066 42.080269 
L 166.417067 41.425869 
L 166.713069 43.819737 
L 167.00907 44.122041 
L 167.305072 42.477407 
L 167.601074 43.992855 
L 167.897075 43.284835 
L 168.193077 43.519543 
L 168.78508 48.266244 
L 169.081082 43.54814 
L 169.377083 44.260199 
L 169.673085 43.831355 
L 169.969086 52.725548 
L 170.265088 50.973748 
L 170.561089 44.777514 
L 171.153093 47.840224 
L 171.449094 47.076584 
L 171.745096 44.355891 
L 172.041097 45.839418 
L 172.337099 48.136594 
L 172.633101 45.147555 
L 172.929102 50.549694 
L 173.225104 51.589328 
L 173.521105 50.476236 
L 173.817107 44.922571 
L 174.113109 46.093929 
L 174.705112 43.57881 
L 175.297115 48.043154 
L 175.593117 50.418256 
L 175.889118 56.417959 
L 176.481121 61.130094 
L 176.777123 53.832921 
L 177.073125 55.373892 
L 177.369126 50.72274 
L 177.665128 59.183335 
L 177.961129 52.903885 
L 178.257131 43.400545 
L 178.849134 50.398489 
L 179.145136 44.352852 
L 179.441137 43.783991 
L 179.737139 44.476283 
L 180.03314 45.825656 
L 180.329142 44.173229 
L 180.625144 44.056161 
L 180.921145 49.571006 
L 181.217147 49.329185 
L 181.513148 46.754585 
L 181.80915 49.549773 
L 182.105152 49.472812 
L 182.401153 48.395108 
L 182.697155 46.074269 
L 182.993156 51.911328 
L 183.289158 44.499982 
L 183.58516 47.230399 
L 183.881161 53.879677 
L 184.177163 48.282008 
L 184.473164 49.037463 
L 184.769166 60.190048 
L 185.065167 58.542375 
L 186.249174 43.450661 
L 186.545175 47.834898 
L 186.841177 47.371989 
L 187.43318 63.254689 
L 188.025183 86.627768 
L 188.321185 75.341279 
L 188.617187 69.434479 
L 188.913188 74.608809 
L 189.505191 64.151697 
L 189.801193 62.709206 
L 190.097195 52.082122 
L 190.689198 56.485769 
L 190.985199 47.426358 
L 191.281201 47.592684 
L 191.577202 46.384114 
L 191.873204 44.147992 
L 192.169206 40.937579 
L 192.465207 43.833035 
L 192.761209 42.513689 
L 193.05721 40.241749 
L 193.353212 40.947552 
L 193.649214 44.860909 
L 193.945215 42.778959 
L 194.241217 41.85003 
L 194.537218 49.997527 
L 194.83322 48.876499 
L 195.129222 43.528015 
L 195.425223 41.500578 
L 195.721225 44.575192 
L 196.017226 45.989515 
L 196.313228 42.182503 
L 196.60923 44.986055 
L 196.905231 44.444683 
L 197.201233 40.892003 
L 197.497234 44.139342 
L 197.793236 45.159924 
L 198.089237 44.054767 
L 198.681241 40.71499 
L 198.977242 44.435818 
L 199.273244 43.174238 
L 199.569245 44.199109 
L 199.865247 45.90351 
L 200.161249 45.704084 
L 200.45725 55.646669 
L 200.753252 52.924617 
L 201.049253 64.084101 
L 201.345255 81.203181 
L 201.937258 56.599298 
L 202.23326 59.820613 
L 202.825263 49.359355 
L 203.121265 56.668288 
L 203.417266 57.986133 
L 203.713268 64.859895 
L 204.009269 63.234528 
L 204.305271 56.65903 
L 204.897274 62.760823 
L 205.193276 52.597042 
L 205.489277 55.885095 
L 205.785279 54.921242 
L 206.08128 50.377291 
L 206.377282 52.656987 
L 206.673284 52.145857 
L 206.969285 53.928005 
L 207.265287 57.084478 
L 207.85729 48.087765 
L 208.153292 46.734996 
L 208.449293 46.177145 
L 208.745295 47.256672 
L 209.041296 50.090144 
L 209.337298 49.212403 
L 209.6333 47.687303 
L 209.929301 54.067128 
L 210.225303 50.705653 
L 210.521304 49.240106 
L 210.817306 49.816902 
L 211.113308 50.972604 
L 211.409309 60.735781 
L 211.705311 61.106573 
L 212.001312 56.534741 
L 212.297314 55.65843 
L 212.889317 70.985316 
L 213.185319 62.783307 
L 213.48132 69.892135 
L 213.777322 82.417828 
L 214.073323 78.656213 
L 214.665327 92.494282 
L 214.961328 80.241509 
L 215.25733 79.085128 
L 215.553331 66.075971 
L 215.849333 65.318229 
L 216.145335 84.499349 
L 216.737338 59.304728 
L 217.033339 74.774527 
L 217.625343 56.251097 
L 217.921344 59.189555 
L 218.513347 49.469667 
L 218.809349 55.369102 
L 219.10535 55.498073 
L 219.697354 48.835784 
L 219.993355 47.955934 
L 220.289357 51.473226 
L 220.585358 50.059153 
L 220.88136 50.311555 
L 221.177362 49.993309 
L 221.473363 49.411401 
L 221.769365 52.253202 
L 222.065366 48.600433 
L 222.361368 48.672211 
L 222.65737 49.276603 
L 222.953371 53.696908 
L 223.249373 52.687443 
L 223.545374 56.969233 
L 223.841376 58.952452 
L 224.137378 55.38769 
L 224.433379 54.368717 
L 224.729381 58.658049 
L 225.025382 58.855545 
L 225.617385 79.408092 
L 225.913387 84.261281 
L 226.209389 77.501798 
L 226.50539 94.030427 
L 226.801392 73.11706 
L 227.097393 62.192355 
L 227.689397 53.989131 
L 227.985398 52.859595 
L 228.2814 56.32981 
L 228.577401 51.478802 
L 228.873403 53.023133 
L 229.169405 52.350752 
L 229.465406 47.032688 
L 229.761408 50.985866 
L 230.057409 51.708326 
L 230.649413 48.88472 
L 230.945414 54.123321 
L 231.241416 55.593015 
L 231.537417 51.714618 
L 231.833419 51.061933 
L 232.129421 52.63579 
L 232.425422 57.045729 
L 233.017425 73.876018 
L 233.313427 68.60428 
L 233.609428 57.919824 
L 233.90543 60.726272 
L 234.201432 58.311742 
L 234.497433 62.88 
L 234.793435 57.653302 
L 235.089436 57.049196 
L 235.385438 57.074218 
L 235.68144 58.129009 
L 235.977441 61.01156 
L 236.273443 56.530451 
L 236.865446 65.227184 
L 237.161448 60.383219 
L 237.457449 62.612048 
L 237.753451 60.659606 
L 238.049452 59.944759 
L 238.345454 64.168354 
L 238.641456 75.828388 
L 238.937457 66.394789 
L 239.233459 60.533923 
L 239.52946 61.131881 
L 239.825462 58.709416 
L 240.417465 67.78695 
L 240.713467 66.723509 
L 241.009468 74.042415 
L 241.30547 77.603781 
L 241.601471 67.284827 
L 241.897473 64.108623 
L 242.193475 73.833694 
L 242.489476 58.676029 
L 242.785478 56.681478 
L 243.081479 50.248856 
L 243.377481 60.266901 
L 243.673483 53.307277 
L 243.969484 50.71459 
L 244.265486 57.317041 
L 244.561487 57.903023 
L 244.857489 54.894432 
L 245.153491 56.758582 
L 245.449492 65.229079 
L 245.745494 58.411795 
L 246.041495 59.766494 
L 246.337497 57.652337 
L 246.633498 54.593773 
L 246.9295 53.503844 
L 247.521503 52.532806 
L 247.817505 52.739525 
L 248.113506 54.319816 
L 248.409508 52.483227 
L 248.70551 62.140917 
L 249.001511 58.86223 
L 249.297513 52.062819 
L 249.593514 55.446564 
L 249.889516 51.383253 
L 250.185518 50.303404 
L 250.481519 48.433571 
L 250.777521 48.807795 
L 251.073522 52.127948 
L 251.369524 51.970594 
L 251.665526 52.408589 
L 251.961527 57.331947 
L 252.55353 60.30783 
L 252.849532 66.636432 
L 253.145533 76.272353 
L 253.441535 75.375845 
L 253.737537 91.062014 
L 254.32954 76.444148 
L 254.625541 80.467065 
L 255.217545 63.277709 
L 255.513546 64.298934 
L 255.809548 67.546094 
L 256.105549 68.155347 
L 256.401551 56.247058 
L 256.697553 62.812547 
L 256.993554 56.58071 
L 257.585557 59.202781 
L 257.881559 59.028841 
L 258.177561 55.271802 
L 258.473562 55.797267 
L 258.769564 62.232641 
L 259.065565 63.842137 
L 259.361567 64.392874 
L 259.657569 60.317232 
L 259.95357 61.244981 
L 260.249572 68.842491 
L 260.545573 64.770602 
L 260.841575 62.34424 
L 261.433578 81.518675 
L 261.72958 76.503522 
L 262.025581 79.97295 
L 262.321583 70.371023 
L 262.617584 78.54658 
L 262.913586 76.060129 
L 263.209588 64.081885 
L 263.505589 62.966755 
L 263.801591 64.574392 
L 264.097592 50.653321 
L 264.393594 49.232528 
L 264.689596 46.769384 
L 264.985597 52.668498 
L 265.281599 52.794359 
L 265.5776 49.578835 
L 265.873602 50.53082 
L 266.169604 53.336267 
L 266.465605 52.350216 
L 266.761607 49.982442 
L 267.057608 52.206339 
L 267.35361 56.464071 
L 267.649611 56.00949 
L 267.945613 58.128294 
L 268.241615 48.967401 
L 268.537616 48.7323 
L 268.833618 46.887024 
L 269.129619 50.854821 
L 269.425621 48.487762 
L 269.721623 48.504348 
L 270.017624 51.125847 
L 270.313626 51.610311 
L 270.609627 50.706261 
L 270.905629 51.903285 
L 271.201631 58.299374 
L 271.497632 71.580629 
L 271.793634 75.100459 
L 272.089635 72.16604 
L 272.385637 58.161681 
L 272.681639 55.514624 
L 273.273642 53.300807 
L 273.569643 63.237352 
L 273.865645 57.47518 
L 274.161646 58.058196 
L 274.457648 60.79662 
L 274.75365 70.401585 
L 275.049651 66.376702 
L 275.345653 75.866315 
L 276.233658 54.51817 
L 276.529659 54.952448 
L 276.825661 63.811539 
L 277.121662 67.082291 
L 277.417664 59.915412 
L 277.713666 64.41375 
L 278.009667 79.30686 
L 278.305669 80.054379 
L 278.60167 73.470301 
L 279.193674 123.562636 
L 279.489675 196.127039 
L 279.785677 204.118183 
L 280.081678 206.208426 
L 280.37768 153.848155 
L 280.673681 142.400023 
L 280.969683 77.190844 
L 281.265685 73.421794 
L 281.561686 67.442824 
L 281.857688 73.461651 
L 282.153689 72.3225 
L 282.449691 68.82923 
L 282.745693 70.414525 
L 283.041694 75.890122 
L 283.337696 78.676266 
L 283.633697 85.772368 
L 283.929699 80.477146 
L 284.225701 71.193751 
L 284.817704 64.452248 
L 285.113705 61.239047 
L 285.409707 54.364284 
L 285.705709 51.555513 
L 286.00171 55.643917 
L 286.297712 49.848395 
L 286.593713 49.538549 
L 286.889715 44.094659 
L 287.185717 44.427847 
L 287.481718 43.490267 
L 287.77772 43.014453 
L 288.073721 40.01126 
L 288.369723 40.091366 
L 288.665724 42.066507 
L 288.961726 41.453536 
L 289.257728 39.478395 
L 289.553729 41.883488 
L 290.145732 43.859451 
L 290.441734 43.402475 
L 290.737736 50.10169 
L 291.033737 51.550615 
L 291.329739 49.350418 
L 291.62574 44.832133 
L 291.921742 42.105863 
L 292.217744 46.184294 
L 292.809747 40.07839 
L 293.105748 43.164979 
L 293.40175 43.085337 
L 294.289755 79.584141 
L 294.585756 95.583194 
L 295.177759 167.358756 
L 295.473761 150.394384 
L 295.769763 193.516478 
L 296.065764 186.767934 
L 296.361766 186.854475 
L 296.657767 193.984964 
L 296.953769 153.040583 
L 297.545772 129.397479 
L 298.137775 86.703013 
L 298.433777 86.003608 
L 298.729779 72.892326 
L 299.02578 65.829896 
L 299.321782 67.005044 
L 299.617783 72.804677 
L 299.913785 63.578797 
L 300.209787 58.244576 
L 300.505788 60.194802 
L 300.80179 58.730363 
L 301.097791 56.254958 
L 301.689794 58.944088 
L 301.985796 60.812062 
L 302.577799 54.518456 
L 302.873801 57.863882 
L 303.169802 54.487179 
L 303.761806 60.098502 
L 304.057807 60.147689 
L 304.64981 54.308592 
L 304.945812 61.335097 
L 305.241814 74.054962 
L 305.537815 70.384785 
L 305.833817 81.15782 
L 306.129818 76.22263 
L 306.42582 64.287317 
L 306.721822 64.796446 
L 307.017823 75.089949 
L 307.905828 56.54618 
L 308.201829 57.667029 
L 308.497831 54.585409 
L 308.793833 50.137829 
L 309.089834 50.446138 
L 309.385836 51.532028 
L 309.681837 49.959314 
L 309.977839 47.231221 
L 310.273841 47.640726 
L 310.569842 51.473118 
L 310.865844 50.971817 
L 311.457847 52.851124 
L 311.753849 57.022673 
L 312.345852 69.286134 
L 312.641853 56.205878 
L 313.233857 50.445995 
L 313.82586 57.905204 
L 314.121861 56.639905 
L 314.417863 54.487107 
L 315.009866 69.0624 
L 315.305868 65.324592 
L 315.601869 60.060826 
L 315.897871 60.349439 
L 316.193872 55.189586 
L 316.489874 60.123703 
L 316.785876 51.784108 
L 317.081877 53.714745 
L 317.377879 57.173878 
L 317.67388 64.393983 
L 317.969882 65.264467 
L 318.265884 76.067278 
L 318.857887 66.76576 
L 319.153888 64.723917 
L 319.44989 59.467515 
L 319.745892 66.826421 
L 320.041893 61.689303 
L 320.337895 58.731256 
L 320.929898 49.811255 
L 321.2259 50.374181 
L 321.521901 50.644885 
L 321.817903 50.586548 
L 322.113904 54.143267 
L 322.705907 100.088896 
L 323.001909 124.788686 
L 323.297911 122.245613 
L 323.593912 125.060605 
L 323.889914 133.909365 
L 324.185915 137.005391 
L 324.481917 108.562682 
L 324.777919 111.261999 
L 325.369922 74.386112 
L 325.665923 58.110243 
L 325.961925 62.21677 
L 326.257927 60.966699 
L 326.553928 57.737198 
L 326.84993 57.937554 
L 327.145931 54.732146 
L 327.441933 54.357993 
L 328.033936 58.450151 
L 328.329938 52.506175 
L 328.625939 52.37892 
L 328.921941 55.076808 
L 329.217942 53.932759 
L 329.513944 48.311213 
L 329.809946 54.273025 
L 330.105947 50.980504 
L 330.401949 49.66609 
L 330.69795 51.75644 
L 330.993952 58.687897 
L 331.289954 52.069968 
L 331.585955 52.359939 
L 331.881957 51.101468 
L 332.177958 50.727852 
L 332.47396 53.836567 
L 332.769962 58.658978 
L 333.361965 56.666393 
L 333.657966 50.105908 
L 333.953968 54.103554 
L 334.24997 53.584308 
L 334.545971 53.351745 
L 334.841973 51.785073 
L 335.137974 57.673249 
L 335.433976 59.616754 
L 335.729977 58.771363 
L 336.025979 57.313931 
L 336.321981 62.19593 
L 336.617982 61.022463 
L 336.913984 57.97305 
L 337.209985 64.484884 
L 337.505987 64.75902 
L 337.801989 65.438085 
L 338.09799 61.974842 
L 338.689993 59.968566 
L 338.985995 57.061922 
L 339.281997 62.973154 
L 339.577998 63.728965 
L 339.874 64.053431 
L 340.170001 67.927717 
L 340.466003 63.019981 
L 340.762005 63.479209 
L 341.058006 72.576224 
L 341.354008 75.51411 
L 341.946011 84.280655 
L 342.242013 87.652568 
L 342.538014 85.126225 
L 342.834016 63.70548 
L 343.130017 69.418358 
L 343.426019 71.914424 
L 344.018022 51.800837 
L 344.314024 60.587328 
L 344.610025 57.329444 
L 344.906027 51.299071 
L 345.202028 51.993758 
L 345.49803 59.3532 
L 345.794032 62.236216 
L 346.090033 53.738337 
L 346.386035 51.611491 
L 346.682036 59.842418 
L 346.978038 56.670969 
L 347.27404 62.062348 
L 347.570041 62.392497 
L 347.866043 67.859443 
L 348.162044 63.592452 
L 348.458046 76.3501 
L 348.754048 69.906469 
L 349.050049 68.260369 
L 349.346051 57.304994 
L 349.642052 57.633535 
L 349.938054 53.078182 
L 350.234055 46.224258 
L 350.826059 43.887547 
L 351.418062 50.136292 
L 351.714063 51.420608 
L 352.010065 58.183808 
L 352.602068 56.311579 
L 352.89807 49.118356 
L 353.194071 49.809432 
L 353.490073 48.239828 
L 353.786075 51.297391 
L 354.082076 45.788623 
L 354.674079 52.054812 
L 354.970081 54.631092 
L 355.266083 47.997971 
L 355.562084 50.276416 
L 355.858086 44.343951 
L 356.154087 47.853272 
L 356.450089 49.880566 
L 356.74609 45.972321 
L 357.042092 55.584722 
L 357.338094 44.743484 
L 357.634095 42.185219 
L 357.930097 45.760026 
L 358.226098 41.419041 
L 358.5221 40.349166 
L 358.818102 46.034448 
L 359.114103 44.213765 
L 359.410105 39.078255 
L 359.706106 37.438125 
L 360.002108 42.223467 
L 360.594111 38.045091 
L 360.890113 38.949749 
L 361.186114 43.099314 
L 361.482116 40.642533 
L 361.778118 39.953923 
L 362.074119 41.723525 
L 362.370121 44.73898 
L 362.666122 45.996843 
L 362.962124 43.642259 
L 363.258125 50.080922 
L 363.554127 52.425461 
L 363.850129 52.086375 
L 364.738133 59.213826 
L 365.034135 58.723893 
L 365.330137 59.248714 
L 365.626138 58.811435 
L 365.92214 61.323372 
L 366.218141 65.159732 
L 366.514143 67.068207 
L 366.810145 61.439403 
L 367.106146 71.956998 
L 367.402148 90.706878 
L 367.698149 95.985121 
L 367.994151 86.695685 
L 368.290153 92.109834 
L 368.586154 78.649635 
L 368.882156 73.535359 
L 369.178157 71.33913 
L 369.770161 68.963884 
L 370.066162 72.797956 
L 370.362164 70.835791 
L 370.658165 72.397602 
L 371.54617 105.809352 
L 371.842172 129.215068 
L 372.138173 131.393639 
L 372.434175 138.835582 
L 372.730176 152.888878 
L 373.026178 206.618414 
L 373.32218 209.245292 
L 373.618181 231.460651 
L 373.914183 217.679167 
L 374.210184 187.773038 
L 374.506186 135.287263 
L 374.802188 133.975567 
L 375.098189 125.703495 
L 375.394191 148.109576 
L 375.690192 133.709403 
L 376.874199 54.805925 
L 377.1702 61.074044 
L 377.466202 59.029449 
L 377.762203 53.289619 
L 378.354207 55.264653 
L 378.94621 68.127716 
L 379.834215 92.203524 
L 380.130216 94.916604 
L 380.426218 82.396452 
L 381.018221 70.320442 
L 381.314223 72.224913 
L 381.610224 61.684048 
L 381.906226 61.866174 
L 382.202227 57.880646 
L 382.498229 50.100582 
L 382.794231 47.132741 
L 383.090232 51.472618 
L 383.386234 53.403362 
L 383.682235 62.865451 
L 383.978237 79.038372 
L 384.274238 76.010871 
L 385.458245 49.29805 
L 385.754246 48.933084 
L 386.050248 48.894264 
L 386.34625 45.402352 
L 386.642251 50.418042 
L 386.938253 50.799486 
L 387.530256 43.371305 
L 387.826258 43.621598 
L 388.122259 45.270092 
L 388.418261 41.809315 
L 388.714262 40.873344 
L 389.010264 44.132193 
L 389.306266 43.294666 
L 389.602267 43.031147 
L 389.898269 43.398293 
L 390.19427 45.370717 
L 390.490272 46.402952 
L 390.786273 45.068557 
L 391.082275 44.365721 
L 391.378277 40.72532 
L 391.674278 39.016772 
L 391.97028 38.315437 
L 392.266281 39.030248 
L 392.562283 38.076404 
L 392.858285 38.339923 
L 393.154286 41.290427 
L 393.450288 49.594241 
L 393.746289 41.428621 
L 394.042291 45.209718 
L 394.338293 42.430472 
L 394.634294 53.017771 
L 394.930296 50.964633 
L 395.226297 45.395346 
L 395.522299 46.918444 
L 395.818301 56.864032 
L 396.114302 56.611773 
L 396.706305 48.517216 
L 397.002307 49.272564 
L 397.298309 49.30284 
L 397.59431 48.65634 
L 397.890312 55.385402 
L 398.186313 57.413197 
L 398.482315 57.12941 
L 398.778316 57.525475 
L 399.074318 55.114448 
L 399.37032 48.492587 
L 399.666321 45.200495 
L 399.962323 44.376051 
L 400.258324 45.908372 
L 400.554326 48.611907 
L 401.146329 54.947693 
L 401.442331 45.938291 
L 401.738332 45.746371 
L 402.034334 48.836249 
L 402.330336 45.393666 
L 402.626337 46.372032 
L 402.922339 45.750482 
L 403.21834 45.60807 
L 403.514342 44.930006 
L 404.106345 52.068896 
L 404.402347 53.475069 
L 404.698348 48.00966 
L 404.99435 49.523357 
L 405.290351 41.662435 
L 405.586353 41.639451 
L 405.882355 39.029605 
L 406.178356 38.340996 
L 406.474358 39.802503 
L 406.770359 40.322106 
L 407.362363 45.753949 
L 407.658364 43.770623 
L 407.954366 49.491507 
L 408.546369 55.390871 
L 408.842371 80.371374 
L 409.138372 94.057379 
L 409.434374 81.595135 
L 409.730375 73.862363 
L 410.026377 72.59996 
L 410.914382 54.6317 
L 411.210383 52.299636 
L 411.506385 51.511366 
L 411.802386 47.185574 
L 412.098388 48.674391 
L 412.39439 42.982711 
L 412.690391 42.232118 
L 412.986393 40.231311 
L 413.282394 39.002331 
L 413.578396 43.176096 
L 413.874398 43.113898 
L 414.170399 43.64712 
L 414.466401 43.183639 
L 414.762402 42.359123 
L 415.058404 41.895499 
L 415.354406 43.398436 
L 415.650407 41.415252 
L 416.24241 43.433538 
L 416.538412 43.842436 
L 416.834414 43.216739 
L 417.130415 43.619596 
L 417.426417 44.528186 
L 417.722418 42.41721 
L 418.610423 46.551298 
L 419.202426 51.387507 
L 419.498428 46.901536 
L 420.090431 48.131804 
L 420.386433 47.646517 
L 420.682434 46.82218 
L 420.978436 52.386212 
L 421.274437 52.82578 
L 421.570439 52.231218 
L 421.866441 44.057805 
L 422.754445 37.796442 
L 423.346449 41.266871 
L 423.64245 41.373715 
L 423.938452 37.699857 
L 424.234453 37.657248 
L 424.530455 37.439197 
L 424.826457 38.272185 
L 425.122458 42.046311 
L 425.41846 49.135764 
L 425.714461 53.441146 
L 426.010463 49.020948 
L 426.306464 42.023004 
L 426.602466 37.969238 
L 427.194469 38.104072 
L 427.490471 40.599566 
L 427.786472 44.676496 
L 428.378476 49.454403 
L 428.970479 44.438249 
L 429.26648 40.367003 
L 429.562482 39.00587 
L 429.858484 40.285467 
L 430.154485 39.412122 
L 430.450487 39.028354 
L 430.746488 40.243537 
L 431.04249 39.991135 
L 431.634493 41.988224 
L 432.226496 48.883255 
L 432.522498 49.922567 
L 432.818499 42.87533 
L 433.114501 42.710434 
L 433.410503 46.107691 
L 434.002506 41.969493 
L 434.594509 46.425937 
L 434.890511 44.558427 
L 435.186512 46.098933 
L 435.778515 61.133132 
L 436.074517 78.017254 
L 436.66652 80.734016 
L 436.962522 90.525861 
L 437.258523 89.455449 
L 437.554525 85.598786 
L 438.146528 73.471553 
L 438.738531 65.909788 
L 439.626536 49.876598 
L 439.922538 51.246203 
L 440.218539 49.182198 
L 440.514541 48.539736 
L 440.810542 46.156162 
L 441.106544 47.961796 
L 441.402546 45.398349 
L 441.698547 40.0889 
L 441.994549 47.984709 
L 442.882554 40.831879 
L 443.178555 42.977385 
L 443.474557 41.280133 
L 443.770558 38.926442 
L 444.362562 43.573948 
L 444.658563 40.403142 
L 444.954565 40.255833 
L 445.250566 43.104176 
L 445.546568 41.750048 
L 445.842569 41.238346 
L 446.138571 41.053646 
L 446.730574 45.85436 
L 447.026576 44.603824 
L 447.322577 44.294622 
L 447.618579 43.704278 
L 447.914581 45.101979 
L 448.210582 48.198077 
L 448.506584 44.570259 
L 448.802585 45.783797 
L 449.098587 45.971713 
L 449.69059 44.923321 
L 449.986592 45.468125 
L 450.282593 45.259404 
L 450.578595 43.224818 
L 451.170598 45.905619 
L 451.4666 46.505901 
L 451.762601 50.174254 
L 452.058603 46.320272 
L 452.354605 56.061679 
L 452.650606 54.811323 
L 452.946608 47.622031 
L 453.242609 47.212168 
L 453.834612 49.272849 
L 454.130614 45.514058 
L 454.426616 44.057662 
L 454.722617 43.77863 
L 455.018619 45.780794 
L 455.31462 44.934474 
L 455.906624 42.930379 
L 456.202625 43.700632 
L 456.794628 41.863041 
L 457.09063 42.429471 
L 457.386632 42.059108 
L 457.682633 40.625553 
L 457.978635 42.020288 
L 458.274636 42.575172 
L 458.570638 46.177717 
L 458.86664 43.045624 
L 459.162641 44.277964 
L 459.458643 46.133285 
L 459.754644 43.279545 
L 460.050646 47.214063 
L 460.346647 46.910723 
L 460.642649 44.866307 
L 461.234652 54.075922 
L 461.530654 47.61288 
L 461.826655 44.589383 
L 462.418659 48.35972 
L 462.71466 51.383575 
L 463.010662 46.71959 
L 463.306663 52.264712 
L 463.602665 45.000568 
L 463.898667 54.295044 
L 464.194668 49.127471 
L 464.49067 46.686882 
L 464.786671 45.6905 
L 465.082673 48.006943 
L 465.378675 43.995786 
L 465.674676 43.777736 
L 465.970678 44.290082 
L 466.266679 40.580406 
L 466.562681 39.637715 
L 466.858682 38.167628 
L 467.154684 38.753646 
L 467.450686 39.022742 
L 467.746687 38.831072 
L 468.33869 43.207982 
L 468.930694 39.459128 
L 469.522697 41.943362 
L 469.818698 40.717706 
L 470.1147 40.16872 
L 470.410702 42.202699 
L 470.706703 40.903907 
L 471.002705 41.094147 
L 471.89071 51.362806 
L 472.186711 62.928436 
L 472.778714 158.906632 
L 473.074716 213.170016 
L 473.074716 213.170016 
" clip-path="url(#pa761cae8b0)" style="fill: none; stroke: #1f77b4; stroke-width: 1.5; stroke-linecap: square"/>
   </g>
   <g id="patch_3">
    <path d="M 46.965625 354.958125 
L 46.965625 22.318125 
" style="fill: none; stroke: #000000; stroke-width: 0.8; stroke-linejoin: miter; stroke-linecap: square"/>
   </g>
   <g id="patch_4">
    <path d="M 493.365625 354.958125 
L 493.365625 22.318125 
" style="fill: none; stroke: #000000; stroke-width: 0.8; stroke-linejoin: miter; stroke-linecap: square"/>
   </g>
   <g id="patch_5">
    <path d="M 46.965625 354.958125 
L 493.365625 354.958125 
" style="fill: none; stroke: #000000; stroke-width: 0.8; stroke-linejoin: miter; stroke-linecap: square"/>
   </g>
   <g id="patch_6">
    <path d="M 46.965625 22.318125 
L 493.365625 22.318125 
" style="fill: none; stroke: #000000; stroke-width: 0.8; stroke-linejoin: miter; stroke-linecap: square"/>
   </g>
   <g id="text_18">
    <!-- Predicted LDDT -->
    <g transform="translate(223.846562 16.318125) scale(0.12 -0.12)">
     <defs>
      <path id="DejaVuSans-50" d="M 1259 4147 
L 1259 2394 
L 2053 2394 
Q 2494 2394 2734 2622 
Q 2975 2850 2975 3272 
Q 2975 3691 2734 3919 
Q 2494 4147 2053 4147 
L 1259 4147 
z
M 628 4666 
L 2053 4666 
Q 2838 4666 3239 4311 
Q 3641 3956 3641 3272 
Q 3641 2581 3239 2228 
Q 2838 1875 2053 1875 
L 1259 1875 
L 1259 0 
L 628 0 
L 628 4666 
z
" transform="scale(0.015625)"/>
      <path id="DejaVuSans-72" d="M 2631 2963 
Q 2534 3019 2420 3045 
Q 2306 3072 2169 3072 
Q 1681 3072 1420 2755 
Q 1159 2438 1159 1844 
L 1159 0 
L 581 0 
L 581 3500 
L 1159 3500 
L 1159 2956 
Q 1341 3275 1631 3429 
Q 1922 3584 2338 3584 
Q 2397 3584 2469 3576 
Q 2541 3569 2628 3553 
L 2631 2963 
z
" transform="scale(0.015625)"/>
      <path id="DejaVuSans-63" d="M 3122 3366 
L 3122 2828 
Q 2878 2963 2633 3030 
Q 2388 3097 2138 3097 
Q 1578 3097 1268 2742 
Q 959 2388 959 1747 
Q 959 1106 1268 751 
Q 1578 397 2138 397 
Q 2388 397 2633 464 
Q 2878 531 3122 666 
L 3122 134 
Q 2881 22 2623 -34 
Q 2366 -91 2075 -91 
Q 1284 -91 818 406 
Q 353 903 353 1747 
Q 353 2603 823 3093 
Q 1294 3584 2113 3584 
Q 2378 3584 2631 3529 
Q 2884 3475 3122 3366 
z
" transform="scale(0.015625)"/>
      <path id="DejaVuSans-74" d="M 1172 4494 
L 1172 3500 
L 2356 3500 
L 2356 3053 
L 1172 3053 
L 1172 1153 
Q 1172 725 1289 603 
Q 1406 481 1766 481 
L 2356 481 
L 2356 0 
L 1766 0 
Q 1100 0 847 248 
Q 594 497 594 1153 
L 594 3053 
L 172 3053 
L 172 3500 
L 594 3500 
L 594 4494 
L 1172 4494 
z
" transform="scale(0.015625)"/>
      <path id="DejaVuSans-20" transform="scale(0.015625)"/>
     </defs>
     <use xlink:href="#DejaVuSans-50"/>
     <use xlink:href="#DejaVuSans-72" transform="translate(58.552734 0)"/>
     <use xlink:href="#DejaVuSans-65" transform="translate(97.416016 0)"/>
     <use xlink:href="#DejaVuSans-64" transform="translate(158.939453 0)"/>
     <use xlink:href="#DejaVuSans-69" transform="translate(222.416016 0)"/>
     <use xlink:href="#DejaVuSans-63" transform="translate(250.199219 0)"/>
     <use xlink:href="#DejaVuSans-74" transform="translate(305.179688 0)"/>
     <use xlink:href="#DejaVuSans-65" transform="translate(344.388672 0)"/>
     <use xlink:href="#DejaVuSans-64" transform="translate(405.912109 0)"/>
     <use xlink:href="#DejaVuSans-20" transform="translate(469.388672 0)"/>
     <use xlink:href="#DejaVuSans-4c" transform="translate(501.175781 0)"/>
     <use xlink:href="#DejaVuSans-44" transform="translate(556.888672 0)"/>
     <use xlink:href="#DejaVuSans-44" transform="translate(633.890625 0)"/>
     <use xlink:href="#DejaVuSans-54" transform="translate(710.892578 0)"/>
    </g>
   </g>
  </g>
 </g>
 <defs>
  <clipPath id="pa761cae8b0">
   <rect x="46.965625" y="22.318125" width="446.4" height="332.64"/>
  </clipPath>
 </defs>
</svg>
