<svg width="2560px" height="1167px" style="accent-color: auto; align-content: normal; align-items: normal; align-self: auto; animation-composition: replace; animation-delay: 0s; animation-direction: normal; animation-duration: 0s; animation-fill-mode: none; animation-iteration-count: 1; animation-name: none; animation-play-state: running; animation-timing-function: ease; appearance: none; aspect-ratio: auto; backdrop-filter: none; backface-visibility: visible; background-attachment: scroll; background-blend-mode: normal; background-clip: border-box; background-color: rgba(0, 0, 0, 0); background-image: none; background-origin: padding-box; background-position-x: 0%; background-position-y: 0%; background-repeat: repeat; background-size: auto; baseline-source: auto; block-size: 1167px; border-block-end-color: rgb(136, 136, 136); border-block-end-style: none; border-block-end-width: 0px; border-block-start-color: rgb(136, 136, 136); border-block-start-style: none; border-block-start-width: 0px; border-bottom-color: rgb(136, 136, 136); border-bottom-left-radius: 0px; border-bottom-right-radius: 0px; border-bottom-style: none; border-bottom-width: 0px; border-collapse: separate; border-end-end-radius: 0px; border-end-start-radius: 0px; border-image-outset: 0; border-image-repeat: stretch; border-image-slice: 100%; border-image-source: none; border-image-width: 1; border-inline-end-color: rgb(136, 136, 136); border-inline-end-style: none; border-inline-end-width: 0px; border-inline-start-color: rgb(136, 136, 136); border-inline-start-style: none; border-inline-start-width: 0px; border-left-color: rgb(136, 136, 136); border-left-style: none; border-left-width: 0px; border-right-color: rgb(136, 136, 136); border-right-style: none; border-right-width: 0px; border-spacing: 0px; border-start-end-radius: 0px; border-start-start-radius: 0px; border-top-color: rgb(136, 136, 136); border-top-left-radius: 0px; border-top-right-radius: 0px; border-top-style: none; border-top-width: 0px; bottom: auto; box-decoration-break: slice; box-shadow: none; box-sizing: border-box; break-after: auto; break-before: auto; break-inside: auto; caption-side: top; caret-color: rgb(136, 136, 136); clear: none; clip: auto; clip-path: none; clip-rule: nonzero; color: rgb(136, 136, 136); color-interpolation: srgb; color-interpolation-filters: linearrgb; color-scheme: normal; column-count: auto; column-fill: balance; column-gap: normal; column-rule-color: rgb(136, 136, 136); column-rule-style: none; column-rule-width: 0px; column-span: none; column-width: auto; contain: none; contain-intrinsic-block-size: none; contain-intrinsic-height: none; contain-intrinsic-inline-size: none; contain-intrinsic-width: none; container-name: none; container-type: normal; content: normal; content-visibility: visible; counter-increment: none; counter-reset: none; counter-set: none; cursor: auto; cx: 0px; cy: 0px; d: none; direction: ltr; display: inline; dominant-baseline: auto; empty-cells: show; fill: rgb(0, 0, 0); fill-opacity: 1; fill-rule: nonzero; filter: none; flex-basis: auto; flex-direction: row; flex-grow: 0; flex-shrink: 1; flex-wrap: nowrap; float: none; flood-color: rgb(0, 0, 0); flood-opacity: 1; font-family: &quot;Lato-Regular&quot;, Helvetica, Arial, sans-serif; font-feature-settings: normal; font-kerning: auto; font-language-override: normal; font-optical-sizing: auto; font-palette: normal; font-size: 13.3333px; font-size-adjust: none; font-stretch: 100%; font-style: normal; font-synthesis-position: auto; font-synthesis-small-caps: auto; font-synthesis-style: auto; font-synthesis-weight: auto; font-variant-alternates: normal; font-variant-caps: normal; font-variant-east-asian: normal; font-variant-emoji: normal; font-variant-ligatures: normal; font-variant-numeric: normal; font-variant-position: normal; font-variation-settings: normal; font-weight: 300; forced-color-adjust: auto; grid-auto-columns: auto; grid-auto-flow: row; grid-auto-rows: auto; grid-column-end: auto; grid-column-start: auto; grid-row-end: auto; grid-row-start: auto; grid-template-areas: none; grid-template-columns: none; grid-template-rows: none; height: 1167px; hyphenate-character: auto; hyphenate-limit-chars: auto; hyphens: manual; image-orientation: from-image; image-rendering: auto; ime-mode: auto; inline-size: 2560px; inset-block-end: auto; inset-block-start: auto; inset-inline-end: auto; inset-inline-start: auto; isolation: auto; justify-content: normal; justify-items: normal; justify-self: auto; left: auto; letter-spacing: normal; lighting-color: rgb(255, 255, 255); line-break: auto; line-height: 23.3333px; list-style-image: none; list-style-position: outside; list-style-type: disc; margin-block-end: 0px; margin-block-start: 0px; margin-bottom: 0px; margin-inline-end: 0px; margin-inline-start: 0px; margin-left: 0px; margin-right: 0px; margin-top: 0px; marker-end: none; marker-mid: none; marker-start: none; mask-clip: border-box; mask-composite: add; mask-image: none; mask-mode: match-source; mask-origin: border-box; mask-position-x: 0%; mask-position-y: 0%; mask-repeat: repeat; mask-size: auto; mask-type: luminance; math-depth: 0; math-style: normal; max-block-size: none; max-height: none; max-inline-size: none; max-width: none; min-block-size: 0px; min-height: 0px; min-inline-size: 0px; min-width: 0px; mix-blend-mode: normal; object-fit: fill; object-position: 50% 50%; offset-anchor: auto; offset-distance: 0px; offset-path: none; offset-position: normal; offset-rotate: auto; opacity: 1; order: 0; outline-color: rgb(136, 136, 136); outline-offset: 0px; outline-style: none; outline-width: 0px; overflow-anchor: auto; overflow-block: hidden; overflow-clip-margin: 0px; overflow-inline: hidden; overflow-wrap: normal; overflow-x: hidden; overflow-y: hidden; overscroll-behavior-block: auto; overscroll-behavior-inline: auto; overscroll-behavior-x: auto; overscroll-behavior-y: auto; padding-block-end: 0px; padding-block-start: 0px; padding-bottom: 0px; padding-inline-end: 0px; padding-inline-start: 0px; padding-left: 0px; padding-right: 0px; padding-top: 0px; page: auto; paint-order: normal; perspective: none; perspective-origin: 1280px 583.5px; pointer-events: visible; position: static; print-color-adjust: economy; quotes: auto; r: 0px; resize: none; right: auto; rotate: none; row-gap: normal; ruby-align: space-around; ruby-position: alternate; rx: auto; ry: auto; scale: none; scroll-behavior: auto; scroll-margin-block-end: 0px; scroll-margin-block-start: 0px; scroll-margin-bottom: 0px; scroll-margin-inline-end: 0px; scroll-margin-inline-start: 0px; scroll-margin-left: 0px; scroll-margin-right: 0px; scroll-margin-top: 0px; scroll-padding-block-end: auto; scroll-padding-block-start: auto; scroll-padding-bottom: auto; scroll-padding-inline-end: auto; scroll-padding-inline-start: auto; scroll-padding-left: auto; scroll-padding-right: auto; scroll-padding-top: auto; scroll-snap-align: none; scroll-snap-stop: normal; scroll-snap-type: none; scrollbar-color: auto; scrollbar-gutter: auto; scrollbar-width: auto; shape-image-threshold: 0; shape-margin: 0px; shape-outside: none; shape-rendering: auto; stop-color: rgb(0, 0, 0); stop-opacity: 1; stroke: none; stroke-dasharray: none; stroke-dashoffset: 0px; stroke-linecap: butt; stroke-linejoin: miter; stroke-miterlimit: 4; stroke-opacity: 1; stroke-width: 1px; tab-size: 8; table-layout: auto; text-align: start; text-align-last: auto; text-anchor: start; text-autospace: no-autospace; text-combine-upright: none; text-decoration-color: rgb(136, 136, 136); text-decoration-line: none; text-decoration-skip-ink: auto; text-decoration-style: solid; text-decoration-thickness: auto; text-emphasis-color: rgb(136, 136, 136); text-emphasis-position: auto; text-emphasis-style: none; text-indent: 0px; text-justify: auto; text-orientation: mixed; text-overflow: clip; text-rendering: auto; text-shadow: none; text-transform: none; text-underline-offset: auto; text-underline-position: auto; text-wrap-mode: wrap; text-wrap-style: auto; top: auto; touch-action: auto; transform: none; transform-box: view-box; transform-origin: 1280px 583.5px; transform-style: flat; transition-behavior: normal; transition-delay: 0s; transition-duration: 0s; transition-property: all; transition-timing-function: ease; translate: none; unicode-bidi: normal; user-select: none; vector-effect: none; vertical-align: baseline; view-transition-class: none; view-transition-name: none; visibility: visible; white-space-collapse: collapse; width: 2560px; will-change: auto; word-break: normal; word-spacing: 0px; writing-mode: horizontal-tb; x: 0px; y: 0px; z-index: auto; zoom: 1; -moz-box-align: stretch; -moz-box-direction: normal; -moz-box-flex: 0; -moz-box-ordinal-group: 1; -moz-box-orient: horizontal; -moz-box-pack: start; -moz-float-edge: content-box; -moz-force-broken-image-icon: 0; -moz-orient: inline; -moz-text-size-adjust: none; -webkit-line-clamp: none; -webkit-text-fill-color: rgb(136, 136, 136); -webkit-text-security: none; -webkit-text-stroke-color: rgb(136, 136, 136); -webkit-text-stroke-width: 0px; --dt-html-background: white; --dt-column-ordering: 0, 0, 0; --dt-row-hover: 0, 0, 0; --dt-row-stripe: 0, 0, 0; --dt-row-selected-link: 9, 10, 11; --dt-row-selected-text: 255, 255, 255; --dt-row-selected: 13, 110, 253; --main-color: #091D42; " version="1.1" xmlns="http://www.w3.org/2000/svg" xmlns:xlink="http://www.w3.org/1999/xlink"><style  type="text/css">*, ::after, ::before { box-sizing: border-box; }
.protein { cursor: crosshair; pointer-events: visible; }
.link { cursor: crosshair; pointer-events: auto; }
.selectedProtein { stroke: rgb(255, 255, 153); }
.highlightedLink { stroke: rgb(253, 192, 134); }
.selectedLink { stroke: rgb(255, 255, 153); }
svg { user-select: none; }
.xlv_text { text-shadow: white -1px -1px 0px, white 1px -1px 0px, white -1px 1px 0px, white 1px 1px 0px; }
.xinetAxisLabel { pointer-events: none; }
.proteinLabel { font-size: 10pt; font-weight: bold; }</style><svg width="100%" height="100%" style="pointer-events:visible"><g transform="matrix(1,0,0,1,0,0)"><g id="container" transform="matrix(4.481423377990723,0,0,4.481423377990723,-1626.09912109375,-4926.88232421875)"><g id="groupsSVG"/><g id="p_pLinksWide"/><g id="proteinLower"><g class="protein lowerGroup" transform="translate(636.2507107048244 1265.7516351730155) scale(0.22314338386058807) rotate(0)"><rect fill-opacity="1" fill="#f28e2c" x="-548.4" y="-10" width="1097.6000000000001" height="20" rx="0" ry="0" stroke-opacity="1"/><g opacity="1" transform="scale(1, 1)"/><g transform="scale(0.8, 1)"/></g></g><g class="highlights"/><g id="res_resLinks"/><g id="p_pLinks"/><g id="proteinUpper"><g class="protein upperGroup" transform="translate(636.2507107048244 1265.7516351730155) scale(0.22314338386058807) rotate(0)"><g/><g><path stroke-width="1.7" class="link" fill="none" d=" M -96,0 Q -96,-24.800000000000004 -96,-24.800000000000004 A 3.1999999999999957,3.1999999999999957  0 0 1 -89.60000000000001,-24.800000000000004 Q -89.60000000000001,0 -89.60000000000001,0" stroke="#7570b3"/><path stroke-width="1.7" class="link" fill="none" d=" M 301.6,0 Q 301.6,-13 301.6,-13 A 74.80000000000001,74.80000000000001  0 0 1 451.20000000000005,-13 Q 451.20000000000005,0 451.20000000000005,0" stroke="#7570b3"/><path stroke-width="1.7" class="link" fill="none" d=" M 102.4,0 Q 102.4,-13 102.4,-13 A 174.40000000000003,174.40000000000003  0 0 1 451.20000000000005,-13 Q 451.20000000000005,0 451.20000000000005,0" stroke="#7570b3"/><path stroke-width="1.7" class="link" fill="none" d=" M -268.8,0 Q -268.8,-13 -268.8,-13 A 61.60000000000001,61.60000000000001  0 0 1 -145.6,-13 Q -145.6,0 -145.6,0" stroke="#7570b3"/><path stroke-width="1.7" class="link" fill="none" d=" M -267.2,0 Q -267.2,-13 -267.2,-13 A 310,310  0 0 1 352.8,-13 Q 352.8,0 352.8,0" stroke="#7570b3"/><path stroke-width="1.7" class="link" fill="none" d=" M -145.6,0 Q -145.6,-13 -145.6,-13 A 318.40000000000003,318.40000000000003  0 0 1 491.20000000000005,-13 Q 491.20000000000005,0 491.20000000000005,0" stroke="#7570b3"/><path stroke-width="1.7" class="link" fill="none" d=" M -260.8,0 Q -260.8,-17.599999999999994 -260.8,-17.599999999999994 A 10.400000000000006,10.400000000000006  0 0 1 -240,-17.599999999999994 Q -240,0 -240,0" stroke="#7570b3"/><path stroke-width="1.7" class="link" fill="none" d=" M -268.8,0 Q -268.8,-13 -268.8,-13 A 180.4,180.4  0 0 1 92,-13 Q 92,0 92,0" stroke="#7570b3"/><path stroke-width="1.7" class="link" fill="none" d=" M 72,0 Q 72,-13 72,-13 A 30.400000000000006,30.400000000000006  0 0 1 132.8,-13 Q 132.8,0 132.8,0" stroke="#7570b3"/><path stroke-width="1.7" class="link" fill="none" d=" M -116.80000000000001,0 Q -116.80000000000001,-13 -116.80000000000001,-13 A 230.8,230.8  0 0 1 344.8,-13 Q 344.8,0 344.8,0" stroke="#7570b3"/><path stroke-width="1.7" class="link" fill="none" d=" M -13.600000000000001,0 Q -13.600000000000001,-13 -13.600000000000001,-13 A 183.20000000000002,183.20000000000002  0 0 1 352.8,-13 Q 352.8,0 352.8,0" stroke="#7570b3"/><path stroke-width="1.7" class="link" fill="none" d=" M -158.4,0 Q -158.4,-19.200000000000003 -158.4,-19.200000000000003 A 8.799999999999997,8.799999999999997  0 0 1 -140.8,-19.200000000000003 Q -140.8,0 -140.8,0" stroke="#7570b3"/><path stroke-width="1.7" class="link" fill="none" d=" M 256.8,0 Q 256.8,-21.19999999999999 256.8,-21.19999999999999 A 6.800000000000011,6.800000000000011  0 0 1 270.40000000000003,-21.19999999999999 Q 270.40000000000003,0 270.40000000000003,0" stroke="#7570b3"/><path stroke-width="1.7" class="link" fill="none" d=" M -116.80000000000001,0 Q -116.80000000000001,-13 -116.80000000000001,-13 A 232.8,232.8  0 0 1 348.8,-13 Q 348.8,0 348.8,0" stroke="#7570b3"/><path stroke-width="1.7" class="link" fill="none" d=" M -267.2,0 Q -267.2,-13 -267.2,-13 A 120.39999999999999,120.39999999999999  0 0 1 -26.400000000000002,-13 Q -26.400000000000002,0 -26.400000000000002,0" stroke="#7570b3"/><path stroke-width="1.7" class="link" fill="none" d=" M 72,0 Q 72,-13 72,-13 A 189.60000000000002,189.60000000000002  0 0 1 451.20000000000005,-13 Q 451.20000000000005,0 451.20000000000005,0" stroke="#7570b3"/><path stroke-width="1.7" class="link" fill="none" d=" M -294.40000000000003,0 Q -294.40000000000003,-13 -294.40000000000003,-13 A 220.8,220.8  0 0 1 147.20000000000002,-13 Q 147.20000000000002,0 147.20000000000002,0" stroke="#7570b3"/><path stroke-width="1.7" class="link" fill="none" d=" M -246.4,0 Q -246.4,-13 -246.4,-13 A 297.6,297.6  0 0 1 348.8,-13 Q 348.8,0 348.8,0" stroke="#7570b3"/><path stroke-width="1.7" class="link" fill="none" d=" M -519.2,0 Q -519.2,-13 -519.2,-13 A 180.40000000000003,180.40000000000003  0 0 1 -158.4,-13 Q -158.4,0 -158.4,0" stroke="#7570b3"/><path stroke-width="1.7" class="link" fill="none" d=" M -116.80000000000001,0 Q -116.80000000000001,-13 -116.80000000000001,-13 A 51.60000000000001,51.60000000000001  0 0 1 -13.600000000000001,-13 Q -13.600000000000001,0 -13.600000000000001,0" stroke="#7570b3"/><path stroke-width="1.7" class="link" fill="none" d=" M 22.400000000000002,0 Q 22.400000000000002,-13 22.400000000000002,-13 A 186.40000000000003,186.40000000000003  0 0 1 395.20000000000005,-13 Q 395.20000000000005,0 395.20000000000005,0" stroke="#7570b3"/><path stroke-width="1.7" class="link" fill="none" d=" M 72,0 Q 72,-13 72,-13 A 138.4,138.4  0 0 1 348.8,-13 Q 348.8,0 348.8,0" stroke="#7570b3"/><path stroke-width="1.7" class="link" fill="none" d=" M 72,0 Q 72,-18 72,-18 A 10,10  0 0 1 92,-18 Q 92,0 92,0" stroke="#7570b3"/><path stroke-width="1.7" class="link" fill="none" d=" M -192,0 Q -192,-13 -192,-13 A 16.799999999999997,16.799999999999997  0 0 1 -158.4,-13 Q -158.4,0 -158.4,0" stroke="#7570b3"/><path stroke-width="1.7" class="link" fill="none" d=" M 340,0 Q 340,-23.599999999999994 340,-23.599999999999994 A 4.400000000000006,4.400000000000006  0 0 1 348.8,-23.599999999999994 Q 348.8,0 348.8,0" stroke="#7570b3"/><path stroke-width="1.7" class="link" fill="none" d=" M -456,0 Q -456,-13 -456,-13 A 402.4,402.4  0 0 1 348.8,-13 Q 348.8,0 348.8,0" stroke="#7570b3"/><path stroke-width="1.7" class="link" fill="none" d=" M 485.6,0 Q 485.6,-13.600000000000023 485.6,-13.600000000000023 A 14.399999999999977,14.399999999999977  0 0 1 514.4,-13.600000000000023 Q 514.4,0 514.4,0" stroke="#7570b3"/><path stroke-width="1.7" class="link" fill="none" d=" M 58.400000000000006,0 Q 58.400000000000006,-13 58.400000000000006,-13 A 74.8,74.8  0 0 1 208,-13 Q 208,0 208,0" stroke="#7570b3"/><path stroke-width="1.7" class="link" fill="none" d=" M -4,0 Q -4,-13 -4,-13 A 199.60000000000002,199.60000000000002  0 0 1 395.20000000000005,-13 Q 395.20000000000005,0 395.20000000000005,0" stroke="#7570b3"/><path stroke-width="1.7" class="link" fill="none" d=" M -440.8,0 Q -440.8,-13 -440.8,-13 A 162,162  0 0 1 -116.80000000000001,-13 Q -116.80000000000001,0 -116.80000000000001,0" stroke="#7570b3"/><path stroke-width="1.7" class="link" fill="none" d=" M -192,0 Q -192,-13 -192,-13 A 202.4,202.4  0 0 1 212.8,-13 Q 212.8,0 212.8,0" stroke="#7570b3"/><path stroke-width="1.7" class="link" fill="none" d=" M -246.4,0 Q -246.4,-24.799999999999997 -246.4,-24.799999999999997 A 3.200000000000003,3.200000000000003  0 0 1 -240,-24.799999999999997 Q -240,0 -240,0" stroke="#7570b3"/><path stroke-width="1.7" class="link" fill="none" d=" M -267.2,0 Q -267.2,-13 -267.2,-13 A 306,306  0 0 1 344.8,-13 Q 344.8,0 344.8,0" stroke="#7570b3"/><path stroke-width="1.7" class="link" fill="none" d=" M 353.6,0 Q 353.6,-13 353.6,-13 A 20.80000000000001,20.80000000000001  0 0 1 395.20000000000005,-13 Q 395.20000000000005,0 395.20000000000005,0" stroke="#7570b3"/><path stroke-width="1.7" class="link" fill="none" d=" M 331.20000000000005,0 Q 331.20000000000005,-13 331.20000000000005,-13 A 41.599999999999994,41.599999999999994  0 0 1 414.40000000000003,-13 Q 414.40000000000003,0 414.40000000000003,0" stroke="#7570b3"/><path stroke-width="1.7" class="link" fill="none" d=" M 340,0 Q 340,-13 340,-13 A 37.20000000000002,37.20000000000002  0 0 1 414.40000000000003,-13 Q 414.40000000000003,0 414.40000000000003,0" stroke="#7570b3"/><path stroke-width="1.7" class="link" fill="none" d=" M 102.4,0 Q 102.4,-13 102.4,-13 A 63.2,63.2  0 0 1 228.8,-13 Q 228.8,0 228.8,0" stroke="#7570b3"/><path stroke-width="1.7" class="link" fill="none" d=" M 92,0 Q 92,-13 92,-13 A 126.4,126.4  0 0 1 344.8,-13 Q 344.8,0 344.8,0" stroke="#7570b3"/><path stroke-width="1.7" class="link" fill="none" d=" M -267.2,0 Q -267.2,-13 -267.2,-13 A 284.4,284.4  0 0 1 301.6,-13 Q 301.6,0 301.6,0" stroke="#7570b3"/><path stroke-width="1.7" class="link" fill="none" d=" M -267.2,0 Q -267.2,-13 -267.2,-13 A 211.6,211.6  0 0 1 156,-13 Q 156,0 156,0" stroke="#7570b3"/><path stroke-width="1.7" class="link" fill="none" d=" M -294.40000000000003,0 Q -294.40000000000003,-14.399999999999977 -294.40000000000003,-14.399999999999977 A 13.600000000000023,13.600000000000023  0 0 1 -267.2,-14.399999999999977 Q -267.2,0 -267.2,0" stroke="#7570b3"/><path stroke-width="1.7" class="link" fill="none" d=" M -456.8,0 Q -456.8,-13 -456.8,-13 A 94.80000000000001,94.80000000000001  0 0 1 -267.2,-13 Q -267.2,0 -267.2,0" stroke="#7570b3"/><path stroke-width="1.7" class="link" fill="none" d=" M 344.8,0 Q 344.8,-24 344.8,-24 A 4,4  0 0 1 352.8,-24 Q 352.8,0 352.8,0" stroke="#7570b3"/><path stroke-width="1.7" class="link" fill="none" d=" M 348.8,0 Q 348.8,-13 348.8,-13 A 68.4,68.4  0 0 1 485.6,-13 Q 485.6,0 485.6,0" stroke="#7570b3"/><path stroke-width="1.7" class="link" fill="none" d=" M 72,0 Q 72,-13 72,-13 A 58.400000000000006,58.400000000000006  0 0 1 188.8,-13 Q 188.8,0 188.8,0" stroke="#7570b3"/><path stroke-width="1.7" class="link" fill="none" d=" M -456.8,0 Q -456.8,-13 -456.8,-13 A 221.6,221.6  0 0 1 -13.600000000000001,-13 Q -13.600000000000001,0 -13.600000000000001,0" stroke="#7570b3"/><path stroke-width="1.7" class="link" fill="none" d=" M 72,0 Q 72,-13 72,-13 A 78.4,78.4  0 0 1 228.8,-13 Q 228.8,0 228.8,0" stroke="#7570b3"/><path stroke-width="1.7" class="link" fill="none" d=" M -267.2,0 Q -267.2,-13 -267.2,-13 A 273.2,273.2  0 0 1 279.2,-13 Q 279.2,0 279.2,0" stroke="#7570b3"/><path stroke-width="1.7" class="link" fill="none" d=" M 72,0 Q 72,-13 72,-13 A 129.60000000000002,129.60000000000002  0 0 1 331.20000000000005,-13 Q 331.20000000000005,0 331.20000000000005,0" stroke="#7570b3"/><path stroke-width="1.7" class="link" fill="none" d=" M -267.2,0 Q -267.2,-13 -267.2,-13 A 207.2,207.2  0 0 1 147.20000000000002,-13 Q 147.20000000000002,0 147.20000000000002,0" stroke="#7570b3"/><path stroke-width="1.7" class="link" fill="none" d=" M -268.8,0 Q -268.8,-13 -268.8,-13 A 127.60000000000001,127.60000000000001  0 0 1 -13.600000000000001,-13 Q -13.600000000000001,0 -13.600000000000001,0" stroke="#7570b3"/><path stroke-width="1.7" class="link" fill="none" d=" M 332,0 Q 332,-13 332,-13 A 40,40  0 0 1 412,-13 Q 412,0 412,0" stroke="#7570b3"/><path stroke-width="1.7" class="link" fill="none" d=" M -519.2,0 Q -519.2,-13 -519.2,-13 A 252.8,252.8  0 0 1 -13.600000000000001,-13 Q -13.600000000000001,0 -13.600000000000001,0" stroke="#7570b3"/><path stroke-width="1.7" class="link" fill="none" d=" M -287.2,0 Q -287.2,-13 -287.2,-13 A 363.20000000000005,363.20000000000005  0 0 1 439.20000000000005,-13 Q 439.20000000000005,0 439.20000000000005,0" stroke="#7570b3"/><path stroke-width="1.7" class="link" fill="none" d=" M 92,0 Q 92,-13 92,-13 A 32,32  0 0 1 156,-13 Q 156,0 156,0" stroke="#7570b3"/><path stroke-width="1.7" class="link" fill="none" d=" M -294.40000000000003,0 Q -294.40000000000003,-13 -294.40000000000003,-13 A 321.6,321.6  0 0 1 348.8,-13 Q 348.8,0 348.8,0" stroke="#7570b3"/><path stroke-width="1.7" class="link" fill="none" d=" M 72,0 Q 72,-13 72,-13 A 142.8,142.8  0 0 1 357.6,-13 Q 357.6,0 357.6,0" stroke="#7570b3"/><path stroke-width="1.7" class="link" fill="none" d=" M 72,0 Q 72,-13 72,-13 A 188.8,188.8  0 0 1 449.6,-13 Q 449.6,0 449.6,0" stroke="#7570b3"/><path stroke-width="1.7" class="link" fill="none" d=" M -123.2,0 Q -123.2,-13 -123.2,-13 A 236,236  0 0 1 348.8,-13 Q 348.8,0 348.8,0" stroke="#7570b3"/><path stroke-width="1.7" class="link" fill="none" d=" M -359.20000000000005,0 Q -359.20000000000005,-13 -359.20000000000005,-13 A 262.8,262.8  0 0 1 166.4,-13 Q 166.4,0 166.4,0" stroke="#7570b3"/><path stroke-width="1.7" class="link" fill="none" d=" M -427.20000000000005,0 Q -427.20000000000005,-22 -427.20000000000005,-22 A 6,6  0 0 1 -415.20000000000005,-22 Q -415.20000000000005,0 -415.20000000000005,0" stroke="#7570b3"/><path stroke-width="1.7" class="link" fill="none" d=" M 147.20000000000002,0 Q 147.20000000000002,-23.60000000000001 147.20000000000002,-23.60000000000001 A 4.3999999999999915,4.3999999999999915  0 0 1 156,-23.60000000000001 Q 156,0 156,0" stroke="#7570b3"/><path stroke-width="1.7" class="link" fill="none" d=" M -456,0 Q -456,-13 -456,-13 A 89.6,89.6  0 0 1 -276.8,-13 Q -276.8,0 -276.8,0" stroke="#7570b3"/><path stroke-width="1.7" class="link" fill="none" d=" M -13.600000000000001,0 Q -13.600000000000001,-13 -13.600000000000001,-13 A 110.8,110.8  0 0 1 208,-13 Q 208,0 208,0" stroke="#7570b3"/><path stroke-width="1.7" class="link" fill="none" d=" M -519.2,0 Q -519.2,-13 -519.2,-13 A 198.00000000000003,198.00000000000003  0 0 1 -123.2,-13 Q -123.2,0 -123.2,0" stroke="#7570b3"/><path stroke-width="1.7" class="link" fill="none" d=" M -116.80000000000001,0 Q -116.80000000000001,-13 -116.80000000000001,-13 A 278,278  0 0 1 439.20000000000005,-13 Q 439.20000000000005,0 439.20000000000005,0" stroke="#7570b3"/><path stroke-width="1.7" class="link" fill="none" d=" M 156,0 Q 156,-26.799999999999997 156,-26.799999999999997 A 1.2000000000000028,1.2000000000000028  0 0 1 158.4,-26.799999999999997 Q 158.4,0 158.4,0" stroke="#7570b3"/><path stroke-width="1.7" class="link" fill="none" d=" M -267.2,0 Q -267.2,-13 -267.2,-13 A 75.19999999999999,75.19999999999999  0 0 1 -116.80000000000001,-13 Q -116.80000000000001,0 -116.80000000000001,0" stroke="#7570b3"/><path stroke-width="1.7" class="link" fill="none" d=" M -171.20000000000002,0 Q -171.20000000000002,-13 -171.20000000000002,-13 A 112.4,112.4  0 0 1 53.6,-13 Q 53.6,0 53.6,0" stroke="#7570b3"/><path stroke-width="1.7" class="link" fill="none" d=" M 53.6,0 Q 53.6,-13 53.6,-13 A 77.2,77.2  0 0 1 208,-13 Q 208,0 208,0" stroke="#7570b3"/><path stroke-width="1.7" class="link" fill="none" d=" M 48,0 Q 48,-13 48,-13 A 142,142  0 0 1 332,-13 Q 332,0 332,0" stroke="#7570b3"/><path stroke-width="1.7" class="link" fill="none" d=" M 138.4,0 Q 138.4,-13 138.4,-13 A 160,160  0 0 1 458.40000000000003,-13 Q 458.40000000000003,0 458.40000000000003,0" stroke="#7570b3"/><path stroke-width="1.7" class="link" fill="none" d=" M 147.20000000000002,0 Q 137.6234359868813,26.311393382005434 147.20000000000002,28 A 0,0  0 0 1 147.20000000000002,28 Q 156.77656401311873,26.311393382005434 147.20000000000002,0" stroke="#d95f02"/><path stroke-width="1.7" class="link" fill="none" d=" M 72,0 Q 72,-13 72,-13 A 80.80000000000001,80.80000000000001  0 0 1 233.60000000000002,-13 Q 233.60000000000002,0 233.60000000000002,0" stroke="#7570b3"/><path stroke-width="1.7" class="link" fill="none" d=" M 228.8,0 Q 228.8,-13 228.8,-13 A 110.4,110.4  0 0 1 449.6,-13 Q 449.6,0 449.6,0" stroke="#7570b3"/><path stroke-width="1.7" class="link" fill="none" d=" M -140.8,0 Q -140.8,-13 -140.8,-13 A 268,268  0 0 1 395.20000000000005,-13 Q 395.20000000000005,0 395.20000000000005,0" stroke="#7570b3"/><path stroke-width="1.7" class="link" fill="none" d=" M 331.20000000000005,0 Q 331.20000000000005,-21.200000000000017 331.20000000000005,-21.200000000000017 A 6.799999999999983,6.799999999999983  0 0 1 344.8,-21.200000000000017 Q 344.8,0 344.8,0" stroke="#7570b3"/><path stroke-width="1.7" class="link" fill="none" d=" M -145.6,0 Q -145.6,-17.60000000000001 -145.6,-17.60000000000001 A 10.399999999999991,10.399999999999991  0 0 1 -124.80000000000001,-17.60000000000001 Q -124.80000000000001,0 -124.80000000000001,0" stroke="#7570b3"/><path stroke-width="1.7" class="link" fill="none" d=" M -335.20000000000005,0 Q -335.20000000000005,-13 -335.20000000000005,-13 A 342,342  0 0 1 348.8,-13 Q 348.8,0 348.8,0" stroke="#7570b3"/><path stroke-width="1.7" class="link" fill="none" d=" M -13.600000000000001,0 Q -13.600000000000001,-13 -13.600000000000001,-13 A 186.00000000000003,186.00000000000003  0 0 1 358.40000000000003,-13 Q 358.40000000000003,0 358.40000000000003,0" stroke="#7570b3"/><path stroke-width="1.7" class="link" fill="none" d=" M -440.8,0 Q -440.8,-24 -440.8,-24 A 4,4  0 0 1 -432.8,-24 Q -432.8,0 -432.8,0" stroke="#7570b3"/><path stroke-width="1.7" class="link" fill="none" d=" M -267.2,0 Q -267.2,-13 -267.2,-13 A 212.8,212.8  0 0 1 158.4,-13 Q 158.4,0 158.4,0" stroke="#7570b3"/><path stroke-width="1.7" class="link" fill="none" d=" M -26.400000000000002,0 Q -26.400000000000002,-13 -26.400000000000002,-13 A 187.6,187.6  0 0 1 348.8,-13 Q 348.8,0 348.8,0" stroke="#7570b3"/><path stroke-width="1.7" class="link" fill="none" d=" M -267.2,0 Q -267.2,-13 -267.2,-13 A 176.4,176.4  0 0 1 85.60000000000001,-13 Q 85.60000000000001,0 85.60000000000001,0" stroke="#7570b3"/><path stroke-width="1.7" class="link" fill="none" d=" M -158.4,0 Q -158.4,-13 -158.4,-13 A 106,106  0 0 1 53.6,-13 Q 53.6,0 53.6,0" stroke="#7570b3"/><path stroke-width="1.7" class="link" fill="none" d=" M -198.4,0 Q -198.4,-24.799999999999997 -198.4,-24.799999999999997 A 3.200000000000003,3.200000000000003  0 0 1 -192,-24.799999999999997 Q -192,0 -192,0" stroke="#7570b3"/><path stroke-width="1.7" class="link" fill="none" d=" M -456,0 Q -456,-13 -456,-13 A 400.4,400.4  0 0 1 344.8,-13 Q 344.8,0 344.8,0" stroke="#7570b3"/><path stroke-width="1.7" class="link" fill="none" d=" M -358.40000000000003,0 Q -358.40000000000003,-16.400000000000006 -358.40000000000003,-16.400000000000006 A 11.599999999999994,11.599999999999994  0 0 1 -335.20000000000005,-16.400000000000006 Q -335.20000000000005,0 -335.20000000000005,0" stroke="#7570b3"/><path stroke-width="1.7" class="link" fill="none" d=" M -294.40000000000003,0 Q -294.40000000000003,-13 -294.40000000000003,-13 A 88.80000000000001,88.80000000000001  0 0 1 -116.80000000000001,-13 Q -116.80000000000001,0 -116.80000000000001,0" stroke="#7570b3"/><path stroke-width="1.7" class="link" fill="none" d=" M -267.2,0 Q -267.2,-13 -267.2,-13 A 379.20000000000005,379.20000000000005  0 0 1 491.20000000000005,-13 Q 491.20000000000005,0 491.20000000000005,0" stroke="#7570b3"/><path stroke-width="1.7" class="link" fill="none" d=" M -116.80000000000001,0 Q -116.80000000000001,-13 -116.80000000000001,-13 A 235.20000000000002,235.20000000000002  0 0 1 353.6,-13 Q 353.6,0 353.6,0" stroke="#7570b3"/><path stroke-width="1.7" class="link" fill="none" d=" M -192,0 Q -192,-13 -192,-13 A 23.200000000000003,23.200000000000003  0 0 1 -145.6,-13 Q -145.6,0 -145.6,0" stroke="#7570b3"/><path stroke-width="1.7" class="link" fill="none" d=" M -267.2,0 Q -267.2,-13 -267.2,-13 A 179.6,179.6  0 0 1 92,-13 Q 92,0 92,0" stroke="#7570b3"/><path stroke-width="1.7" class="link" fill="none" d=" M 348.8,0 Q 348.8,-25.599999999999994 348.8,-25.599999999999994 A 2.4000000000000057,2.4000000000000057  0 0 1 353.6,-25.599999999999994 Q 353.6,0 353.6,0" stroke="#7570b3"/><path stroke-width="1.7" class="link" fill="none" d=" M -145.6,0 Q -145.6,-13 -145.6,-13 A 276.8,276.8  0 0 1 408,-13 Q 408,0 408,0" stroke="#7570b3"/><path stroke-width="1.7" class="link" fill="none" d=" M 451.20000000000005,0 Q 451.20000000000005,-13 451.20000000000005,-13 A 31.599999999999966,31.599999999999966  0 0 1 514.4,-13 Q 514.4,0 514.4,0" stroke="#7570b3"/><path stroke-width="1.7" class="link" fill="none" d=" M -294.40000000000003,0 Q -294.40000000000003,-13 -294.40000000000003,-13 A 193.20000000000002,193.20000000000002  0 0 1 92,-13 Q 92,0 92,0" stroke="#7570b3"/><path stroke-width="1.7" class="link" fill="none" d=" M -192,0 Q -192,-13 -192,-13 A 270.4,270.4  0 0 1 348.8,-13 Q 348.8,0 348.8,0" stroke="#7570b3"/><path stroke-width="1.7" class="link" fill="none" d=" M -268.8,0 Q -268.8,-16.799999999999997 -268.8,-16.799999999999997 A 11.200000000000003,11.200000000000003  0 0 1 -246.4,-16.799999999999997 Q -246.4,0 -246.4,0" stroke="#7570b3"/><path stroke-width="1.7" class="link" fill="none" d=" M -13.600000000000001,0 Q -13.600000000000001,-13 -13.600000000000001,-13 A 30.8,30.8  0 0 1 48,-13 Q 48,0 48,0" stroke="#7570b3"/><path stroke-width="1.7" class="link" fill="none" d=" M 344.8,0 Q 344.8,-21.599999999999994 344.8,-21.599999999999994 A 6.400000000000006,6.400000000000006  0 0 1 357.6,-21.599999999999994 Q 357.6,0 357.6,0" stroke="#7570b3"/><path stroke-width="1.7" class="link" fill="none" d=" M -13.600000000000001,0 Q -13.600000000000001,-13 -13.600000000000001,-13 A 252.40000000000003,252.40000000000003  0 0 1 491.20000000000005,-13 Q 491.20000000000005,0 491.20000000000005,0" stroke="#7570b3"/><path stroke-width="1.7" class="link" fill="none" d=" M -276.8,0 Q -276.8,-13 -276.8,-13 A 312.8,312.8  0 0 1 348.8,-13 Q 348.8,0 348.8,0" stroke="#7570b3"/><path stroke-width="1.7" class="link" fill="none" d=" M -13.600000000000001,0 Q -13.600000000000001,-13 -13.600000000000001,-13 A 18,18  0 0 1 22.400000000000002,-13 Q 22.400000000000002,0 22.400000000000002,0" stroke="#7570b3"/><path stroke-width="1.7" class="link" fill="none" d=" M 212.8,0 Q 212.8,-25.599999999999994 212.8,-25.599999999999994 A 2.4000000000000057,2.4000000000000057  0 0 1 217.60000000000002,-25.599999999999994 Q 217.60000000000002,0 217.60000000000002,0" stroke="#7570b3"/><path stroke-width="1.7" class="link" fill="none" d=" M -267.2,0 Q -276.77656401311873,26.311393382005434 -267.2,28 A 0,0  0 0 1 -267.2,28 Q -257.62343598688125,26.311393382005434 -267.2,0" stroke="#d95f02"/><path stroke-width="1.7" class="link" fill="none" d=" M -294.40000000000003,0 Q -294.40000000000003,-13 -294.40000000000003,-13 A 225.20000000000002,225.20000000000002  0 0 1 156,-13 Q 156,0 156,0" stroke="#7570b3"/><path stroke-width="1.7" class="link" fill="none" d=" M -267.2,0 Q -267.2,-13 -267.2,-13 A 47.999999999999986,47.999999999999986  0 0 1 -171.20000000000002,-13 Q -171.20000000000002,0 -171.20000000000002,0" stroke="#7570b3"/><path stroke-width="1.7" class="link" fill="none" d=" M 188.8,0 Q 188.8,-13 188.8,-13 A 16.400000000000006,16.400000000000006  0 0 1 221.60000000000002,-13 Q 221.60000000000002,0 221.60000000000002,0" stroke="#7570b3"/><path stroke-width="1.7" class="link" fill="none" d=" M -268.8,0 Q -268.8,-13.599999999999994 -268.8,-13.599999999999994 A 14.400000000000006,14.400000000000006  0 0 1 -240,-13.599999999999994 Q -240,0 -240,0" stroke="#7570b3"/><path stroke-width="1.7" class="link" fill="none" d=" M -267.2,0 Q -267.2,-13 -267.2,-13 A 37.599999999999994,37.599999999999994  0 0 1 -192,-13 Q -192,0 -192,0" stroke="#7570b3"/><path stroke-width="1.7" class="link" fill="none" d=" M 348.8,0 Q 339.22343598688127,26.311393382005434 348.8,28 A 0,0  0 0 1 348.8,28 Q 358.37656401311875,26.311393382005434 348.8,0" stroke="#d95f02"/><path stroke-width="1.7" class="link" fill="none" d=" M -123.2,0 Q -123.2,-24.800000000000004 -123.2,-24.800000000000004 A 3.1999999999999957,3.1999999999999957  0 0 1 -116.80000000000001,-24.800000000000004 Q -116.80000000000001,0 -116.80000000000001,0" stroke="#7570b3"/><path stroke-width="1.7" class="link" fill="none" d=" M -267.2,0 Q -267.2,-13 -267.2,-13 A 86.79999999999998,86.79999999999998  0 0 1 -93.60000000000001,-13 Q -93.60000000000001,0 -93.60000000000001,0" stroke="#7570b3"/><path stroke-width="1.7" class="link" fill="none" d=" M -519.2,0 Q -519.2,-13 -519.2,-13 A 305.6,305.6  0 0 1 92,-13 Q 92,0 92,0" stroke="#7570b3"/><path stroke-width="1.7" class="link" fill="none" d=" M 352.8,0 Q 352.8,-13 352.8,-13 A 21.200000000000017,21.200000000000017  0 0 1 395.20000000000005,-13 Q 395.20000000000005,0 395.20000000000005,0" stroke="#7570b3"/><path stroke-width="1.7" class="link" fill="none" d=" M -13.600000000000001,0 Q -13.600000000000001,-13 -13.600000000000001,-13 A 179.20000000000002,179.20000000000002  0 0 1 344.8,-13 Q 344.8,0 344.8,0" stroke="#7570b3"/><path stroke-width="1.7" class="link" fill="none" d=" M -440.8,0 Q -440.8,-13 -440.8,-13 A 86.80000000000001,86.80000000000001  0 0 1 -267.2,-13 Q -267.2,0 -267.2,0" stroke="#7570b3"/><path stroke-width="1.7" class="link" fill="none" d=" M 72,0 Q 72,-13 72,-13 A 15.200000000000003,15.200000000000003  0 0 1 102.4,-13 Q 102.4,0 102.4,0" stroke="#7570b3"/><path stroke-width="1.7" class="link" fill="none" d=" M -519.2,0 Q -519.2,-13 -519.2,-13 A 201.20000000000002,201.20000000000002  0 0 1 -116.80000000000001,-13 Q -116.80000000000001,0 -116.80000000000001,0" stroke="#7570b3"/><path stroke-width="1.7" class="link" fill="none" d=" M 72,0 Q 72,-13 72,-13 A 134,134  0 0 1 340,-13 Q 340,0 340,0" stroke="#7570b3"/><path stroke-width="1.7" class="link" fill="none" d=" M 256.8,0 Q 256.8,-16.80000000000001 256.8,-16.80000000000001 A 11.199999999999989,11.199999999999989  0 0 1 279.2,-16.80000000000001 Q 279.2,0 279.2,0" stroke="#7570b3"/><path stroke-width="1.7" class="link" fill="none" d=" M -13.600000000000001,0 Q -13.600000000000001,-13 -13.600000000000001,-13 A 245.20000000000002,245.20000000000002  0 0 1 476.8,-13 Q 476.8,0 476.8,0" stroke="#7570b3"/><path stroke-width="1.7" class="link" fill="none" d=" M 344.8,0 Q 344.8,-26 344.8,-26 A 2,2  0 0 1 348.8,-26 Q 348.8,0 348.8,0" stroke="#7570b3"/><path stroke-width="1.7" class="link" fill="none" d=" M 92,0 Q 92,-13 92,-13 A 27.60000000000001,27.60000000000001  0 0 1 147.20000000000002,-13 Q 147.20000000000002,0 147.20000000000002,0" stroke="#7570b3"/><path stroke-width="1.7" class="link" fill="none" d=" M 188.8,0 Q 179.2234359868813,26.311393382005434 188.8,28 A 0,0  0 0 1 188.8,28 Q 198.37656401311872,26.311393382005434 188.8,0" stroke="#d95f02"/><path stroke-width="1.7" class="link" fill="none" d=" M 147.20000000000002,0 Q 147.20000000000002,-13 147.20000000000002,-13 A 100.8,100.8  0 0 1 348.8,-13 Q 348.8,0 348.8,0" stroke="#7570b3"/><path stroke-width="1.7" class="link" fill="none" d=" M 72,0 Q 72,-13 72,-13 A 209.60000000000002,209.60000000000002  0 0 1 491.20000000000005,-13 Q 491.20000000000005,0 491.20000000000005,0" stroke="#7570b3"/><path stroke-width="1.7" class="link" fill="none" d=" M 22.400000000000002,0 Q 22.400000000000002,-13 22.400000000000002,-13 A 194.8,194.8  0 0 1 412,-13 Q 412,0 412,0" stroke="#7570b3"/><path stroke-width="1.7" class="link" fill="none" d=" M -192,0 Q -192,-13 -192,-13 A 116.8,116.8  0 0 1 41.6,-13 Q 41.6,0 41.6,0" stroke="#7570b3"/><path stroke-width="1.7" class="link" fill="none" d=" M -268.8,0 Q -268.8,-13 -268.8,-13 A 308.8,308.8  0 0 1 348.8,-13 Q 348.8,0 348.8,0" stroke="#7570b3"/><path stroke-width="1.7" class="link" fill="none" d=" M 340,0 Q 340,-19.19999999999999 340,-19.19999999999999 A 8.800000000000011,8.800000000000011  0 0 1 357.6,-19.19999999999999 Q 357.6,0 357.6,0" stroke="#7570b3"/><path stroke-width="1.7" class="link" fill="none" d=" M 188.8,0 Q 188.8,-23.599999999999994 188.8,-23.599999999999994 A 4.400000000000006,4.400000000000006  0 0 1 197.60000000000002,-23.599999999999994 Q 197.60000000000002,0 197.60000000000002,0" stroke="#7570b3"/><path stroke-width="1.7" class="link" fill="none" d=" M -171.20000000000002,0 Q -171.20000000000002,-13 -171.20000000000002,-13 A 283.20000000000005,283.20000000000005  0 0 1 395.20000000000005,-13 Q 395.20000000000005,0 395.20000000000005,0" stroke="#7570b3"/><path stroke-width="1.7" class="link" fill="none" d=" M 439.20000000000005,0 Q 439.20000000000005,-22 439.20000000000005,-22 A 6,6  0 0 1 451.20000000000005,-22 Q 451.20000000000005,0 451.20000000000005,0" stroke="#7570b3"/><path stroke-width="1.7" class="link" fill="none" d=" M -287.2,0 Q -287.2,-22.80000000000001 -287.2,-22.80000000000001 A 5.199999999999989,5.199999999999989  0 0 1 -276.8,-22.80000000000001 Q -276.8,0 -276.8,0" stroke="#7570b3"/><path stroke-width="1.7" class="link" fill="none" d=" M 331.20000000000005,0 Q 331.20000000000005,-14.800000000000011 331.20000000000005,-14.800000000000011 A 13.199999999999989,13.199999999999989  0 0 1 357.6,-14.800000000000011 Q 357.6,0 357.6,0" stroke="#7570b3"/><path stroke-width="1.7" class="link" fill="none" d=" M 147.20000000000002,0 Q 147.20000000000002,-13 147.20000000000002,-13 A 77.2,77.2  0 0 1 301.6,-13 Q 301.6,0 301.6,0" stroke="#7570b3"/><path stroke-width="1.7" class="link" fill="none" d=" M 332,0 Q 332,-21.599999999999994 332,-21.599999999999994 A 6.400000000000006,6.400000000000006  0 0 1 344.8,-21.599999999999994 Q 344.8,0 344.8,0" stroke="#7570b3"/><path stroke-width="1.7" class="link" fill="none" d=" M 92,0 Q 92,-13 92,-13 A 128.4,128.4  0 0 1 348.8,-13 Q 348.8,0 348.8,0" stroke="#7570b3"/><path stroke-width="1.7" class="link" fill="none" d=" M -359.20000000000005,0 Q -359.20000000000005,-13 -359.20000000000005,-13 A 215.60000000000002,215.60000000000002  0 0 1 72,-13 Q 72,0 72,0" stroke="#7570b3"/><path stroke-width="1.7" class="link" fill="none" d=" M 344.8,0 Q 344.8,-23.599999999999994 344.8,-23.599999999999994 A 4.400000000000006,4.400000000000006  0 0 1 353.6,-23.599999999999994 Q 353.6,0 353.6,0" stroke="#7570b3"/><path stroke-width="1.7" class="link" fill="none" d=" M -267.2,0 Q -267.2,-13 -267.2,-13 A 126.8,126.8  0 0 1 -13.600000000000001,-13 Q -13.600000000000001,0 -13.600000000000001,0" stroke="#7570b3"/><path stroke-width="1.7" class="link" fill="none" d=" M -519.2,0 Q -519.2,-13 -519.2,-13 A 139.60000000000002,139.60000000000002  0 0 1 -240,-13 Q -240,0 -240,0" stroke="#7570b3"/><path stroke-width="1.7" class="link" fill="none" d=" M 48,0 Q 48,-13 48,-13 A 182,182  0 0 1 412,-13 Q 412,0 412,0" stroke="#7570b3"/><path stroke-width="1.7" class="link" fill="none" d=" M 221.60000000000002,0 Q 221.60000000000002,-13 221.60000000000002,-13 A 114.80000000000001,114.80000000000001  0 0 1 451.20000000000005,-13 Q 451.20000000000005,0 451.20000000000005,0" stroke="#7570b3"/><path stroke-width="1.7" class="link" fill="none" d=" M -13.600000000000001,0 Q -13.600000000000001,-13 -13.600000000000001,-13 A 181.20000000000002,181.20000000000002  0 0 1 348.8,-13 Q 348.8,0 348.8,0" stroke="#7570b3"/><path stroke-width="1.7" class="link" fill="none" d=" M 176,0 Q 176,-21.599999999999994 176,-21.599999999999994 A 6.400000000000006,6.400000000000006  0 0 1 188.8,-21.599999999999994 Q 188.8,0 188.8,0" stroke="#7570b3"/><path stroke-width="1.7" class="link" fill="none" d=" M -145.6,0 Q -145.6,-13 -145.6,-13 A 247.2,247.2  0 0 1 348.8,-13 Q 348.8,0 348.8,0" stroke="#7570b3"/><path stroke-width="1.7" class="link" fill="none" d=" M 348.8,0 Q 348.8,-13 348.8,-13 A 71.20000000000002,71.20000000000002  0 0 1 491.20000000000005,-13 Q 491.20000000000005,0 491.20000000000005,0" stroke="#7570b3"/><path stroke-width="1.7" class="link" fill="none" d=" M -158.4,0 Q -158.4,-13 -158.4,-13 A 72.4,72.4  0 0 1 -13.600000000000001,-13 Q -13.600000000000001,0 -13.600000000000001,0" stroke="#7570b3"/><path stroke-width="1.7" class="link" fill="none" d=" M -440.8,0 Q -440.8,-13 -440.8,-13 A 392.8,392.8  0 0 1 344.8,-13 Q 344.8,0 344.8,0" stroke="#7570b3"/><path stroke-width="1.7" class="link" fill="none" d=" M -158.4,0 Q -158.4,-13 -158.4,-13 A 285.2,285.2  0 0 1 412,-13 Q 412,0 412,0" stroke="#7570b3"/><path stroke-width="1.7" class="link" fill="none" d=" M -519.2,0 Q -519.2,-13 -519.2,-13 A 174,174  0 0 1 -171.20000000000002,-13 Q -171.20000000000002,0 -171.20000000000002,0" stroke="#7570b3"/><path stroke-width="1.7" class="link" fill="none" d=" M -116.80000000000001,0 Q -116.80000000000001,-13 -116.80000000000001,-13 A 94.4,94.4  0 0 1 72,-13 Q 72,0 72,0" stroke="#7570b3"/><path stroke-width="1.7" class="link" fill="none" d=" M -335.20000000000005,0 Q -335.20000000000005,-13 -335.20000000000005,-13 A 44.40000000000002,44.40000000000002  0 0 1 -246.4,-13 Q -246.4,0 -246.4,0" stroke="#7570b3"/><path stroke-width="1.7" class="link" fill="none" d=" M -145.6,0 Q -145.6,-13.600000000000009 -145.6,-13.600000000000009 A 14.399999999999991,14.399999999999991  0 0 1 -116.80000000000001,-13.600000000000009 Q -116.80000000000001,0 -116.80000000000001,0" stroke="#7570b3"/><path stroke-width="1.7" class="link" fill="none" d=" M 279.2,0 Q 279.2,-16.799999999999983 279.2,-16.799999999999983 A 11.200000000000017,11.200000000000017  0 0 1 301.6,-16.799999999999983 Q 301.6,0 301.6,0" stroke="#7570b3"/><path stroke-width="1.7" class="link" fill="none" d=" M -192,0 Q -192,-13 -192,-13 A 25.599999999999994,25.599999999999994  0 0 1 -140.8,-13 Q -140.8,0 -140.8,0" stroke="#7570b3"/><path stroke-width="1.7" class="link" fill="none" d=" M 228.8,0 Q 228.8,-13 228.8,-13 A 111.20000000000002,111.20000000000002  0 0 1 451.20000000000005,-13 Q 451.20000000000005,0 451.20000000000005,0" stroke="#7570b3"/><path stroke-width="1.7" class="link" fill="none" d=" M -519.2,0 Q -519.2,-13 -519.2,-13 A 126.00000000000003,126.00000000000003  0 0 1 -267.2,-13 Q -267.2,0 -267.2,0" stroke="#7570b3"/><path stroke-width="1.7" class="link" fill="none" d=" M -267.2,0 Q -267.2,-13 -267.2,-13 A 228,228  0 0 1 188.8,-13 Q 188.8,0 188.8,0" stroke="#7570b3"/><path stroke-width="1.7" class="link" fill="none" d=" M 348.8,0 Q 348.8,-23.599999999999994 348.8,-23.599999999999994 A 4.400000000000006,4.400000000000006  0 0 1 357.6,-23.599999999999994 Q 357.6,0 357.6,0" stroke="#7570b3"/><path stroke-width="1.7" class="link" fill="none" d=" M -145.6,0 Q -145.6,-13 -145.6,-13 A 278.8,278.8  0 0 1 412,-13 Q 412,0 412,0" stroke="#7570b3"/><path stroke-width="1.7" class="link" fill="none" d=" M -267.2,0 Q -267.2,-13 -267.2,-13 A 60.8,60.8  0 0 1 -145.6,-13 Q -145.6,0 -145.6,0" stroke="#7570b3"/><path stroke-width="1.7" class="link" fill="none" d=" M -171.20000000000002,0 Q -171.20000000000002,-13 -171.20000000000002,-13 A 189.60000000000002,189.60000000000002  0 0 1 208,-13 Q 208,0 208,0" stroke="#7570b3"/><path stroke-width="1.7" class="link" fill="none" d=" M -287.2,0 Q -287.2,-18 -287.2,-18 A 10,10  0 0 1 -267.2,-18 Q -267.2,0 -267.2,0" stroke="#7570b3"/><path stroke-width="1.7" class="link" fill="none" d=" M -171.20000000000002,0 Q -171.20000000000002,-13 -171.20000000000002,-13 A 291.6,291.6  0 0 1 412,-13 Q 412,0 412,0" stroke="#7570b3"/><path stroke-width="1.7" class="link" fill="none" d=" M 228.8,0 Q 228.8,-13 228.8,-13 A 114.80000000000001,114.80000000000001  0 0 1 458.40000000000003,-13 Q 458.40000000000003,0 458.40000000000003,0" stroke="#7570b3"/><path stroke-width="1.7" class="link" fill="none" d=" M 72,0 Q 72,-13 72,-13 A 143.20000000000002,143.20000000000002  0 0 1 358.40000000000003,-13 Q 358.40000000000003,0 358.40000000000003,0" stroke="#7570b3"/><path stroke-width="1.7" class="link" fill="none" d=" M 340,0 Q 340,-13 340,-13 A 27.600000000000023,27.600000000000023  0 0 1 395.20000000000005,-13 Q 395.20000000000005,0 395.20000000000005,0" stroke="#7570b3"/><path stroke-width="1.7" class="link" fill="none" d=" M -268.8,0 Q -268.8,-27.19999999999999 -268.8,-27.19999999999999 A 0.8000000000000114,0.8000000000000114  0 0 1 -267.2,-27.19999999999999 Q -267.2,0 -267.2,0" stroke="#7570b3"/><path stroke-width="1.7" class="link" fill="none" d=" M 72,0 Q 72,-13 72,-13 A 171.20000000000002,171.20000000000002  0 0 1 414.40000000000003,-13 Q 414.40000000000003,0 414.40000000000003,0" stroke="#7570b3"/><path stroke-width="1.7" class="link" fill="none" d=" M -13.600000000000001,0 Q -13.600000000000001,-13 -13.600000000000001,-13 A 212.8,212.8  0 0 1 412,-13 Q 412,0 412,0" stroke="#7570b3"/><path stroke-width="1.7" class="link" fill="none" d=" M 265.6,0 Q 265.6,-21.200000000000017 265.6,-21.200000000000017 A 6.799999999999983,6.799999999999983  0 0 1 279.2,-21.200000000000017 Q 279.2,0 279.2,0" stroke="#7570b3"/><path stroke-width="1.7" class="link" fill="none" d=" M 301.6,0 Q 301.6,-13 301.6,-13 A 78.4,78.4  0 0 1 458.40000000000003,-13 Q 458.40000000000003,0 458.40000000000003,0" stroke="#7570b3"/><path stroke-width="1.7" class="link" fill="none" d=" M -268.8,0 Q -268.8,-24 -268.8,-24 A 4,4  0 0 1 -260.8,-24 Q -260.8,0 -260.8,0" stroke="#7570b3"/><path stroke-width="1.7" class="link" fill="none" d=" M -240,0 Q -240,-13 -240,-13 A 113.2,113.2  0 0 1 -13.600000000000001,-13 Q -13.600000000000001,0 -13.600000000000001,0" stroke="#7570b3"/><path stroke-width="1.7" class="link" fill="none" d=" M -145.6,0 Q -145.6,-24 -145.6,-24 A 4,4  0 0 1 -137.6,-24 Q -137.6,0 -137.6,0" stroke="#7570b3"/><path stroke-width="1.7" class="link" fill="none" d=" M 340,0 Q 340,-21.19999999999999 340,-21.19999999999999 A 6.800000000000011,6.800000000000011  0 0 1 353.6,-21.19999999999999 Q 353.6,0 353.6,0" stroke="#7570b3"/><path stroke-width="1.7" class="link" fill="none" d=" M -13.600000000000001,0 Q -13.600000000000001,-13 -13.600000000000001,-13 A 33.6,33.6  0 0 1 53.6,-13 Q 53.6,0 53.6,0" stroke="#7570b3"/><path stroke-width="1.7" class="link" fill="none" d=" M 221.60000000000002,0 Q 221.60000000000002,-24.400000000000006 221.60000000000002,-24.400000000000006 A 3.5999999999999943,3.5999999999999943  0 0 1 228.8,-24.400000000000006 Q 228.8,0 228.8,0" stroke="#7570b3"/><path stroke-width="1.7" class="link" fill="none" d=" M 188.8,0 Q 188.8,-13 188.8,-13 A 38.400000000000006,38.400000000000006  0 0 1 265.6,-13 Q 265.6,0 265.6,0" stroke="#7570b3"/><path stroke-width="1.7" class="link" fill="none" d=" M -276.8,0 Q -276.8,-13 -276.8,-13 A 184.4,184.4  0 0 1 92,-13 Q 92,0 92,0" stroke="#7570b3"/><path stroke-width="1.7" class="link" fill="none" d=" M 353.6,0 Q 353.6,-13 353.6,-13 A 30.400000000000006,30.400000000000006  0 0 1 414.40000000000003,-13 Q 414.40000000000003,0 414.40000000000003,0" stroke="#7570b3"/><path stroke-width="1.7" class="link" fill="none" d=" M -519.2,0 Q -519.2,-13 -519.2,-13 A 286.40000000000003,286.40000000000003  0 0 1 53.6,-13 Q 53.6,0 53.6,0" stroke="#7570b3"/><path stroke-width="1.7" class="link" fill="none" d=" M -192,0 Q -192,-17.60000000000001 -192,-17.60000000000001 A 10.399999999999991,10.399999999999991  0 0 1 -171.20000000000002,-17.60000000000001 Q -171.20000000000002,0 -171.20000000000002,0" stroke="#7570b3"/><path stroke-width="1.7" class="link" fill="none" d=" M -13.600000000000001,0 Q -13.600000000000001,-13 -13.600000000000001,-13 A 176.8,176.8  0 0 1 340,-13 Q 340,0 340,0" stroke="#7570b3"/><path stroke-width="1.7" class="link" fill="none" d=" M -276.8,0 Q -276.8,-23.19999999999999 -276.8,-23.19999999999999 A 4.800000000000011,4.800000000000011  0 0 1 -267.2,-23.19999999999999 Q -267.2,0 -267.2,0" stroke="#7570b3"/><path stroke-width="1.7" class="link" fill="none" d=" M -472,0 Q -472,-13 -472,-13 A 163.2,163.2  0 0 1 -145.6,-13 Q -145.6,0 -145.6,0" stroke="#7570b3"/><path stroke-width="1.7" class="link" fill="none" d=" M -440.8,0 Q -440.8,-21.200000000000017 -440.8,-21.200000000000017 A 6.799999999999983,6.799999999999983  0 0 1 -427.20000000000005,-21.200000000000017 Q -427.20000000000005,0 -427.20000000000005,0" stroke="#7570b3"/><path stroke-width="1.7" class="link" fill="none" d=" M 348.8,0 Q 348.8,-13 348.8,-13 A 51.20000000000002,51.20000000000002  0 0 1 451.20000000000005,-13 Q 451.20000000000005,0 451.20000000000005,0" stroke="#7570b3"/><path stroke-width="1.7" class="link" fill="none" d=" M -440.8,0 Q -440.8,-13 -440.8,-13 A 394.8,394.8  0 0 1 348.8,-13 Q 348.8,0 348.8,0" stroke="#7570b3"/><path stroke-width="1.7" class="link" fill="none" d=" M 53.6,0 Q 53.6,-13 53.6,-13 A 139.2,139.2  0 0 1 332,-13 Q 332,0 332,0" stroke="#7570b3"/><path stroke-width="1.7" class="link" fill="none" d=" M 331.20000000000005,0 Q 331.20000000000005,-19.200000000000017 331.20000000000005,-19.200000000000017 A 8.799999999999983,8.799999999999983  0 0 1 348.8,-19.200000000000017 Q 348.8,0 348.8,0" stroke="#7570b3"/><path stroke-width="1.7" class="link" fill="none" d=" M 348.8,0 Q 348.8,-26 348.8,-26 A 2,2  0 0 1 352.8,-26 Q 352.8,0 352.8,0" stroke="#7570b3"/><path stroke-width="1.7" class="link" fill="none" d=" M -192,0 Q -192,-13 -192,-13 A 200,200  0 0 1 208,-13 Q 208,0 208,0" stroke="#7570b3"/><path stroke-width="1.7" class="link" fill="none" d=" M 348.8,0 Q 348.8,-13 348.8,-13 A 64,64  0 0 1 476.8,-13 Q 476.8,0 476.8,0" stroke="#7570b3"/><path stroke-width="1.7" class="link" fill="none" d=" M 72,0 Q 72,-13 72,-13 A 75.60000000000001,75.60000000000001  0 0 1 223.20000000000002,-13 Q 223.20000000000002,0 223.20000000000002,0" stroke="#7570b3"/><path stroke-width="1.7" class="link" fill="none" d=" M -171.20000000000002,0 Q -171.20000000000002,-13 -171.20000000000002,-13 A 114.80000000000001,114.80000000000001  0 0 1 58.400000000000006,-13 Q 58.400000000000006,0 58.400000000000006,0" stroke="#7570b3"/><path stroke-width="1.7" class="link" fill="none" d=" M -456,0 Q -456,-13 -456,-13 A 94.4,94.4  0 0 1 -267.2,-13 Q -267.2,0 -267.2,0" stroke="#7570b3"/><path stroke-width="1.7" class="link" fill="none" d=" M 72,0 Q 72,-13 72,-13 A 74.80000000000001,74.80000000000001  0 0 1 221.60000000000002,-13 Q 221.60000000000002,0 221.60000000000002,0" stroke="#7570b3"/><path stroke-width="1.7" class="link" fill="none" d=" M 72,0 Q 72,-13 72,-13 A 136.4,136.4  0 0 1 344.8,-13 Q 344.8,0 344.8,0" stroke="#7570b3"/><path stroke-width="1.7" class="link" fill="none" d=" M -521.6,0 Q -521.6,-26.80000000000001 -521.6,-26.80000000000001 A 1.1999999999999886,1.1999999999999886  0 0 1 -519.2,-26.80000000000001 Q -519.2,0 -519.2,0" stroke="#7570b3"/><path stroke-width="1.7" class="link" fill="none" d=" M 331.20000000000005,0 Q 331.20000000000005,-23.600000000000023 331.20000000000005,-23.600000000000023 A 4.399999999999977,4.399999999999977  0 0 1 340,-23.600000000000023 Q 340,0 340,0" stroke="#7570b3"/><path stroke-width="1.7" class="link" fill="none" d=" M -13.600000000000001,0 Q -13.600000000000001,-13 -13.600000000000001,-13 A 80.4,80.4  0 0 1 147.20000000000002,-13 Q 147.20000000000002,0 147.20000000000002,0" stroke="#7570b3"/><path stroke-width="1.7" class="link" fill="none" d=" M -13.600000000000001,0 Q -13.600000000000001,-13 -13.600000000000001,-13 A 52.8,52.8  0 0 1 92,-13 Q 92,0 92,0" stroke="#7570b3"/><path stroke-width="1.7" class="link" fill="none" d=" M 72,0 Q 72,-13 72,-13 A 221.2,221.2  0 0 1 514.4,-13 Q 514.4,0 514.4,0" stroke="#7570b3"/><path stroke-width="1.7" class="link" fill="none" d=" M 53.6,0 Q 53.6,-25.599999999999998 53.6,-25.599999999999998 A 2.400000000000002,2.400000000000002  0 0 1 58.400000000000006,-25.599999999999998 Q 58.400000000000006,0 58.400000000000006,0" stroke="#7570b3"/><path stroke-width="1.7" class="link" fill="none" d=" M 358.40000000000003,0 Q 358.40000000000003,-13 358.40000000000003,-13 A 18.400000000000006,18.400000000000006  0 0 1 395.20000000000005,-13 Q 395.20000000000005,0 395.20000000000005,0" stroke="#7570b3"/><path stroke-width="1.7" class="link" fill="none" d=" M -13.600000000000001,0 Q -13.600000000000001,-13 -13.600000000000001,-13 A 183.60000000000002,183.60000000000002  0 0 1 353.6,-13 Q 353.6,0 353.6,0" stroke="#7570b3"/><path stroke-width="1.7" class="link" fill="none" d=" M 348.8,0 Q 348.8,-23.19999999999999 348.8,-23.19999999999999 A 4.800000000000011,4.800000000000011  0 0 1 358.40000000000003,-23.19999999999999 Q 358.40000000000003,0 358.40000000000003,0" stroke="#7570b3"/><path stroke-width="1.7" class="link" fill="none" d=" M 348.8,0 Q 348.8,-13 348.8,-13 A 82.79999999999998,82.79999999999998  0 0 1 514.4,-13 Q 514.4,0 514.4,0" stroke="#7570b3"/><path stroke-width="1.7" class="link" fill="none" d=" M 348.8,0 Q 348.8,-13 348.8,-13 A 28,28  0 0 1 404.8,-13 Q 404.8,0 404.8,0" stroke="#7570b3"/><path stroke-width="1.7" class="link" fill="none" d=" M -140.8,0 Q -140.8,-13 -140.8,-13 A 97.2,97.2  0 0 1 53.6,-13 Q 53.6,0 53.6,0" stroke="#7570b3"/><path stroke-width="1.7" class="link" fill="none" d=" M 132.8,0 Q 132.8,-13 132.8,-13 A 162.8,162.8  0 0 1 458.40000000000003,-13 Q 458.40000000000003,0 458.40000000000003,0" stroke="#7570b3"/><path stroke-width="1.7" class="link" fill="none" d=" M -145.6,0 Q -145.6,-13 -145.6,-13 A 176.8,176.8  0 0 1 208,-13 Q 208,0 208,0" stroke="#7570b3"/><path stroke-width="1.7" class="link" fill="none" d=" M -145.6,0 Q -145.6,-13 -145.6,-13 A 270.40000000000003,270.40000000000003  0 0 1 395.20000000000005,-13 Q 395.20000000000005,0 395.20000000000005,0" stroke="#7570b3"/><path stroke-width="1.7" class="link" fill="none" d=" M 147.20000000000002,0 Q 147.20000000000002,-13 147.20000000000002,-13 A 65.99999999999999,65.99999999999999  0 0 1 279.2,-13 Q 279.2,0 279.2,0" stroke="#7570b3"/><path stroke-width="1.7" class="link" fill="none" d=" M 72,0 Q 72,-13 72,-13 A 193.20000000000002,193.20000000000002  0 0 1 458.40000000000003,-13 Q 458.40000000000003,0 458.40000000000003,0" stroke="#7570b3"/><path stroke-width="1.7" class="link" fill="none" d=" M 322.40000000000003,0 Q 322.40000000000003,-13 322.40000000000003,-13 A 58.400000000000006,58.400000000000006  0 0 1 439.20000000000005,-13 Q 439.20000000000005,0 439.20000000000005,0" stroke="#7570b3"/><path stroke-width="1.7" class="link" fill="none" d=" M 72,0 Q 72,-13 72,-13 A 33.2,33.2  0 0 1 138.4,-13 Q 138.4,0 138.4,0" stroke="#7570b3"/><path stroke-width="1.7" class="link" fill="none" d=" M -145.6,0 Q -145.6,-13 -145.6,-13 A 66,66  0 0 1 -13.600000000000001,-13 Q -13.600000000000001,0 -13.600000000000001,0" stroke="#7570b3"/><path stroke-width="1.7" class="link" fill="none" d=" M -145.6,0 Q -145.6,-13 -145.6,-13 A 99.6,99.6  0 0 1 53.6,-13 Q 53.6,0 53.6,0" stroke="#7570b3"/><path stroke-width="1.7" class="link" fill="none" d=" M 212.8,0 Q 212.8,-13 212.8,-13 A 26.400000000000006,26.400000000000006  0 0 1 265.6,-13 Q 265.6,0 265.6,0" stroke="#7570b3"/><path stroke-width="1.7" class="link" fill="none" d=" M -13.600000000000001,0 Q -13.600000000000001,-13 -13.600000000000001,-13 A 204.40000000000003,204.40000000000003  0 0 1 395.20000000000005,-13 Q 395.20000000000005,0 395.20000000000005,0" stroke="#7570b3"/><path stroke-width="1.7" class="link" fill="none" d=" M 72,0 Q 72,-13 72,-13 A 140.8,140.8  0 0 1 353.6,-13 Q 353.6,0 353.6,0" stroke="#7570b3"/><path stroke-width="1.7" class="link" fill="none" d=" M -519.2,0 Q -519.2,-13 -519.2,-13 A 163.60000000000002,163.60000000000002  0 0 1 -192,-13 Q -192,0 -192,0" stroke="#7570b3"/><path stroke-width="1.7" class="link" fill="none" d=" M -267.2,0 Q -267.2,-13 -267.2,-13 A 310.4,310.4  0 0 1 353.6,-13 Q 353.6,0 353.6,0" stroke="#7570b3"/><path stroke-width="1.7" class="link" fill="none" d=" M 348.8,0 Q 348.8,-13 348.8,-13 A 23.200000000000017,23.200000000000017  0 0 1 395.20000000000005,-13 Q 395.20000000000005,0 395.20000000000005,0" stroke="#7570b3"/><path stroke-width="1.7" class="link" fill="none" d=" M -456.8,0 Q -456.8,-13 -456.8,-13 A 90,90  0 0 1 -276.8,-13 Q -276.8,0 -276.8,0" stroke="#7570b3"/><path stroke-width="1.7" class="link" fill="none" d=" M -359.20000000000005,0 Q -359.20000000000005,-13 -359.20000000000005,-13 A 222.40000000000003,222.40000000000003  0 0 1 85.60000000000001,-13 Q 85.60000000000001,0 85.60000000000001,0" stroke="#7570b3"/><path stroke-width="1.7" class="link" fill="none" d=" M 353.6,0 Q 353.6,-13 353.6,-13 A 80.39999999999998,80.39999999999998  0 0 1 514.4,-13 Q 514.4,0 514.4,0" stroke="#7570b3"/><path stroke-width="1.7" class="link" fill="none" d=" M -13.600000000000001,0 Q -13.600000000000001,-13 -13.600000000000001,-13 A 185.60000000000002,185.60000000000002  0 0 1 357.6,-13 Q 357.6,0 357.6,0" stroke="#7570b3"/><path stroke-width="1.7" class="link" fill="none" d=" M -36,0 Q -36,-23.200000000000003 -36,-23.200000000000003 A 4.799999999999999,4.799999999999999  0 0 1 -26.400000000000002,-23.200000000000003 Q -26.400000000000002,0 -26.400000000000002,0" stroke="#7570b3"/><path stroke-width="1.7" class="link" fill="none" d=" M 353.6,0 Q 353.6,-25.599999999999994 353.6,-25.599999999999994 A 2.4000000000000057,2.4000000000000057  0 0 1 358.40000000000003,-25.599999999999994 Q 358.40000000000003,0 358.40000000000003,0" stroke="#7570b3"/><path stroke-width="1.7" class="link" fill="none" d=" M -145.6,0 Q -145.6,-13 -145.6,-13 A 96.8,96.8  0 0 1 48,-13 Q 48,0 48,0" stroke="#7570b3"/><path stroke-width="1.7" class="link" fill="none" d=" M 348.8,0 Q 348.8,-13 348.8,-13 A 32.80000000000001,32.80000000000001  0 0 1 414.40000000000003,-13 Q 414.40000000000003,0 414.40000000000003,0" stroke="#7570b3"/><path stroke-width="1.7" class="link" fill="none" d=" M 348.8,0 Q 348.8,-13 348.8,-13 A 45.20000000000002,45.20000000000002  0 0 1 439.20000000000005,-13 Q 439.20000000000005,0 439.20000000000005,0" stroke="#7570b3"/><path stroke-width="1.7" class="link" fill="none" d=" M 395.20000000000005,0 Q 395.20000000000005,-19.600000000000023 395.20000000000005,-19.600000000000023 A 8.399999999999977,8.399999999999977  0 0 1 412,-19.600000000000023 Q 412,0 412,0" stroke="#7570b3"/><path stroke-width="1.7" class="link" fill="none" d=" M -267.2,0 Q -267.2,-13 -267.2,-13 A 312.4,312.4  0 0 1 357.6,-13 Q 357.6,0 357.6,0" stroke="#7570b3"/></g><rect stroke="black" stroke-width="1" fill="#f28e2c" fill-opacity="0" x="-548.4" y="-10" width="1097.6000000000001" height="20" rx="0" ry="0" stroke-opacity="1"/><g opacity="1" transform="scale(1,1)"><g transform="translate(-548 0)"><text class="xinetAxisLabel" font-family="monospace" font-size="14" text-anchor="middle" x="0" y="24" transform="scale(1,1)">1</text></g><line x1="-468.8" y1="5" x2="-468.8" y2="10" stroke="black"/><line x1="-388.8" y1="5" x2="-388.8" y2="10" stroke="black"/><g transform="translate(-388.8 0)"><text class="xinetAxisLabel" font-family="monospace" font-size="14" text-anchor="middle" x="0" y="24" transform="scale(1,1)">200</text></g><line x1="-308.8" y1="5" x2="-308.8" y2="10" stroke="black"/><line x1="-228.8" y1="5" x2="-228.8" y2="10" stroke="black"/><g transform="translate(-228.8 0)"><text class="xinetAxisLabel" font-family="monospace" font-size="14" text-anchor="middle" x="0" y="24" transform="scale(1,1)">400</text></g><line x1="-148.8" y1="5" x2="-148.8" y2="10" stroke="black"/><line x1="-68.8" y1="5" x2="-68.8" y2="10" stroke="black"/><g transform="translate(-68.8 0)"><text class="xinetAxisLabel" font-family="monospace" font-size="14" text-anchor="middle" x="0" y="24" transform="scale(1,1)">600</text></g><line x1="11.200000000000001" y1="5" x2="11.200000000000001" y2="10" stroke="black"/><line x1="91.2" y1="5" x2="91.2" y2="10" stroke="black"/><g transform="translate(91.2 0)"><text class="xinetAxisLabel" font-family="monospace" font-size="14" text-anchor="middle" x="0" y="24" transform="scale(1,1)">800</text></g><line x1="171.20000000000002" y1="5" x2="171.20000000000002" y2="10" stroke="black"/><line x1="251.20000000000002" y1="5" x2="251.20000000000002" y2="10" stroke="black"/><g transform="translate(251.20000000000002 0)"><text class="xinetAxisLabel" font-family="monospace" font-size="14" text-anchor="middle" x="0" y="24" transform="scale(1,1)">1000</text></g><line x1="331.20000000000005" y1="5" x2="331.20000000000005" y2="10" stroke="black"/><line x1="411.20000000000005" y1="5" x2="411.20000000000005" y2="10" stroke="black"/><g transform="translate(411.20000000000005 0)"><text class="xinetAxisLabel" font-family="monospace" font-size="14" text-anchor="middle" x="0" y="24" transform="scale(1,1)">1200</text></g><line x1="491.20000000000005" y1="5" x2="491.20000000000005" y2="10" stroke="black"/><g transform="translate(548.8000000000001 0)"><text class="xinetAxisLabel" font-family="monospace" font-size="14" text-anchor="middle" x="0" y="24" transform="scale(1,1)">1372</text></g></g><text text-anchor="middle" dominant-baseline="middle" fill="black" x="0" y="0" class="protein xlv_text proteinLabel" transform="matrix(1, 0, 0, 1, -577.233, 0)">CAS9</text><g transform="translate(-565.9 0)"><g class="PV_rotator"/></g><g transform="translate(566.7 0)"><g class="PV_rotator"/></g></g></g></g></g></svg></svg>