<svg width="2560px" height="1167px" style="accent-color: auto; align-content: normal; align-items: normal; align-self: auto; animation-composition: replace; animation-delay: 0s; animation-direction: normal; animation-duration: 0s; animation-fill-mode: none; animation-iteration-count: 1; animation-name: none; animation-play-state: running; animation-timing-function: ease; appearance: none; aspect-ratio: auto; backdrop-filter: none; backface-visibility: visible; background-attachment: scroll; background-blend-mode: normal; background-clip: border-box; background-color: rgba(0, 0, 0, 0); background-image: none; background-origin: padding-box; background-position-x: 0%; background-position-y: 0%; background-repeat: repeat; background-size: auto; baseline-source: auto; block-size: 1167px; border-block-end-color: rgb(136, 136, 136); border-block-end-style: none; border-block-end-width: 0px; border-block-start-color: rgb(136, 136, 136); border-block-start-style: none; border-block-start-width: 0px; border-bottom-color: rgb(136, 136, 136); border-bottom-left-radius: 0px; border-bottom-right-radius: 0px; border-bottom-style: none; border-bottom-width: 0px; border-collapse: separate; border-end-end-radius: 0px; border-end-start-radius: 0px; border-image-outset: 0; border-image-repeat: stretch; border-image-slice: 100%; border-image-source: none; border-image-width: 1; border-inline-end-color: rgb(136, 136, 136); border-inline-end-style: none; border-inline-end-width: 0px; border-inline-start-color: rgb(136, 136, 136); border-inline-start-style: none; border-inline-start-width: 0px; border-left-color: rgb(136, 136, 136); border-left-style: none; border-left-width: 0px; border-right-color: rgb(136, 136, 136); border-right-style: none; border-right-width: 0px; border-spacing: 0px; border-start-end-radius: 0px; border-start-start-radius: 0px; border-top-color: rgb(136, 136, 136); border-top-left-radius: 0px; border-top-right-radius: 0px; border-top-style: none; border-top-width: 0px; bottom: auto; box-decoration-break: slice; box-shadow: none; box-sizing: border-box; break-after: auto; break-before: auto; break-inside: auto; caption-side: top; caret-color: rgb(136, 136, 136); clear: none; clip: auto; clip-path: none; clip-rule: nonzero; color: rgb(136, 136, 136); color-interpolation: srgb; color-interpolation-filters: linearrgb; color-scheme: normal; column-count: auto; column-fill: balance; column-gap: normal; column-rule-color: rgb(136, 136, 136); column-rule-style: none; column-rule-width: 0px; column-span: none; column-width: auto; contain: none; contain-intrinsic-block-size: none; contain-intrinsic-height: none; contain-intrinsic-inline-size: none; contain-intrinsic-width: none; container-name: none; container-type: normal; content: normal; content-visibility: visible; counter-increment: none; counter-reset: none; counter-set: none; cursor: auto; cx: 0px; cy: 0px; d: none; direction: ltr; display: inline; dominant-baseline: auto; empty-cells: show; fill: rgb(0, 0, 0); fill-opacity: 1; fill-rule: nonzero; filter: none; flex-basis: auto; flex-direction: row; flex-grow: 0; flex-shrink: 1; flex-wrap: nowrap; float: none; flood-color: rgb(0, 0, 0); flood-opacity: 1; font-family: &quot;Lato-Regular&quot;, Helvetica, Arial, sans-serif; font-feature-settings: normal; font-kerning: auto; font-language-override: normal; font-optical-sizing: auto; font-palette: normal; font-size: 13.3333px; font-size-adjust: none; font-stretch: 100%; font-style: normal; font-synthesis-position: auto; font-synthesis-small-caps: auto; font-synthesis-style: auto; font-synthesis-weight: auto; font-variant-alternates: normal; font-variant-caps: normal; font-variant-east-asian: normal; font-variant-emoji: normal; font-variant-ligatures: normal; font-variant-numeric: normal; font-variant-position: normal; font-variation-settings: normal; font-weight: 300; forced-color-adjust: auto; grid-auto-columns: auto; grid-auto-flow: row; grid-auto-rows: auto; grid-column-end: auto; grid-column-start: auto; grid-row-end: auto; grid-row-start: auto; grid-template-areas: none; grid-template-columns: none; grid-template-rows: none; height: 1167px; hyphenate-character: auto; hyphenate-limit-chars: auto; hyphens: manual; image-orientation: from-image; image-rendering: auto; ime-mode: auto; inline-size: 2560px; inset-block-end: auto; inset-block-start: auto; inset-inline-end: auto; inset-inline-start: auto; isolation: auto; justify-content: normal; justify-items: normal; justify-self: auto; left: auto; letter-spacing: normal; lighting-color: rgb(255, 255, 255); line-break: auto; line-height: 23.3333px; list-style-image: none; list-style-position: outside; list-style-type: disc; margin-block-end: 0px; margin-block-start: 0px; margin-bottom: 0px; margin-inline-end: 0px; margin-inline-start: 0px; margin-left: 0px; margin-right: 0px; margin-top: 0px; marker-end: none; marker-mid: none; marker-start: none; mask-clip: border-box; mask-composite: add; mask-image: none; mask-mode: match-source; mask-origin: border-box; mask-position-x: 0%; mask-position-y: 0%; mask-repeat: repeat; mask-size: auto; mask-type: luminance; math-depth: 0; math-style: normal; max-block-size: none; max-height: none; max-inline-size: none; max-width: none; min-block-size: 0px; min-height: 0px; min-inline-size: 0px; min-width: 0px; mix-blend-mode: normal; object-fit: fill; object-position: 50% 50%; offset-anchor: auto; offset-distance: 0px; offset-path: none; offset-position: normal; offset-rotate: auto; opacity: 1; order: 0; outline-color: rgb(136, 136, 136); outline-offset: 0px; outline-style: none; outline-width: 0px; overflow-anchor: auto; overflow-block: hidden; overflow-clip-margin: 0px; overflow-inline: hidden; overflow-wrap: normal; overflow-x: hidden; overflow-y: hidden; overscroll-behavior-block: auto; overscroll-behavior-inline: auto; overscroll-behavior-x: auto; overscroll-behavior-y: auto; padding-block-end: 0px; padding-block-start: 0px; padding-bottom: 0px; padding-inline-end: 0px; padding-inline-start: 0px; padding-left: 0px; padding-right: 0px; padding-top: 0px; page: auto; paint-order: normal; perspective: none; perspective-origin: 1280px 583.5px; pointer-events: visible; position: static; print-color-adjust: economy; quotes: auto; r: 0px; resize: none; right: auto; rotate: none; row-gap: normal; ruby-align: space-around; ruby-position: alternate; rx: auto; ry: auto; scale: none; scroll-behavior: auto; scroll-margin-block-end: 0px; scroll-margin-block-start: 0px; scroll-margin-bottom: 0px; scroll-margin-inline-end: 0px; scroll-margin-inline-start: 0px; scroll-margin-left: 0px; scroll-margin-right: 0px; scroll-margin-top: 0px; scroll-padding-block-end: auto; scroll-padding-block-start: auto; scroll-padding-bottom: auto; scroll-padding-inline-end: auto; scroll-padding-inline-start: auto; scroll-padding-left: auto; scroll-padding-right: auto; scroll-padding-top: auto; scroll-snap-align: none; scroll-snap-stop: normal; scroll-snap-type: none; scrollbar-color: auto; scrollbar-gutter: auto; scrollbar-width: auto; shape-image-threshold: 0; shape-margin: 0px; shape-outside: none; shape-rendering: auto; stop-color: rgb(0, 0, 0); stop-opacity: 1; stroke: none; stroke-dasharray: none; stroke-dashoffset: 0px; stroke-linecap: butt; stroke-linejoin: miter; stroke-miterlimit: 4; stroke-opacity: 1; stroke-width: 1px; tab-size: 8; table-layout: auto; text-align: start; text-align-last: auto; text-anchor: start; text-autospace: no-autospace; text-combine-upright: none; text-decoration-color: rgb(136, 136, 136); text-decoration-line: none; text-decoration-skip-ink: auto; text-decoration-style: solid; text-decoration-thickness: auto; text-emphasis-color: rgb(136, 136, 136); text-emphasis-position: auto; text-emphasis-style: none; text-indent: 0px; text-justify: auto; text-orientation: mixed; text-overflow: clip; text-rendering: auto; text-shadow: none; text-transform: none; text-underline-offset: auto; text-underline-position: auto; text-wrap-mode: wrap; text-wrap-style: auto; top: auto; touch-action: auto; transform: none; transform-box: view-box; transform-origin: 1280px 583.5px; transform-style: flat; transition-behavior: normal; transition-delay: 0s; transition-duration: 0s; transition-property: all; transition-timing-function: ease; translate: none; unicode-bidi: normal; user-select: none; vector-effect: none; vertical-align: baseline; view-transition-class: none; view-transition-name: none; visibility: visible; white-space-collapse: collapse; width: 2560px; will-change: auto; word-break: normal; word-spacing: 0px; writing-mode: horizontal-tb; x: 0px; y: 0px; z-index: auto; zoom: 1; -moz-box-align: stretch; -moz-box-direction: normal; -moz-box-flex: 0; -moz-box-ordinal-group: 1; -moz-box-orient: horizontal; -moz-box-pack: start; -moz-float-edge: content-box; -moz-force-broken-image-icon: 0; -moz-orient: inline; -moz-text-size-adjust: none; -webkit-line-clamp: none; -webkit-text-fill-color: rgb(136, 136, 136); -webkit-text-security: none; -webkit-text-stroke-color: rgb(136, 136, 136); -webkit-text-stroke-width: 0px; --dt-html-background: white; --dt-column-ordering: 0, 0, 0; --dt-row-hover: 0, 0, 0; --dt-row-stripe: 0, 0, 0; --dt-row-selected-link: 9, 10, 11; --dt-row-selected-text: 255, 255, 255; --dt-row-selected: 13, 110, 253; --main-color: #091D42; " version="1.1" xmlns="http://www.w3.org/2000/svg" xmlns:xlink="http://www.w3.org/1999/xlink"><style  type="text/css">*, ::after, ::before { box-sizing: border-box; }
.protein { cursor: crosshair; pointer-events: visible; }
.link { cursor: crosshair; pointer-events: auto; }
.selectedProtein { stroke: rgb(255, 255, 153); }
.selectedLink { stroke: rgb(255, 255, 153); }
svg { user-select: none; }
.xlv_text { text-shadow: white -1px -1px 0px, white 1px -1px 0px, white -1px 1px 0px, white 1px 1px 0px; }
.xinetAxisLabel { pointer-events: none; }
.proteinLabel { font-size: 10pt; font-weight: bold; }</style><svg width="100%" height="100%" style="pointer-events:visible"><g transform="matrix(1,0,0,1,0,0)"><g id="container" transform="matrix(6.022309303283691,0,0,6.022309303283691,-2300.920654296875,-6884.2880859375)"><g id="groupsSVG"/><g id="p_pLinksWide"/><g id="proteinLower"><g class="protein lowerGroup" transform="translate(576.6572501210653 1254.795111493024) scale(0.16604925692081451) rotate(0)"><rect fill-opacity="1" fill="#f28e2c" x="-548.4" y="-10" width="1097.6000000000001" height="20" rx="0" ry="0" stroke-opacity="1"/><g opacity="1" transform="scale(1, 1)"/><g transform="scale(0.8, 1)"/></g><g class="protein lowerGroup" transform="translate(586.638916015625 1274.474853515625) scale(0.16604925692081451) "><rect fill-opacity="1" fill="#FFFFFF" x="-12" y="-12" width="24" height="24" rx="12" ry="12" stroke-opacity="1"/><g transform="scale(1, 1)"/></g></g><g class="highlights"/><g id="res_resLinks"><line stroke-linecap="round" class="link" fill="none" stroke-width="0.28228373676538465" x1="602.5609342007124" y1="1254.795111493024" x2="586.638916015625" y2="1274.474853515625" stroke="#1b9e77"/><line stroke-linecap="round" class="link" fill="none" stroke-width="0.28228373676538465" x1="557.2626969127142" y1="1254.795111493024" x2="586.638916015625" y2="1274.474853515625" stroke="#1b9e77"/><line stroke-linecap="round" class="link" fill="none" stroke-width="0.28228373676538465" x1="634.5752309350454" y1="1254.795111493024" x2="586.638916015625" y2="1274.474853515625" stroke="#1b9e77"/><line stroke-linecap="round" class="link" fill="none" stroke-width="0.28228373676538465" x1="552.4804783133948" y1="1254.795111493024" x2="586.638916015625" y2="1274.474853515625" stroke="#1b9e77"/><line stroke-linecap="round" class="link" fill="none" stroke-width="0.28228373676538465" x1="645.0695439724409" y1="1254.795111493024" x2="586.638916015625" y2="1274.474853515625" stroke="#1b9e77"/></g><g id="p_pLinks"/><g id="proteinUpper"><g class="protein upperGroup" transform="translate(576.6572501210653 1254.795111493024) scale(0.16604925692081451) rotate(0)"><g/><g><path stroke-width="1.7" class="link" fill="none" d=" M 223.20000000000002,0 Q 223.20000000000002,-25.200000000000003 223.20000000000002,-25.200000000000003 A 2.799999999999997,2.799999999999997  0 0 1 228.8,-25.200000000000003 Q 228.8,0 228.8,0" stroke="#7570b3"/><path stroke-width="1.7" class="link" fill="none" d=" M 72,0 Q 72,-13 72,-13 A 138.4,138.4  0 0 1 348.8,-13 Q 348.8,0 348.8,0" stroke="#7570b3"/><path stroke-width="1.7" class="link" fill="none" d=" M 331.20000000000005,0 Q 331.20000000000005,-13 331.20000000000005,-13 A 41.599999999999994,41.599999999999994  0 0 1 414.40000000000003,-13 Q 414.40000000000003,0 414.40000000000003,0" stroke="#7570b3"/><path stroke-width="1.7" class="link" fill="none" d=" M 228.8,0 Q 228.8,-13 228.8,-13 A 114.80000000000001,114.80000000000001  0 0 1 458.40000000000003,-13 Q 458.40000000000003,0 458.40000000000003,0" stroke="#7570b3"/><path stroke-width="1.7" class="link" fill="none" d=" M -4,0 Q -4,-13 -4,-13 A 199.60000000000002,199.60000000000002  0 0 1 395.20000000000005,-13 Q 395.20000000000005,0 395.20000000000005,0" stroke="#7570b3"/><path stroke-width="1.7" class="link" fill="none" d=" M -276.8,0 Q -276.8,-13 -276.8,-13 A 312.8,312.8  0 0 1 348.8,-13 Q 348.8,0 348.8,0" stroke="#7570b3"/><path stroke-width="1.7" class="link" fill="none" d=" M -13.600000000000001,0 Q -13.600000000000001,-13 -13.600000000000001,-13 A 18,18  0 0 1 22.400000000000002,-13 Q 22.400000000000002,0 22.400000000000002,0" stroke="#7570b3"/><path stroke-width="1.7" class="link" fill="none" d=" M -192,0 Q -192,-13 -192,-13 A 202.4,202.4  0 0 1 212.8,-13 Q 212.8,0 212.8,0" stroke="#7570b3"/><path stroke-width="1.7" class="link" fill="none" d=" M 340,0 Q 340,-13 340,-13 A 27.600000000000023,27.600000000000023  0 0 1 395.20000000000005,-13 Q 395.20000000000005,0 395.20000000000005,0" stroke="#7570b3"/><path stroke-width="1.7" class="link" fill="none" d=" M -116.80000000000001,0 Q -116.80000000000001,-13 -116.80000000000001,-13 A 235.20000000000002,235.20000000000002  0 0 1 353.6,-13 Q 353.6,0 353.6,0" stroke="#7570b3"/><path stroke-width="1.7" class="link" fill="none" d=" M 301.6,0 Q 301.6,-13 301.6,-13 A 78.4,78.4  0 0 1 458.40000000000003,-13 Q 458.40000000000003,0 458.40000000000003,0" stroke="#7570b3"/><path stroke-width="1.7" class="link" fill="none" d=" M -13.600000000000001,0 Q -13.600000000000001,-13 -13.600000000000001,-13 A 212.8,212.8  0 0 1 412,-13 Q 412,0 412,0" stroke="#7570b3"/><path stroke-width="1.7" class="link" fill="none" d=" M -123.2,0 Q -123.2,-24.800000000000004 -123.2,-24.800000000000004 A 3.1999999999999957,3.1999999999999957  0 0 1 -116.80000000000001,-24.800000000000004 Q -116.80000000000001,0 -116.80000000000001,0" stroke="#7570b3"/><path stroke-width="1.7" class="link" fill="none" d=" M -519.2,0 Q -519.2,-13 -519.2,-13 A 286.40000000000003,286.40000000000003  0 0 1 53.6,-13 Q 53.6,0 53.6,0" stroke="#7570b3"/><path stroke-width="1.7" class="link" fill="none" d=" M -519.2,0 Q -519.2,-13 -519.2,-13 A 201.20000000000002,201.20000000000002  0 0 1 -116.80000000000001,-13 Q -116.80000000000001,0 -116.80000000000001,0" stroke="#7570b3"/><path stroke-width="1.7" class="link" fill="none" d=" M -276.8,0 Q -276.8,-23.19999999999999 -276.8,-23.19999999999999 A 4.800000000000011,4.800000000000011  0 0 1 -267.2,-23.19999999999999 Q -267.2,0 -267.2,0" stroke="#7570b3"/><path stroke-width="1.7" class="link" fill="none" d=" M -456.8,0 Q -456.8,-13 -456.8,-13 A 221.6,221.6  0 0 1 -13.600000000000001,-13 Q -13.600000000000001,0 -13.600000000000001,0" stroke="#7570b3"/><path stroke-width="1.7" class="link" fill="none" d=" M 72,0 Q 72,-13 72,-13 A 129.60000000000002,129.60000000000002  0 0 1 331.20000000000005,-13 Q 331.20000000000005,0 331.20000000000005,0" stroke="#7570b3"/><path stroke-width="1.7" class="link" fill="none" d=" M -192,0 Q -192,-13 -192,-13 A 23.200000000000003,23.200000000000003  0 0 1 -145.6,-13 Q -145.6,0 -145.6,0" stroke="#7570b3"/><path stroke-width="1.7" class="link" fill="none" d=" M -13.600000000000001,0 Q -13.600000000000001,-13 -13.600000000000001,-13 A 245.20000000000002,245.20000000000002  0 0 1 476.8,-13 Q 476.8,0 476.8,0" stroke="#7570b3"/><path stroke-width="1.7" class="link" fill="none" d=" M -145.6,0 Q -145.6,-13 -145.6,-13 A 176.8,176.8  0 0 1 208,-13 Q 208,0 208,0" stroke="#7570b3"/><path stroke-width="1.7" class="link" fill="none" d=" M 344.8,0 Q 344.8,-26 344.8,-26 A 2,2  0 0 1 348.8,-26 Q 348.8,0 348.8,0" stroke="#7570b3"/><path stroke-width="1.7" class="link" fill="none" d=" M 22.400000000000002,0 Q 22.400000000000002,-13 22.400000000000002,-13 A 194.8,194.8  0 0 1 412,-13 Q 412,0 412,0" stroke="#7570b3"/><path stroke-width="1.7" class="link" fill="none" d=" M -268.8,0 Q -268.8,-13 -268.8,-13 A 308.8,308.8  0 0 1 348.8,-13 Q 348.8,0 348.8,0" stroke="#7570b3"/><path stroke-width="1.7" class="link" fill="none" d=" M -456.8,0 Q -456.8,-13 -456.8,-13 A 90,90  0 0 1 -276.8,-13 Q -276.8,0 -276.8,0" stroke="#7570b3"/><path stroke-width="1.7" class="link" fill="none" d=" M -359.20000000000005,0 Q -359.20000000000005,-13 -359.20000000000005,-13 A 222.40000000000003,222.40000000000003  0 0 1 85.60000000000001,-13 Q 85.60000000000001,0 85.60000000000001,0" stroke="#7570b3"/><path stroke-width="1.7" class="link" fill="none" d=" M 348.8,0 Q 348.8,-13 348.8,-13 A 64,64  0 0 1 476.8,-13 Q 476.8,0 476.8,0" stroke="#7570b3"/><path stroke-width="1.7" class="link" fill="none" d=" M 72,0 Q 72,-13 72,-13 A 188.8,188.8  0 0 1 449.6,-13 Q 449.6,0 449.6,0" stroke="#7570b3"/><path stroke-width="1.7" class="link" fill="none" d=" M -36,0 Q -36,-23.200000000000003 -36,-23.200000000000003 A 4.799999999999999,4.799999999999999  0 0 1 -26.400000000000002,-23.200000000000003 Q -26.400000000000002,0 -26.400000000000002,0" stroke="#7570b3"/><path stroke-width="1.7" class="link" fill="none" d=" M 72,0 Q 72,-13 72,-13 A 193.20000000000002,193.20000000000002  0 0 1 458.40000000000003,-13 Q 458.40000000000003,0 458.40000000000003,0" stroke="#7570b3"/><path stroke-width="1.7" class="link" fill="none" d=" M -359.20000000000005,0 Q -359.20000000000005,-13 -359.20000000000005,-13 A 215.60000000000002,215.60000000000002  0 0 1 72,-13 Q 72,0 72,0" stroke="#7570b3"/><path stroke-width="1.7" class="link" fill="none" d=" M 48,0 Q 48,-13 48,-13 A 142,142  0 0 1 332,-13 Q 332,0 332,0" stroke="#7570b3"/><path stroke-width="1.7" class="link" fill="none" d=" M 48,0 Q 48,-13 48,-13 A 182,182  0 0 1 412,-13 Q 412,0 412,0" stroke="#7570b3"/><path stroke-width="1.7" class="link" fill="none" d=" M -519.2,0 Q -519.2,-13 -519.2,-13 A 139.60000000000002,139.60000000000002  0 0 1 -240,-13 Q -240,0 -240,0" stroke="#7570b3"/><path stroke-width="1.7" class="link" fill="none" d=" M -13.600000000000001,0 Q -13.600000000000001,-13 -13.600000000000001,-13 A 181.20000000000002,181.20000000000002  0 0 1 348.8,-13 Q 348.8,0 348.8,0" stroke="#7570b3"/><path stroke-width="1.7" class="link" fill="none" d=" M 322.40000000000003,0 Q 322.40000000000003,-13 322.40000000000003,-13 A 58.400000000000006,58.400000000000006  0 0 1 439.20000000000005,-13 Q 439.20000000000005,0 439.20000000000005,0" stroke="#7570b3"/><path stroke-width="1.7" class="link" fill="none" d=" M 348.8,0 Q 348.8,-25.599999999999994 348.8,-25.599999999999994 A 2.4000000000000057,2.4000000000000057  0 0 1 353.6,-25.599999999999994 Q 353.6,0 353.6,0" stroke="#7570b3"/></g><rect stroke="black" stroke-width="1" fill="#f28e2c" fill-opacity="0" x="-548.4" y="-10" width="1097.6000000000001" height="20" rx="0" ry="0" stroke-opacity="1"/><g transform="scale(1,1)" opacity="1"><g transform="translate(-548 0)"><text class="xinetAxisLabel" font-family="monospace" font-size="14" text-anchor="middle" x="0" y="24" transform="scale(1,1)">1</text></g><line x1="-468.8" y1="5" x2="-468.8" y2="10" stroke="black"/><line x1="-388.8" y1="5" x2="-388.8" y2="10" stroke="black"/><g transform="translate(-388.8 0)"><text class="xinetAxisLabel" font-family="monospace" font-size="14" text-anchor="middle" x="0" y="24" transform="scale(1,1)">200</text></g><line x1="-308.8" y1="5" x2="-308.8" y2="10" stroke="black"/><line x1="-228.8" y1="5" x2="-228.8" y2="10" stroke="black"/><g transform="translate(-228.8 0)"><text class="xinetAxisLabel" font-family="monospace" font-size="14" text-anchor="middle" x="0" y="24" transform="scale(1,1)">400</text></g><line x1="-148.8" y1="5" x2="-148.8" y2="10" stroke="black"/><line x1="-68.8" y1="5" x2="-68.8" y2="10" stroke="black"/><g transform="translate(-68.8 0)"><text class="xinetAxisLabel" font-family="monospace" font-size="14" text-anchor="middle" x="0" y="24" transform="scale(1,1)">600</text></g><line x1="11.200000000000001" y1="5" x2="11.200000000000001" y2="10" stroke="black"/><line x1="91.2" y1="5" x2="91.2" y2="10" stroke="black"/><g transform="translate(91.2 0)"><text class="xinetAxisLabel" font-family="monospace" font-size="14" text-anchor="middle" x="0" y="24" transform="scale(1,1)">800</text></g><line x1="171.20000000000002" y1="5" x2="171.20000000000002" y2="10" stroke="black"/><line x1="251.20000000000002" y1="5" x2="251.20000000000002" y2="10" stroke="black"/><g transform="translate(251.20000000000002 0)"><text class="xinetAxisLabel" font-family="monospace" font-size="14" text-anchor="middle" x="0" y="24" transform="scale(1,1)">1000</text></g><line x1="331.20000000000005" y1="5" x2="331.20000000000005" y2="10" stroke="black"/><line x1="411.20000000000005" y1="5" x2="411.20000000000005" y2="10" stroke="black"/><g transform="translate(411.20000000000005 0)"><text class="xinetAxisLabel" font-family="monospace" font-size="14" text-anchor="middle" x="0" y="24" transform="scale(1,1)">1200</text></g><line x1="491.20000000000005" y1="5" x2="491.20000000000005" y2="10" stroke="black"/><g transform="translate(548.8000000000001 0)"><text class="xinetAxisLabel" font-family="monospace" font-size="14" text-anchor="middle" x="0" y="24" transform="scale(1,1)">1372</text></g></g><text text-anchor="middle" dominant-baseline="middle" fill="black" x="0" y="0" class="protein xlv_text proteinLabel" transform="matrix(1, 0, 0, 1, -577.233, 0)">CAS9</text><g transform="translate(-565.9 0)"><g class="PV_rotator"/></g><g transform="translate(566.7 0)"><g class="PV_rotator"/></g></g><g class="protein upperGroup" transform="translate(586.638916015625 1274.474853515625) scale(0.16604925692081451) "><g/><g/><rect stroke="black" stroke-width="1" fill="#FFFFFF" fill-opacity="1" x="-12" y="-12" width="24" height="24" rx="12" ry="12" stroke-opacity="1"/><g opacity="1" transform="scale(1, 1)"/><text text-anchor="middle" dominant-baseline="middle" fill="black" x="0" y="0" class="protein xlv_text proteinLabel" transform="matrix(1, 0, 0, 1, 0, 0)">PWP2</text></g></g></g></g></svg></svg>